<?xml version="1.0" encoding="utf-8"?>
<!-- Generator: Adobe Illustrator 26.0.2, SVG Export Plug-In . SVG Version: 6.00 Build 0)  -->
<svg version="1.1" id="Layer_1" xmlns="http://www.w3.org/2000/svg" xmlns:xlink="http://www.w3.org/1999/xlink" x="0px" y="0px"
	 viewBox="0 0 750 500" style="enable-background:new 0 0 750 500;" xml:space="preserve">
<style type="text/css">
	.st0{display:none;fill:#050505;stroke:#000000;stroke-miterlimit:10;}
	.st1{display:none;}
	.st2{display:inline;fill:#EBEBEB;}
	.st3{display:inline;fill:#E0E0E0;}
	.st4{fill:#FFFFFF;}
	.st5{fill:#EC0101;}
	.st6{fill:#263238;}
	.st7{fill:#455A64;}
	.st8{opacity:0.2;}
	.st9{opacity:0.3;}
	.st10{fill:#E0E0E0;}
	.st11{fill:#FFBF9D;}
	.st12{fill:#FF9A6C;}
</style>
<rect x="-6" y="-27" class="st0" width="779" height="552"/>
<g id="freepik--background-complete--inject-18" class="st1">
	
		<ellipse transform="matrix(3.995742e-02 -0.9992 0.9992 3.995742e-02 474.9488 678.9627)" class="st2" cx="590.8" cy="92.3" rx="37" ry="31.4"/>
	<path class="st3" d="M612.6,93.3c-0.9,18.6-13.3,33.4-28.6,35.2c1.6,0.4,3.3,0.6,5,0.7c17.3,0.9,32.2-14.9,33.2-35.4
		s-12.3-37.7-29.6-38.6c-1.5-0.1-3,0-4.5,0.2C602.8,59.1,613.5,74.9,612.6,93.3z"/>
	
		<ellipse transform="matrix(0.9952 -9.740920e-02 9.740920e-02 0.9952 -40.8804 37.6991)" class="st2" cx="365.7" cy="437.5" rx="37" ry="18"/>
	<path class="st3" d="M366,450c-18.6,1.5-34-4-36.7-12.5c-0.3,0.9-0.4,1.9-0.4,2.9c0.2,9.9,16.8,16.7,37.2,15.1s36.7-11,36.6-20.9
		c0-0.9-0.2-1.7-0.4-2.6C399.5,440.8,384.3,448.6,366,450z"/>
	
		<ellipse transform="matrix(0.7666 -0.6421 0.6421 0.7666 -222.9326 144.2657)" class="st2" cx="87" cy="378.8" rx="24.4" ry="28.8"/>
	<path class="st3" d="M74,389.8c9.4,11,24.1,14.3,34.4,8.1c-0.8,1-1.7,2-2.7,2.8c-10.2,8.8-26.9,6.1-37.2-6s-10.4-29-0.1-37.8
		c0.9-0.8,1.9-1.5,2.9-2.1C63.8,364,64.7,378.9,74,389.8z"/>
	
		<ellipse transform="matrix(1.466018e-02 -0.9999 0.9999 1.466018e-02 -197.6524 307.7531)" class="st2" cx="57.3" cy="254.2" rx="18.8" ry="12.8"/>
	<path class="st3" d="M48.4,253.9c-0.2,9.4,4.4,17.4,10.6,18.9c-0.7,0.1-1.3,0.2-2,0.2c-7.1-0.2-12.7-8.8-12.4-19.2
		s6.2-18.6,13.2-18.4c0.6,0,1.2,0.1,1.8,0.2C53.4,236.9,48.6,244.5,48.4,253.9z"/>
	<path class="st2" d="M659.6,338.4c-5.4,10.1-2.7,22,5.9,26.6s20,0,25.3-10.1s2.7-22-5.9-26.6S665,328.2,659.6,338.4z"/>
	<path class="st3" d="M686.1,352.4c4.9-9.2,3.1-20-3.7-25.2c0.9,0.3,1.8,0.6,2.6,1.1c8.6,4.5,11.3,16.4,5.9,26.6
		s-16.7,14.7-25.4,10.2c-0.8-0.4-1.5-0.9-2.2-1.4C671.5,366.1,681.2,361.5,686.1,352.4z"/>
	<ellipse transform="matrix(0.331 -0.9436 0.9436 0.331 45.193 231.4394)" class="st2" cx="185.8" cy="83.8" rx="28.8" ry="24.4"/>
	<path class="st3" d="M167.9,77.4c-4.7,13.7,0,28,10.6,33.7c-1.3-0.2-2.6-0.5-3.8-0.9c-12.8-4.3-19-20-13.8-35.1
		s19.7-23.7,32.5-19.4c1.1,0.4,2.2,0.9,3.2,1.4C184.8,55.4,172.5,63.8,167.9,77.4z"/>
	<path class="st3" d="M519.5,82.5l4.2,2.5c0.4,0.2,0.5,0.7,0.3,1.1c-0.1,0.1-0.2,0.2-0.3,0.3l-4.5,2.2c-0.1,0.1-0.3,0.2-0.3,0.3
		l-2.6,4.3c-0.2,0.4-0.7,0.5-1.1,0.3c-0.1-0.1-0.2-0.2-0.3-0.3l-2.1-4.4c-0.1-0.1-0.2-0.3-0.3-0.3l-4.2-2.5
		c-0.4-0.2-0.5-0.7-0.3-1.1c0.1-0.1,0.2-0.2,0.3-0.3l4.5-2.2c0.1-0.1,0.3-0.2,0.3-0.3l2.6-4.2c0.2-0.4,0.7-0.5,1.1-0.3
		c0.1,0.1,0.2,0.2,0.3,0.3l2.1,4.4C519.3,82.3,519.4,82.4,519.5,82.5z"/>
	<path class="st3" d="M112.6,444.4l4.2,2.5c0.4,0.2,0.5,0.7,0.3,1.1c-0.1,0.1-0.2,0.2-0.3,0.3l-4.5,2.2c-0.1,0.1-0.3,0.2-0.3,0.3
		l-2.6,4.3c-0.2,0.4-0.7,0.5-1.1,0.3c-0.1-0.1-0.2-0.2-0.3-0.3l-2.1-4.4c-0.1-0.1-0.2-0.3-0.3-0.3l-4.2-2.5
		c-0.4-0.2-0.5-0.7-0.3-1.1c0.1-0.1,0.2-0.2,0.3-0.3l4.5-2.2c0.1-0.1,0.3-0.2,0.3-0.3l2.6-4.2c0.2-0.4,0.7-0.5,1.1-0.3
		c0.1,0.1,0.2,0.2,0.3,0.3l2.1,4.4C112.4,444.2,112.5,444.3,112.6,444.4z"/>
	<path class="st3" d="M483.8,441.4l4.2,2.5c0.4,0.2,0.5,0.7,0.3,1.1c-0.1,0.1-0.2,0.2-0.3,0.3l-4.5,2.2c-0.1,0.1-0.3,0.2-0.3,0.3
		l-2.6,4.2c-0.2,0.4-0.7,0.5-1.1,0.3c-0.1-0.1-0.2-0.2-0.3-0.3l-2.1-4.4c-0.1-0.1-0.2-0.3-0.3-0.3l-4.2-2.5
		c-0.4-0.2-0.5-0.7-0.3-1.1c0.1-0.1,0.2-0.2,0.3-0.3l4.5-2.2c0.1-0.1,0.3-0.2,0.3-0.3l2.6-4.3c0.2-0.4,0.7-0.5,1.1-0.3
		c0.1,0.1,0.2,0.2,0.3,0.3l2.1,4.4C483.5,441.2,483.6,441.4,483.8,441.4z"/>
	<path class="st3" d="M666.9,437.8l4.2,2.5c0.4,0.2,0.5,0.7,0.3,1.1c-0.1,0.1-0.2,0.2-0.3,0.3l-4.5,2.2c-0.1,0.1-0.3,0.2-0.3,0.3
		l-2.6,4.2c-0.2,0.4-0.7,0.5-1.1,0.3c-0.1-0.1-0.2-0.2-0.3-0.3l-2.1-4.4c-0.1-0.1-0.2-0.3-0.3-0.3l-4.2-2.5
		c-0.4-0.2-0.5-0.7-0.3-1.1c0.1-0.1,0.2-0.2,0.3-0.3l4.5-2.2c0.1-0.1,0.3-0.2,0.3-0.3l2.6-4.3c0.2-0.4,0.7-0.5,1.1-0.3
		c0.1,0.1,0.2,0.2,0.3,0.3l2.1,4.4C666.7,437.7,666.8,437.8,666.9,437.8z"/>
	<path class="st3" d="M218.2,131l4.2,2.5c0.4,0.2,0.5,0.7,0.3,1.1c-0.1,0.1-0.2,0.2-0.3,0.3l-4.5,2.2c-0.1,0.1-0.3,0.2-0.3,0.3
		l-2.6,4.2c-0.2,0.4-0.7,0.5-1.1,0.3c-0.1-0.1-0.2-0.2-0.3-0.3l-2.1-4.4c-0.1-0.1-0.2-0.3-0.3-0.3l-4.2-2.5
		c-0.4-0.2-0.5-0.7-0.3-1.1c0.1-0.1,0.2-0.2,0.3-0.3l4.5-2.2c0.1-0.1,0.2-0.2,0.3-0.3l2.6-4.3c0.2-0.4,0.7-0.5,1.1-0.3
		c0.1,0.1,0.2,0.2,0.3,0.3l2.1,4.4C218,130.8,218.1,130.9,218.2,131z"/>
	<path class="st3" d="M245.1,46.5l4.2,2.5c0.4,0.2,0.5,0.7,0.3,1.1c-0.1,0.1-0.2,0.2-0.3,0.3l-4.5,2.2c-0.1,0.1-0.3,0.2-0.3,0.3
		l-2.6,4.2c-0.2,0.4-0.7,0.5-1.1,0.3c-0.1-0.1-0.2-0.2-0.3-0.3l-2.1-4.4c-0.1-0.1-0.2-0.2-0.3-0.3l-4.2-2.5
		c-0.4-0.2-0.5-0.7-0.3-1.1c0.1-0.1,0.2-0.2,0.3-0.3l4.5-2.2c0.1-0.1,0.3-0.2,0.3-0.3l2.6-4.3c0.2-0.4,0.7-0.5,1.1-0.3
		c0.1,0.1,0.2,0.2,0.3,0.3l2.1,4.4C244.8,46.3,244.9,46.4,245.1,46.5z"/>
	<path class="st3" d="M108.9,83.3l2.1,1.3c0.2,0.1,0.3,0.4,0.2,0.6c0,0.1-0.1,0.1-0.2,0.2l-2.3,1.1c-0.1,0-0.1,0.1-0.2,0.2l-1.3,2.2
		c-0.1,0.2-0.4,0.3-0.6,0.2c-0.1,0-0.1-0.1-0.2-0.2l-1.1-2.2c0-0.1-0.1-0.1-0.2-0.2l-2.1-1.3c-0.2-0.1-0.3-0.4-0.2-0.6
		c0-0.1,0.1-0.1,0.2-0.2l2.3-1.1c0.1,0,0.1-0.1,0.2-0.2l1.3-2.2c0.1-0.2,0.4-0.3,0.6-0.2c0.1,0,0.1,0.1,0.2,0.2l1.1,2.2
		C108.8,83.2,108.8,83.3,108.9,83.3z"/>
	<path class="st3" d="M346.7,71l2.1,1.3c0.2,0.1,0.3,0.4,0.2,0.6c0,0.1-0.1,0.1-0.2,0.2l-2.3,1.1c-0.1,0-0.1,0.1-0.2,0.2l-1.4,2.2
		c-0.1,0.2-0.4,0.3-0.6,0.2c-0.1,0-0.1-0.1-0.2-0.2l-1.1-2.2c0-0.1-0.1-0.1-0.1-0.2l-2.1-1.3c-0.2-0.1-0.3-0.4-0.2-0.6
		c0-0.1,0.1-0.1,0.2-0.2l2.3-1.1c0.1,0,0.1-0.1,0.2-0.2l1.3-2.2c0.1-0.2,0.4-0.3,0.6-0.2c0.1,0,0.1,0.1,0.2,0.2l1.1,2.2
		C346.5,70.9,346.6,71,346.7,71z"/>
	<path class="st3" d="M544.5,57l2.1,1.3c0.2,0.1,0.3,0.4,0.2,0.6c0,0.1-0.1,0.1-0.2,0.2l-2.3,1.1c-0.1,0-0.1,0.1-0.2,0.2l-1.3,2.2
		c-0.1,0.2-0.4,0.3-0.6,0.2c-0.1,0-0.1-0.1-0.2-0.2l-1.1-2.2c0-0.1-0.1-0.1-0.2-0.2l-2.1-1.3c-0.2-0.1-0.3-0.4-0.2-0.6
		c0-0.1,0.1-0.1,0.2-0.2l2.3-1.1c0.1,0,0.1-0.1,0.2-0.2l1.3-2.2c0.1-0.2,0.4-0.3,0.6-0.2c0.1,0,0.1,0.1,0.2,0.2l1.1,2.2
		C544.4,56.9,544.4,57,544.5,57z"/>
	<path class="st3" d="M681.1,63.9l2.1,1.3c0.2,0.1,0.3,0.4,0.2,0.6c0,0.1-0.1,0.1-0.2,0.2L681,67c-0.1,0-0.1,0.1-0.2,0.2l-1.3,2.2
		c-0.1,0.2-0.4,0.3-0.6,0.2c-0.1,0-0.1-0.1-0.2-0.2l-1.1-2.2c0-0.1-0.1-0.1-0.2-0.2l-2.1-1.3c-0.2-0.1-0.3-0.4-0.2-0.6
		c0-0.1,0.1-0.1,0.2-0.2l2.3-1.1c0.1,0,0.1-0.1,0.2-0.2l1.3-2.2c0.1-0.2,0.4-0.3,0.6-0.2c0.1,0,0.1,0.1,0.2,0.2l1.1,2.3
		C681,63.8,681.1,63.9,681.1,63.9z"/>
	<path class="st3" d="M436.9,462.8l2.5,1.5c0.2,0.1,0.3,0.4,0.2,0.7c0,0.1-0.1,0.1-0.2,0.2l-2.6,1.3c-0.1,0-0.2,0.1-0.2,0.2
		l-1.5,2.5c-0.1,0.2-0.4,0.3-0.7,0.2c-0.1,0-0.1-0.1-0.2-0.2l-1.3-2.6c0-0.1-0.1-0.1-0.2-0.2l-2.5-1.5c-0.2-0.1-0.3-0.4-0.2-0.7
		c0-0.1,0.1-0.1,0.2-0.2l2.6-1.4c0.1,0,0.2-0.1,0.2-0.2l1.5-2.5c0.1-0.2,0.4-0.3,0.7-0.2c0.1,0,0.1,0.1,0.2,0.2l1.3,2.6
		C436.8,462.7,436.9,462.8,436.9,462.8z"/>
	<path class="st3" d="M698.4,281.6l2.5,1.5c0.2,0.1,0.3,0.4,0.2,0.7c0,0.1-0.1,0.1-0.2,0.2l-2.6,1.4c-0.1,0-0.2,0.1-0.2,0.2
		l-1.5,2.5c-0.1,0.2-0.4,0.3-0.7,0.2c-0.1,0-0.1-0.1-0.2-0.2l-1.3-2.6c0-0.1-0.1-0.1-0.2-0.2l-2.5-1.5c-0.2-0.1-0.3-0.4-0.2-0.7
		c0-0.1,0.1-0.1,0.2-0.2l2.6-1.4c0.1,0,0.2-0.1,0.2-0.2l1.5-2.5c0.1-0.2,0.4-0.3,0.7-0.2c0.1,0,0.1,0.1,0.2,0.2l1.3,2.6
		C698.3,281.4,698.4,281.5,698.4,281.6z"/>
	<path class="st3" d="M53,303.8l2,1.2c0.2,0.1,0.3,0.3,0.1,0.5c0,0.1-0.1,0.1-0.1,0.1l-2.1,1.1c-0.1,0-0.1,0.1-0.2,0.1l-1.2,2
		c-0.1,0.2-0.3,0.3-0.5,0.1c-0.1,0-0.1-0.1-0.1-0.1l-1-2.1c0-0.1-0.1-0.1-0.2-0.2l-2-1.2c-0.2-0.1-0.3-0.3-0.1-0.5
		c0-0.1,0.1-0.1,0.1-0.1l2.1-1.1c0.1,0,0.1-0.1,0.2-0.1l1.2-2c0.1-0.2,0.3-0.3,0.5-0.2c0.1,0,0.1,0.1,0.2,0.2l1,2.1
		C52.9,303.7,53,303.8,53,303.8z"/>
	<path class="st3" d="M265.7,452.5l2,1.2c0.2,0.1,0.3,0.3,0.1,0.5c0,0.1-0.1,0.1-0.1,0.1l-2.1,1.1c-0.1,0-0.1,0.1-0.2,0.1l-1.2,2
		c-0.1,0.2-0.3,0.3-0.5,0.1c-0.1,0-0.1-0.1-0.1-0.1l-1-2.1c0-0.1-0.1-0.1-0.1-0.2l-2-1.2c-0.2-0.1-0.3-0.3-0.1-0.5
		c0-0.1,0.1-0.1,0.1-0.1l2.1-1.1c0.1,0,0.1-0.1,0.2-0.1l1.2-2c0.1-0.2,0.3-0.3,0.5-0.1c0.1,0,0.1,0.1,0.1,0.1l1,2.1
		C265.6,452.4,265.6,452.5,265.7,452.5z"/>
	<path class="st3" d="M649.1,403.6l2,1.2c0.2,0.1,0.3,0.3,0.1,0.5c0,0.1-0.1,0.1-0.1,0.1l-2.1,1.1c-0.1,0-0.1,0.1-0.2,0.1l-1.2,2
		c-0.1,0.2-0.3,0.3-0.5,0.1c-0.1,0-0.1-0.1-0.1-0.1l-1-2.1c0-0.1-0.1-0.1-0.1-0.2l-2-1.2c-0.2-0.1-0.3-0.3-0.1-0.5
		c0-0.1,0.1-0.1,0.1-0.1l2.1-1.1c0.1,0,0.1-0.1,0.2-0.1l1.2-2c0.1-0.2,0.3-0.3,0.5-0.1c0.1,0,0.1,0.1,0.1,0.1l1,2.1
		C649,403.5,649,403.6,649.1,403.6z"/>
	<path class="st3" d="M606.5,451.1l2,1.2c0.2,0.1,0.3,0.3,0.1,0.5c0,0.1-0.1,0.1-0.1,0.1l-2.1,1.1c-0.1,0-0.1,0.1-0.2,0.1l-1.2,2
		c-0.1,0.2-0.3,0.3-0.5,0.1c-0.1,0-0.1-0.1-0.1-0.1l-1-2.1c0-0.1-0.1-0.1-0.2-0.1l-2-1.2c-0.2-0.1-0.3-0.3-0.1-0.5
		c0-0.1,0.1-0.1,0.1-0.1l2.1-1.1c0.1,0,0.1-0.1,0.2-0.1l1.2-2c0.1-0.2,0.3-0.3,0.5-0.1c0.1,0,0.1,0.1,0.1,0.1l1,2.1
		C606.4,451,606.5,451.1,606.5,451.1z"/>
	<path class="st3" d="M649.5,145.2l2.2,1.3c0.2,0.1,0.3,0.4,0.2,0.6c0,0.1-0.1,0.1-0.2,0.2l-2.3,1.2c-0.1,0-0.1,0.1-0.2,0.2
		l-1.4,2.2c-0.1,0.2-0.4,0.3-0.6,0.2c-0.1,0-0.1-0.1-0.2-0.2l-1.2-2.3c0-0.1-0.1-0.1-0.2-0.2l-2.2-1.3c-0.2-0.1-0.3-0.4-0.2-0.6
		c0-0.1,0.1-0.1,0.2-0.2l2.3-1.1c0.1,0,0.1-0.1,0.2-0.2l1.3-2.2c0.1-0.2,0.4-0.3,0.6-0.2c0.1,0,0.1,0.1,0.2,0.2l1.1,2.3
		C649.4,145.1,649.5,145.1,649.5,145.2z"/>
</g>
<path class="st4" d="M158.7,37.5c39-4.4,77.7-1.2,143.9,18.9c39.5,12,78.6,4.1,117.1-7.7c38.4-11.8,78-22.5,118.2-26.2
	c24-2.2,50,1.3,68.4,17C619,50.4,626.8,66,631.1,82.2c8.5,32.4,7.8,66.2,8.9,99.4c1,29.5-2.2,61.6,12,88.6
	c4.3,8.2,10,15.5,14.7,23.4c19.7,33,24.4,79.1,17.9,116.3c-3.2,18.6-10.1,38-24.4,50.9c-17.5,15.7-39,14.9-61,12.8
	c-59.9-5.7-112.8-39.3-172.1-48c-40.7-6-81.9,0.1-121.7,8.8c-33.5,7.4-65.3,6.3-99-1.7c-51.1-12.2-135.6-46.9-132.5-111.8
	c0.9-18.9,11-35.8,13.6-54.4c4.5-31.2,1.7-63.3-6.8-93.6c-7.8-27.8-23.2-50.2-6.5-78.6C91,65.8,125.7,41.3,158.7,37.5z"/>
<g id="freepik--Stars--inject-18">
	<path class="st5" d="M526.6,176.6l0.8,0.5c0.1,0,0.1,0.1,0.1,0.2c0,0,0,0.1-0.1,0.1l-0.8,0.4c0,0,0,0-0.1,0.1l-0.5,0.8
		c0,0.1-0.1,0.1-0.2,0.1c0,0,0,0-0.1-0.1l-0.4-0.8c0,0,0,0-0.1-0.1l-0.8-0.5c-0.1,0-0.1-0.1-0.1-0.2c0,0,0-0.1,0.1-0.1l0.8-0.4
		c0,0,0,0,0.1-0.1l0.5-0.8c0-0.1,0.1-0.1,0.2-0.1c0,0,0.1,0,0.1,0.1L526.6,176.6C526.5,176.6,526.6,176.6,526.6,176.6z"/>
	<path class="st5" d="M527.2,291.4l0.8,0.5c0.1,0,0.1,0.1,0.1,0.2c0,0,0,0.1-0.1,0.1l-0.8,0.4c0,0,0,0-0.1,0.1l-0.5,0.8
		c0,0.1-0.1,0.1-0.2,0.1c0,0,0,0-0.1-0.1l-0.4-0.8c0,0,0,0-0.1-0.1l-0.8-0.5c-0.1,0-0.1-0.1-0.1-0.2c0,0,0,0,0.1-0.1l0.8-0.4
		c0,0,0,0,0.1-0.1l0.4-0.8c0-0.1,0.1-0.1,0.2-0.1c0,0,0,0,0.1,0.1L527.2,291.4C527.2,291.3,527.2,291.4,527.2,291.4z"/>
	<path class="st5" d="M558.7,238.8l1.5,0.9c0.1,0.1,0.2,0.3,0.1,0.4c0,0-0.1,0.1-0.1,0.1l-1.6,0.8c-0.1,0-0.1,0.1-0.1,0.1l-0.9,1.5
		c-0.1,0.1-0.3,0.2-0.4,0.1c0,0-0.1-0.1-0.1-0.1l-0.8-1.6c0-0.1-0.1-0.1-0.1-0.1l-1.5-0.9c-0.1-0.1-0.2-0.3-0.1-0.4
		c0,0,0.1-0.1,0.1-0.1l1.6-0.8c0.1,0,0.1-0.1,0.1-0.1l0.9-1.5c0.1-0.1,0.3-0.2,0.4-0.1c0,0,0.1,0.1,0.1,0.1l0.8,1.6
		C558.7,238.7,558.7,238.8,558.7,238.8z"/>
	<path class="st5" d="M518.1,185.2l1.5,0.9c0.1,0.1,0.2,0.3,0.1,0.4c0,0.1-0.1,0.1-0.1,0.1l-1.6,0.8c0,0-0.1,0.1-0.1,0.1l-0.9,1.5
		c-0.1,0.1-0.3,0.2-0.4,0.1c0,0-0.1-0.1-0.1-0.1l-0.8-1.6c0,0-0.1-0.1-0.1-0.1l-1.5-0.9c-0.1-0.1-0.2-0.3-0.1-0.4
		c0,0,0.1-0.1,0.1-0.1l1.6-0.8c0,0,0.1-0.1,0.1-0.1l0.9-1.5c0.1-0.1,0.2-0.2,0.4-0.1c0.1,0,0.1,0.1,0.1,0.1l0.8,1.6
		C518,185.1,518.1,185.2,518.1,185.2z"/>
	<path class="st5" d="M157.4,229.9l1.2,0.8c0.1,0.1,0.1,0.2,0.1,0.3c0,0-0.1,0.1-0.1,0.1l-1.2,0.6c0,0-0.1,0-0.1,0.1l-0.7,1.1
		c-0.1,0.1-0.2,0.1-0.3,0.1c0,0-0.1-0.1-0.1-0.1l-0.6-1.2c0,0-0.1-0.1-0.1-0.1l-1.2-0.8c-0.1-0.1-0.1-0.2-0.1-0.3c0,0,0-0.1,0.1-0.1
		l1.2-0.6c0,0,0.1,0,0.1-0.1l0.7-1.1c0.1-0.1,0.2-0.1,0.3-0.1c0,0,0.1,0.1,0.1,0.1L157.4,229.9C157.4,229.8,157.4,229.8,157.4,229.9
		z"/>
	<path class="st5" d="M182.6,256.2l1.1,0.6c0.1,0.1,0.1,0.2,0.1,0.3c0,0-0.1,0.1-0.1,0.1l-1.1,0.6c0,0-0.1,0-0.1,0.1l-0.6,1.1
		c-0.1,0.1-0.2,0.1-0.3,0.1c0,0-0.1,0-0.1-0.1l-0.6-1.1c0,0,0-0.1-0.1-0.1l-1.1-0.6c-0.1-0.1-0.1-0.2-0.1-0.3c0,0,0.1-0.1,0.1-0.1
		l1.1-0.6c0,0,0.1-0.1,0.1-0.1l0.6-1.1c0.1-0.1,0.2-0.1,0.3-0.1c0,0,0.1,0.1,0.1,0.1L182.6,256.2
		C182.5,256.1,182.6,256.2,182.6,256.2z"/>
	<path class="st5" d="M216.2,169.1l1.1,0.6c0.1,0.1,0.1,0.2,0.1,0.3c0,0,0,0.1-0.1,0.1l-1.1,0.6c0,0-0.1,0-0.1,0.1l-0.6,1.1
		c-0.1,0.1-0.2,0.1-0.3,0.1c0,0-0.1-0.1-0.1-0.1l-0.6-1.1c0,0,0-0.1-0.1-0.1l-1.1-0.6c-0.1-0.1-0.1-0.2-0.1-0.3c0,0,0-0.1,0.1-0.1
		l1.1-0.6c0,0,0.1,0,0.1-0.1l0.6-1.1c0.1-0.1,0.2-0.1,0.3-0.1c0,0,0.1,0.1,0.1,0.1L216.2,169.1C216.2,169.1,216.2,169.1,216.2,169.1
		z"/>
	<path class="st5" d="M303.5,150.7l1.1,0.6c0.1,0.1,0.1,0.2,0.1,0.3c0,0-0.1,0.1-0.1,0.1l-1.1,0.6c0,0-0.1,0-0.1,0.1l-0.6,1.1
		c-0.1,0.1-0.2,0.1-0.3,0.1c0,0-0.1-0.1-0.1-0.1l-0.6-1.1c0,0,0-0.1-0.1-0.1l-1.1-0.6c-0.1-0.1-0.1-0.2-0.1-0.3c0,0,0.1-0.1,0.1-0.1
		l1.1-0.6c0,0,0.1-0.1,0.1-0.1l0.6-1.1c0.1-0.1,0.2-0.1,0.3-0.1c0,0,0.1,0,0.1,0.1L303.5,150.7C303.4,150.6,303.4,150.6,303.5,150.7
		z"/>
	<path class="st5" d="M174.4,260.4l2.2,1.3c0.2,0.1,0.3,0.3,0.2,0.6c0,0.1-0.1,0.2-0.2,0.2l-2.2,1.1c-0.1,0-0.1,0.1-0.2,0.2
		l-1.2,2.2c-0.1,0.2-0.3,0.3-0.5,0.2c-0.1,0-0.2-0.1-0.2-0.2l-1.2-2.3c0-0.1-0.1-0.1-0.2-0.2l-2.2-1.3c-0.2-0.1-0.3-0.3-0.2-0.5
		c0-0.1,0.1-0.2,0.2-0.2l2.2-1.1c0.1,0,0.1-0.1,0.2-0.2l1.2-2.2c0.1-0.2,0.3-0.3,0.6-0.2c0.1,0,0.2,0.1,0.2,0.2l1.2,2.3
		C174.3,260.3,174.3,260.3,174.4,260.4z"/>
	<path class="st5" d="M319.2,139l2.2,1.3c0.2,0.1,0.3,0.4,0.2,0.6c0,0.1-0.1,0.1-0.2,0.2l-2.2,1.1c-0.1,0-0.1,0.1-0.2,0.2l-1.2,2.2
		c-0.1,0.2-0.4,0.3-0.6,0.2c-0.1,0-0.1-0.1-0.2-0.2l-1.2-2.3c0-0.1-0.1-0.1-0.2-0.2l-2.2-1.3c-0.2-0.1-0.3-0.3-0.2-0.6
		c0-0.1,0.1-0.2,0.2-0.2l2.2-1.1c0.1,0,0.1-0.1,0.2-0.2l1.2-2.2c0.1-0.2,0.3-0.3,0.6-0.2c0.1,0,0.2,0.1,0.2,0.2l1.2,2.3
		C319.1,138.9,319.2,139,319.2,139z"/>
	<path class="st5" d="M287.4,355.6l2.2,1.3c0.2,0.1,0.3,0.4,0.2,0.6c0,0.1-0.1,0.1-0.2,0.2l-2.2,1.1c-0.1,0-0.1,0.1-0.2,0.2
		l-1.1,2.2c-0.1,0.2-0.3,0.3-0.6,0.2c-0.1,0-0.2-0.1-0.2-0.2l-1.2-2.3c0-0.1-0.1-0.1-0.2-0.2l-2.2-1.3c-0.2-0.1-0.3-0.3-0.2-0.6
		c0-0.1,0.1-0.2,0.2-0.2l2.2-1.1c0.1,0,0.1-0.1,0.2-0.2l1.2-2.2c0.1-0.2,0.4-0.3,0.6-0.2c0.1,0,0.1,0.1,0.2,0.2l1.2,2.3
		C287.3,355.5,287.3,355.6,287.4,355.6z"/>
	<path class="st5" d="M494.6,316l2.2,1.3c0.2,0.1,0.3,0.3,0.2,0.6c0,0.1-0.1,0.2-0.2,0.2l-2.2,1.1c-0.1,0-0.1,0.1-0.2,0.2l-1.2,2.2
		c-0.1,0.2-0.3,0.3-0.5,0.2c-0.1,0-0.2-0.1-0.2-0.2l-1.2-2.3c0-0.1-0.1-0.1-0.2-0.2l-2.2-1.3c-0.2-0.1-0.3-0.3-0.2-0.6
		c0-0.1,0.1-0.2,0.2-0.2l2.2-1.1c0.1,0,0.1-0.1,0.2-0.2l1.2-2.2c0.1-0.2,0.3-0.3,0.6-0.2c0.1,0,0.2,0.1,0.2,0.2l1.2,2.3
		C494.5,315.9,494.5,316,494.6,316z"/>
	<path class="st5" d="M464,151.2l1.4,0.8c0.1,0.1,0.2,0.2,0.1,0.4c0,0-0.1,0.1-0.1,0.1l-1.4,0.8c0,0-0.1,0.1-0.1,0.1l-0.8,1.4
		c-0.1,0.1-0.2,0.2-0.4,0.1c0,0-0.1-0.1-0.1-0.1l-0.8-1.5c0,0-0.1-0.1-0.1-0.1l-1.4-0.8c-0.1-0.1-0.2-0.2-0.1-0.4
		c0,0,0.1-0.1,0.1-0.1l1.4-0.8c0,0,0.1-0.1,0.1-0.1l0.8-1.4c0.1-0.1,0.2-0.2,0.4-0.1c0,0,0.1,0.1,0.1,0.1l0.8,1.5
		C463.9,151.1,463.9,151.2,464,151.2z"/>
</g>
<g id="freepik--portal-4--inject-18">
	
		<ellipse transform="matrix(0.7309 -0.6825 0.6825 0.7309 -99.4622 446.8297)" class="st6" cx="516.9" cy="349.5" rx="32.5" ry="20.9"/>
	<path class="st7" d="M526.9,360.1c-11.9,11.2-27.1,14.8-35.7,9c0.5,1,1.2,1.9,2,2.7c7.9,8.4,24.9,5.3,38-7
		c13.1-12.3,17.3-29,9.4-37.4c-0.7-0.7-1.4-1.4-2.3-2C543.3,334.3,538.7,349,526.9,360.1z"/>
</g>
<g id="freepik--portal-3--inject-18">
	<ellipse transform="matrix(0.9552 -0.296 0.296 0.9552 -18.4396 93.8789)" class="st6" cx="300.8" cy="107.8" rx="17.2" ry="8.8"/>
	<path class="st7" d="M298.7,102.1c8.3-2.7,16.2-1.8,18.8,1.8c0-0.5-0.1-0.9-0.3-1.4c-1.7-4.6-10.4-5.9-19.4-3
		c-9.1,2.9-15.1,9-13.4,13.6c0.2,0.4,0.4,0.8,0.6,1.1C284.8,109.9,290.5,104.7,298.7,102.1z"/>
</g>
<g id="freepik--portal-2--inject-18">
	
		<ellipse transform="matrix(0.1525 -0.9883 0.9883 0.1525 201.2934 516.6861)" class="st6" cx="401.9" cy="141" rx="16.7" ry="43.7"/>
	<path class="st7" d="M404.8,129.6c21.7,3.7,38,12.8,38.9,21.2c0.6-0.7,1-1.6,1.2-2.5c2.4-9-14.9-19.5-38.7-23.6
		c-23.8-4-45-0.1-47.3,8.9c-0.2,0.8-0.3,1.6-0.2,2.4C364,128.9,383.4,126,404.8,129.6z"/>
	<path class="st7" d="M400,139.5c5.4,2.8,9.1,8.2,14.1,11.7c3.3,2.3,7.4,3.9,9.6,7.3c-0.2-2-1.6-3.6-2.9-5.1
		c-3.8-4.1-8.1-7.8-12.7-11c-2.4-1.6-5-3.2-7.9-3.1"/>
	<g class="st8">
		<path d="M400,139.5c5.4,2.8,9.1,8.2,14.1,11.7c3.3,2.3,7.4,3.9,9.6,7.3c-0.2-2-1.6-3.6-2.9-5.1c-3.8-4.1-8.1-7.8-12.7-11
			c-2.4-1.6-5-3.2-7.9-3.1"/>
	</g>
	<path class="st7" d="M425.9,66.1c0-0.9-0.3-1.8-0.9-2.5c-0.8-0.9-2.2-1-3.4-0.9c-5.2,0.4-11.8,8.1-14.9,12.1l0.5,22.8
		C421.5,90.3,427.2,77,425.9,66.1z"/>
	<g class="st8">
		<path d="M425.9,66.1c0-0.9-0.3-1.8-0.9-2.5c-0.8-0.9-2.2-1-3.4-0.9c-5.2,0.4-11.8,8.1-14.9,12.1l0.5,22.8
			C421.5,90.3,427.2,77,425.9,66.1z"/>
	</g>
	<path class="st7" d="M403.5,113c2.6-0.9,5.4-1.7,8.1-2.2c2.7-0.4,5.4-1.6,8.1-2.2c3.4-0.8,6.7-2.4,10-3.6c3.3-1.3,6.8-2.3,10.4-1.9
		c-2.6-1.2-5.6-1.9-8.5-1.8c-2.9,0.1-5.8,0.4-8.7,0.9c-4,0.6-8.1,1.3-11.7,3.1C407.6,107.2,404.3,109,403.5,113"/>
	<g class="st8">
		<path d="M403.5,113c2.6-0.9,5.4-1.7,8.1-2.2c2.7-0.4,5.4-1.6,8.1-2.2c3.4-0.8,6.7-2.4,10-3.6c3.3-1.3,6.8-2.3,10.4-1.9
			c-2.6-1.2-5.6-1.9-8.5-1.8c-2.9,0.1-5.8,0.4-8.7,0.9c-4,0.6-8.1,1.3-11.7,3.1C407.6,107.2,404.3,109,403.5,113"/>
	</g>
	<path class="st7" d="M385.1,113.8c-3.5-5.1-10.5-6.6-16.5-8.1c8.4,7.2,15.9,15.3,22.5,24.2C392.5,125.7,389.6,120.3,385.1,113.8z"
		/>
	<g class="st8">
		<path d="M385.1,113.8c-3.5-5.1-10.5-6.6-16.5-8.1c8.4,7.2,15.9,15.3,22.5,24.2C392.5,125.7,389.6,120.3,385.1,113.8z"/>
	</g>
	<path class="st7" d="M389.6,145.6c-7.2-2.1-13.2-10.3-20.3-12.7C377.6,132.6,387.8,137.5,389.6,145.6"/>
	<g class="st8">
		<path d="M389.6,145.6c-7.2-2.1-13.2-10.3-20.3-12.7C377.6,132.6,387.8,137.5,389.6,145.6"/>
	</g>
	<path class="st7" d="M396.8,129c4.1-0.2,8.1,0.6,11.8,2.4c3.7,1.8,7.2,3.8,10.5,6.1c0.3-2.6-1.2-5.1-2.7-7.2
		c-1-1.7-2.3-3.3-3.6-4.7c-1.4-1.5-3.1-2.5-5-3c-2.4-0.5-4.8,0-6.8,1.4C399.1,125.1,397.6,126.9,396.8,129"/>
	<path class="st7" d="M390.2,155.6c0,0,3.6-24.5,7.6-38s7.8-28.8,7.8-28.8l1.6,0.4c0,0-8.4,26.7-11.6,43.3c-3.3,16.6-2.2,24-2.2,24
		L390.2,155.6"/>
	<path class="st7" d="M424.5,64.4c0,0.1-0.1,0.2-0.2,0.3l-0.5,0.7c-0.5,0.6-1.1,1.4-1.9,2.5c-1.6,2.1-3.7,5.2-5.7,8.7
		s-3.7,6.8-4.9,9.2c-0.6,1.2-1,2.2-1.3,2.9c-0.1,0.3-0.3,0.6-0.4,0.8c0,0.1-0.1,0.2-0.1,0.3c0-0.1,0.1-0.2,0.1-0.3
		c0.1-0.2,0.2-0.5,0.3-0.8c0.3-0.7,0.7-1.7,1.2-2.9c2.9-6.4,6.4-12.4,10.6-17.9c0.8-1.1,1.5-1.9,2-2.5c0.2-0.3,0.4-0.5,0.6-0.7
		C424.4,64.4,424.5,64.4,424.5,64.4z"/>
	<path class="st7" d="M402.9,101.2c-4.6-5.2-6.1-12.4-4.1-19c1.4-4.7,4.3-8.7,7.4-12.5c0.2-0.4,0.6-0.6,1-0.8c0.6,0,1.2,0.3,1.5,0.8
		c3.4,3.8,4.3,9.2,4.1,14.3c-0.1,3.4-0.9,6.7-2.3,9.8C408.9,97.1,406.2,99.6,402.9,101.2"/>
	<path class="st6" d="M402.9,101.2c0-0.1,0-0.2,0.1-0.3c0.1-0.2,0.2-0.5,0.3-0.8c0.2-0.7,0.6-1.7,0.9-3c0.9-3.3,1.7-6.6,2.2-9.9
		c0.6-3.9,1-7.5,1.3-10.1c0.1-1.3,0.2-2.3,0.3-3c0-0.3,0.1-0.6,0.1-0.8c0-0.2,0-0.3,0.1-0.3c0,0.1,0,0.2,0,0.3c0,0.2,0,0.5,0,0.8
		c0,0.8-0.1,1.8-0.2,3.1c-0.2,2.6-0.5,6.2-1.2,10.1c-0.5,3.4-1.3,6.7-2.3,9.9c-0.4,1.3-0.8,2.3-1,2.9c-0.1,0.3-0.2,0.6-0.3,0.8
		C403.1,101,403,101.1,402.9,101.2z"/>
	<g class="st8">
		<path d="M396.8,129c4.1-0.2,8.1,0.6,11.8,2.4c3.7,1.8,7.2,3.8,10.5,6.1c0.3-2.6-1.2-5.1-2.7-7.2c-1-1.7-2.3-3.3-3.6-4.7
			c-1.4-1.5-3.1-2.5-5-3c-2.4-0.5-4.8,0-6.8,1.4C399.1,125.1,397.6,126.9,396.8,129"/>
	</g>
	<path class="st7" d="M414.5,148.9c0,0-0.1-0.1-0.2-0.2c-0.1-0.1-0.3-0.3-0.5-0.5c-0.5-0.4-1.1-1.1-2-1.9c-0.4-0.4-0.9-0.8-1.4-1.2
		c-0.5-0.4-1.1-0.9-1.6-1.4c-1.3-1-2.6-2-4-2.8c-1.4-0.8-3-1.3-4.6-1.4c-0.7,0-1.4,0-2.1,0.1c-0.6,0.1-1.2,0.2-1.8,0.4
		c-0.9,0.3-1.7,0.6-2.4,1.1c-0.5,0.3-0.8,0.6-0.8,0.5c0,0,0.1-0.1,0.2-0.2c0.2-0.2,0.4-0.3,0.6-0.4c0.8-0.5,1.6-0.9,2.4-1.2
		c0.6-0.2,1.2-0.3,1.8-0.4c0.7-0.1,1.4-0.1,2.2-0.1c1.7,0.1,3.3,0.5,4.7,1.4c1.4,0.8,2.8,1.8,4.1,2.8c0.6,0.5,1.1,0.9,1.6,1.4
		s1,0.9,1.4,1.3c0.8,0.8,1.5,1.4,1.9,1.9l0.5,0.5C414.4,148.8,414.5,148.8,414.5,148.9z"/>
	<path class="st7" d="M385.2,140.6c0.2,0.1,0.3,0.1,0.4,0.3c0.4,0.3,0.7,0.5,1,0.8c1.1,1,2,2.1,2.8,3.4c0.8,1.3,1.3,2.6,1.7,4.1
		c0.1,0.4,0.2,0.9,0.2,1.3c0,0.2,0,0.3,0,0.5c0,0-0.2-0.7-0.5-1.8c-0.8-2.8-2.3-5.4-4.4-7.4C385.7,141,385.2,140.6,385.2,140.6z"/>
	<path class="st7" d="M375.7,111.3c0.1,0,0.2,0.1,0.3,0.2l0.8,0.5l1.2,0.9c0.5,0.3,1,0.8,1.6,1.3c3,2.5,5.6,5.4,7.8,8.6
		c1.2,1.8,2.3,3.6,3.2,5.5c0.8,1.6,1.5,3.2,2,4.8c0.5,1.4,0.9,2.5,1.1,3.3c0.1,0.4,0.2,0.7,0.3,0.9c0,0.1,0.1,0.2,0.1,0.3
		c-0.1-0.1-0.1-0.2-0.1-0.3c-0.1-0.2-0.2-0.5-0.3-0.9c-0.3-0.8-0.7-1.9-1.2-3.3c-0.5-1.4-1.2-3-2.1-4.8c-1-1.9-2-3.7-3.2-5.5
		c-2.2-3.2-4.7-6.1-7.6-8.6c-0.6-0.5-1.1-0.9-1.5-1.3l-1.2-0.9l-0.8-0.6C375.9,111.5,375.8,111.4,375.7,111.3z"/>
	<path class="st7" d="M408.8,127.9c-0.2-0.1-0.4-0.1-0.6-0.2l-0.6-0.3c-0.2-0.1-0.5-0.2-0.9-0.3c-1.7-0.6-3.5-0.7-5.2-0.4
		c-1,0.2-1.9,0.6-2.7,1.1c-0.7,0.4-1.4,0.9-2,1.4c-0.5,0.5-1,1.1-1.5,1.6c0.1-0.2,0.2-0.4,0.3-0.5c0.3-0.4,0.7-0.9,1.1-1.2
		c0.6-0.6,1.2-1.1,2-1.5c2.5-1.5,5.5-1.7,8.2-0.6c0.3,0.1,0.6,0.2,0.9,0.4l0.6,0.3C408.5,127.6,408.7,127.7,408.8,127.9z"/>
	<path class="st7" d="M423.2,104.1c-0.1,0-0.2,0.1-0.3,0.1l-0.9,0.2c-0.8,0.2-2,0.5-3.4,0.9c-1.4,0.4-3.1,0.9-4.9,1.6
		c-2,0.7-3.9,1.6-5.8,2.6c-1,0.5-1.8,1.2-2.6,2c-0.7,0.8-1.4,1.5-2.1,2.3c-1.2,1.3-2.2,2.6-3.3,4c-0.7,0.9-1.3,1.9-1.9,3
		c-0.4,0.8-0.6,1.1-0.6,1.1c0-0.1,0.1-0.2,0.1-0.3c0.1-0.2,0.2-0.5,0.4-0.9c0.5-1.1,1.1-2.1,1.8-3c1-1.4,2.1-2.8,3.2-4.1
		c0.6-0.8,1.3-1.5,2.1-2.3c0.8-0.8,1.7-1.5,2.6-2c1.9-1.1,3.8-1.9,5.8-2.6c1.8-0.7,3.5-1.2,5-1.5c1.4-0.4,2.6-0.6,3.4-0.8l0.9-0.2
		L423.2,104.1z"/>
	<path class="st7" d="M396.6,125.2c0-0.2,0-0.4,0-0.6c0-0.5,0-1.1,0-1.8c0-1.9-0.1-3.9-0.3-5.8c-0.2-1.9-0.6-3.8-1-5.7
		c-0.2-0.7-0.3-1.3-0.4-1.7c-0.1-0.2-0.1-0.4-0.1-0.6c0.1,0.2,0.2,0.4,0.2,0.6c0.1,0.4,0.3,1,0.5,1.7c1,3.8,1.5,7.7,1.3,11.6
		c0,0.8-0.1,1.3-0.1,1.8C396.7,124.8,396.7,125,396.6,125.2z"/>
	<path class="st7" d="M399.5,108.4c0.3-2.8,0.1-5.7-0.8-8.4c-2.3-7.6-7.9-13.7-15.1-16.8c3.9,9.3,7.7,18.6,11.5,27.8l1.2,4.8
		C398.1,113.7,399.2,111.1,399.5,108.4z"/>
	<g class="st8">
		<path d="M399.5,108.4c0.3-2.8,0.1-5.7-0.8-8.4c-2.3-7.6-7.9-13.7-15.1-16.8c3.9,9.3,7.7,18.6,11.5,27.8l1.2,4.8
			C398.1,113.7,399.2,111.1,399.5,108.4z"/>
	</g>
</g>
<g id="freepik--portal-1--inject-18">
	<ellipse transform="matrix(0.7081 -0.7061 0.7061 0.7081 -178.519 265.6264)" class="st6" cx="232" cy="348.7" rx="22" ry="34.3"/>
	<path class="st7" d="M221.2,359.7c-12.2-12.2-16.5-28.1-10.7-37.4c-1,0.6-1.9,1.3-2.8,2.2c-8.6,8.6-4.7,26.5,8.7,39.9
		c13.4,13.4,31.2,17.3,39.8,8.6c0.8-0.8,1.4-1.6,2-2.5C249,376.1,233.3,371.7,221.2,359.7z"/>
	<path class="st7" d="M234.9,343.2l10.8-11.5l1.3,1.3c0,0-9.1,10.6-9.3,13.2L234.9,343.2z"/>
	<polygon class="st5" points="217.3,336.6 202.5,358.7 224.9,381.1 247.2,364.1 	"/>
	<path class="st5" d="M225,381c-2,2-8.6-1.5-14.8-7.7c-6.1-6.3-9.5-12.9-7.4-14.9c2-2,8.6,1.5,14.8,7.7S227.1,379,225,381z"/>
	<g class="st9">
		<path d="M225,381c-2,2-8.6-1.5-14.8-7.7c-6.1-6.3-9.5-12.9-7.4-14.9c2-2,8.6,1.5,14.8,7.7S227.1,379,225,381z"/>
	</g>
	<path class="st5" d="M247.9,365.8c-1.9,1.7-11.2,0.2-21.5-9.2s-16-16.5-10.8-22c4.3-4.6,12.9-1.1,23.1,8.4
		C248.9,352.4,254,360.3,247.9,365.8z"/>
	<path class="st6" d="M224.9,381.1c0.1-0.1,0.2-0.2,0.4-0.3l1.1-0.9l4.1-3.3l14.6-11.5l0,0c0.4-0.6,0.5-1.4,0.3-2.1
		c-0.2-0.8-0.4-1.5-0.8-2.2c-0.7-1.5-1.6-2.9-2.6-4.3c-4.5-6-10.1-11.1-16.4-15.2c-1.5-1-3.1-1.8-4.8-2.4c-0.8-0.3-1.6-0.5-2.5-0.6
		c-0.8-0.2-1.6,0-2.2,0.5l0,0l-9.8,14.4l-2.8,4l-0.8,1.1c-0.1,0.1-0.2,0.2-0.3,0.3c0.1-0.1,0.1-0.3,0.2-0.4l0.7-1.1l2.7-4.1
		l9.7-14.4l0,0l0,0c0.3-0.3,0.7-0.5,1.2-0.6c0.4-0.1,0.9-0.1,1.3,0c0.9,0.1,1.7,0.3,2.6,0.7c1.7,0.7,3.3,1.5,4.9,2.5
		c6.4,4,12,9.2,16.6,15.2c1,1.4,1.9,2.8,2.6,4.3c0.3,0.7,0.6,1.5,0.8,2.3c0.2,0.8,0.1,1.7-0.4,2.4l0,0l0,0l-14.7,11.3l-4.2,3.2
		l-1.1,0.8C225.2,380.9,225,381,224.9,381.1z"/>
</g>
<g id="freepik--Texts--inject-18">
	<path d="M293.7,334.5v3.7h-13.5v-16.8h13.2v3.7h-8.5v2.8h7.5v3.6h-7.5v3.1H293.7z"/>
	<path d="M303.7,333.7h-2.6v4.4h-4.8v-16.8h7.7c4.6,0,7.5,2.4,7.5,6.2c0.1,2.3-1.2,4.4-3.3,5.3l3.6,5.3h-5.1L303.7,333.7z
		 M303.8,325.1h-2.6v4.9h2.6c2,0,3-0.9,3-2.5C306.7,326,305.7,325.1,303.8,325.1L303.8,325.1z"/>
	<path d="M321.5,333.7h-2.6v4.4h-4.8v-16.8h7.7c4.6,0,7.5,2.4,7.5,6.2c0.1,2.3-1.2,4.4-3.3,5.3l3.6,5.3h-5.1L321.5,333.7z
		 M321.6,325.1h-2.6v4.9h2.6c2,0,3-0.9,3-2.5C324.5,326,323.5,325.1,321.6,325.1L321.6,325.1z"/>
	<path d="M331.1,329.8c0-5,4-8.8,9.4-8.8c5.4,0,9.4,3.7,9.4,8.8s-4,8.8-9.4,8.8C335,338.5,331.1,334.8,331.1,329.8z M345,329.8
		c0-2.9-2-4.8-4.6-4.8s-4.6,1.9-4.6,4.8c0,2.9,2,4.8,4.6,4.8S345,332.7,345,329.8z"/>
	<path d="M359.6,333.7H357v4.4h-4.8v-16.8h7.7c4.6,0,7.5,2.4,7.5,6.2c0.1,2.3-1.2,4.4-3.3,5.3l3.6,5.3h-5.1L359.6,333.7z
		 M359.7,325.1H357v4.9h2.6c2,0,3-0.9,3-2.5C362.6,326,361.7,325.1,359.7,325.1L359.7,325.1z"/>
	<path d="M399.2,327.6c0,3.8-2.9,6.2-7.5,6.2h-2.9v4.4H384v-16.8h7.7C396.4,321.4,399.2,323.7,399.2,327.6z M394.4,327.6
		c0-1.6-1-2.5-3-2.5h-2.6v4.9h2.6C393.5,330,394.4,329.1,394.4,327.6L394.4,327.6z"/>
	<path d="M412,334.9h-7.1l-1.3,3.2h-4.9l7.4-16.8h4.7l7.5,16.8h-4.9L412,334.9z M410.6,331.4l-2.2-5.4l-2.2,5.4H410.6z"/>
	<path d="M430.7,329.4h4.2v7c-2.1,1.4-4.6,2.2-7.1,2.1c-5.4,0-9.3-3.6-9.3-8.8s3.9-8.8,9.4-8.8c3.2,0,5.7,1.1,7.4,3.1l-3,2.7
		c-1-1.2-2.5-1.9-4.1-1.9c-2.7,0-4.8,2.1-4.8,4.8s2.1,4.8,4.8,4.8c0.9,0,1.8-0.2,2.6-0.6L430.7,329.4z"/>
	<path d="M451.4,334.5v3.7h-13.5v-16.8h13.2v3.7h-8.5v2.8h7.5v3.6h-7.5v3.1H451.4z"/>
	<path class="st5" d="M292.9,282.5h-40.8v-20L291,168h23.3v94.5h10.1v20h-10.1v25.4h-21.4V282.5z M292.9,262.5V208h-0.4l-21,54.5
		H292.9z"/>
	<g class="st9">
		<path d="M292.9,282.5h-40.8v-20L291,168h23.3v94.5h10.1v20h-10.1v25.4h-21.4V282.5z M292.9,262.5V208h-0.4l-21,54.5H292.9z"/>
	</g>
	<path class="st5" d="M283.2,282.5h-40.8v-20l38.8-94.5h23.3v94.5h10.1v20h-10.1v25.4h-21.4V282.5z M283.2,262.5V208h-0.4l-21,54.5
		H283.2z"/>
	<path class="st5" d="M341.4,300.7c-5.6-6.1-8.4-14.8-8.4-26v-73.5c0-11.2,2.8-19.8,8.4-26c5.6-6.1,13.6-9.2,24.1-9.2
		c10.5,0,18.5,3.1,24.1,9.2c5.6,6.1,8.4,14.8,8.4,26v73.5c0,11.2-2.8,19.8-8.4,26c-5.6,6.1-13.6,9.2-24.1,9.2
		C355,309.9,347,306.8,341.4,300.7z M376.6,276.1v-76.3c0-9.2-3.7-13.8-11.1-13.8s-11.1,4.6-11.1,13.8v76.3
		c0,9.2,3.7,13.8,11.1,13.8C372.9,289.9,376.6,285.3,376.6,276.1z"/>
	<g class="st9">
		<path d="M389.6,175.2c-5.6-6.1-13.6-9.2-24.1-9.2c-10.5,0-18.5,3.1-24.1,9.2c-5.6,6.1-8.4,14.8-8.4,26v73.5
			c0,11.2,2.8,19.8,8.4,26s13.6,9.2,24.1,9.2c10.5,0,18.5-3.1,24.1-9.2c5.6-6.1,8.4-14.8,8.4-26v-73.5
			C398,190,395.2,181.4,389.6,175.2z M376.6,276.1c0,9.2-3.7,13.8-11.1,13.8s-11.1-5.8-11.1-13.8v-76.3c0-8.4,3.7-13.8,11.1-13.8
			s11.1,4.6,11.1,13.8V276.1z"/>
	</g>
	<path class="st5" d="M331.7,300.7c-5.6-6.1-8.4-14.8-8.4-26v-73.5c0-11.2,2.8-19.8,8.4-26c5.6-6.1,13.6-9.2,24.1-9.2
		c10.5,0,18.5,3.1,24.1,9.2c5.6,6.1,8.4,14.8,8.4,26v73.5c0,11.2-2.8,19.8-8.4,26c-5.6,6.1-13.6,9.2-24.1,9.2
		C345.3,309.9,337.3,306.8,331.7,300.7z M366.9,276.1v-76.3c0-9.2-3.7-13.8-11.1-13.8s-11.1,4.6-11.1,13.8v76.3
		c0,9.2,3.7,13.8,11.1,13.8C363.2,289.9,366.9,285.3,366.9,276.1L366.9,276.1z"/>
	<path class="st5" d="M445.7,282.5h-40.8v-20l38.8-94.5h23.3v94.5h10.1v20h-10.1v25.4h-21.4V282.5z M445.7,262.5V208h-0.4l-21,54.5
		H445.7z"/>
	<g class="st9">
		<path d="M445.7,282.5h-40.8v-20l38.8-94.5h23.3v94.5h10.1v20h-10.1v25.4h-21.4V282.5z M445.7,262.5V208h-0.4l-21,54.5H445.7z"/>
	</g>
	<path class="st5" d="M436,282.5h-40.8v-20L434,168h23.3v94.5h10.1v20h-10.1v25.4H436V282.5z M436,262.5V208h-0.4l-21,54.5H436z"/>
</g>
<g id="freepik--character-part-2--inject-18">
	
		<ellipse transform="matrix(0.9802 -0.1978 0.1978 0.9802 -35.3058 103.8606)" class="st6" cx="502.2" cy="228.6" rx="18.5" ry="58"/>
	<path class="st7" d="M514.8,226.2c-5.8-28.6-17.3-50.9-26.9-53.1c0.8-0.6,1.7-1.1,2.8-1.3c10-2,23.3,21.8,29.6,53.2
		c6.3,31.4,3.3,58.5-6.7,60.5c-0.9,0.2-1.8,0.2-2.7-0.1C518.7,279.4,520.5,254.6,514.8,226.2z"/>
	<path class="st6" d="M615,172.1l10.7-15.7c0,0,19.5,5.6,21.8,2.9l-29.6-21.9l-17.8,23.7L615,172.1z"/>
	<path class="st10" d="M615.6,151c-0.5-0.6-0.4-1.5,0.2-2c0.6-0.5,1.5-0.4,2,0.2c0.5,0.7,0.4,1.6-0.2,2.1c-0.7,0.4-1.6,0.3-2-0.4"/>
	<path class="st7" d="M617.9,137.5l-1.7,2.5l29.1,20.1c0,0,1.7,0.4,2.3-0.6L617.9,137.5z"/>
	<path class="st4" d="M626.1,157c0.1-0.2-0.6-0.8-0.9-1.7c-0.4-1-0.3-1.9-0.5-1.9c-0.2,0-0.6,1-0.1,2.1
		C625,156.6,626,157.1,626.1,157z"/>
	<path class="st4" d="M630.2,158c0.1-0.1-0.3-0.8-0.3-1.8c0-1,0.3-1.7,0.1-1.8s-0.8,0.7-0.8,1.9C629.3,157.4,630.1,158.1,630.2,158z
		"/>
	<path class="st4" d="M634.7,155.5c-0.1-0.1-0.9,0.4-1.1,1.5s0.2,1.9,0.4,1.8c0.2-0.1,0-0.8,0.2-1.7
		C634.4,156.3,634.8,155.7,634.7,155.5z"/>
	<path class="st4" d="M623.3,160.2c0-0.2-0.8-0.5-1.5-1.1c-0.8-0.7-1.2-1.4-1.4-1.3c-0.2,0.1,0.1,1,1,1.8
		C622.3,160.4,623.2,160.4,623.3,160.2z"/>
	<path class="st6" d="M604.7,235.8l10.8-15.6c0,0,19.5,5.8,21.8,3l-29.5-22.1l-17.9,23.7L604.7,235.8z"/>
	<path class="st10" d="M605.4,214.7c-0.4-0.6-0.4-1.5,0.2-2c0.6-0.5,1.5-0.4,2,0.2c0.5,0.7,0.4,1.6-0.2,2.1c-0.7,0.4-1.6,0.2-2-0.4"
		/>
	<path class="st7" d="M607.8,201.2l-1.7,2.5l28.9,20.3c0,0,1.7,0.4,2.3-0.6L607.8,201.2z"/>
	<path class="st4" d="M615.9,220.7c0.1-0.1-0.6-0.8-0.9-1.7s-0.3-1.9-0.5-1.9c-0.2,0-0.6,1-0.1,2.1
		C614.8,220.4,615.8,220.9,615.9,220.7z"/>
	<path class="st4" d="M619.9,221.8c0.1-0.1-0.3-0.8-0.3-1.8c0-1,0.3-1.7,0.2-1.8c-0.1-0.1-0.9,0.6-0.8,1.9
		C619.1,221.2,619.8,221.9,619.9,221.8z"/>
	<path class="st4" d="M624.5,219.4c-0.1-0.1-0.9,0.4-1.1,1.5c-0.2,1.1,0.2,1.9,0.4,1.8c0.2-0.1,0-0.8,0.2-1.7
		C624.2,220.1,624.6,219.5,624.5,219.4z"/>
	<path class="st4" d="M613,224c0-0.2-0.8-0.5-1.5-1.1c-0.8-0.7-1.2-1.4-1.4-1.3c-0.2,0.1,0.1,1,1,1.8C612,224.1,613,224.2,613,224z"
		/>
	<path class="st6" d="M492.9,247.1c1,0,91-25.9,97.3-31.6c6.3-5.6,31.8-50.2,31.8-50.2l-18.2-14.8l-31.6,41.1l-55.4,5
		c0,0-23.4-1.6-27.4,6.8l-0.4,12.5L492.9,247.1z"/>
	<path class="st6" d="M492.9,247.1c1.3,0,41.5,44.8,54.1,47.3c12.6,2.5,18.9-6.1,23.2-11.4c5.5-6.6,42.8-54.2,42.8-54.2l-18.8-15.5
		l-41,43.7l-24.7-34l-21.5-2L494,232.6L492.9,247.1z"/>
	<path class="st7" d="M549.7,261.2c0,0,0-0.1,0.1-0.2l0.4-0.5l1.7-2l6.5-7.1l9.6-10.5l5.7-6.2c2-2.1,4.1-4.3,6.2-6.6l14.2-14.9
		l0.1-0.1l0.1,0.1l13.5,11.3l3.8,3.2l1,0.9c0.1,0.1,0.2,0.2,0.3,0.3c-0.1-0.1-0.3-0.2-0.4-0.3l-1-0.8l-3.8-3.1l-13.6-11.2h0.3
		c-4.2,4.4-9,9.5-14.2,15l-6.2,6.6l-5.7,6.2l-9.8,10.4l-6.6,7l-1.8,1.9l-0.5,0.5L549.7,261.2z"/>
	<path class="st7" d="M549.1,230.5c-0.4,0.2-0.8,0.3-1.2,0.4l-3.2,1c-2.7,0.8-6.5,2-10.6,3.3l-3,1c-0.9,0.3-1.8,0.6-2.7,1
		c-1.5,0.7-2.7,1.9-3.4,3.4c-0.5,1-0.8,2.1-1,3.2c-0.1,0.4-0.1,0.8-0.2,1.2c0-0.1,0-0.2,0-0.3c0-0.2,0-0.5,0.1-0.9
		c0.1-1.1,0.4-2.2,0.9-3.3c0.7-1.6,1.9-2.8,3.5-3.6c0.9-0.4,1.8-0.8,2.8-1.1l3-1c4.1-1.3,7.9-2.4,10.6-3.2c1.4-0.4,2.5-0.7,3.3-0.9
		C548.3,230.6,548.7,230.5,549.1,230.5z"/>
	<path class="st7" d="M480.8,208.6c0-0.1,0.1-0.3,0.2-0.4c0.1-0.1,0.2-0.3,0.3-0.4l0.4-0.5c0.9-1.1,2-2.1,3.2-2.9
		c3-2.1,7.6-4.1,12.9-5.5c4.5-1.3,9.1-2.1,13.8-2.4c1.4-0.1,2.8-0.1,4.3-0.1c0.5,0,0.9,0.1,1.2,0.1c0.1,0,0.3,0,0.4,0.1
		c0,0-0.6,0-1.6,0s-2.4,0-4.2,0.2c-4.6,0.4-9.2,1.3-13.7,2.5c-5.3,1.5-9.9,3.4-12.8,5.4c-1.2,0.8-2.3,1.7-3.2,2.7l-0.4,0.5l-0.3,0.4
		C480.9,208.5,480.8,208.6,480.8,208.6z"/>
	<path class="st7" d="M518,272.1c-0.1-0.1-0.2-0.1-0.3-0.2l-0.9-0.7l-3.1-2.4c-2.6-2.1-6.3-4.8-10.5-7.7c-3.5-2.5-6.9-5.3-10.2-8.2
		c-1.2-1.1-2.2-2.1-2.9-2.7l-0.8-0.8c-0.1-0.1-0.2-0.2-0.2-0.3c0,0,0.1,0.1,0.3,0.2c0.2,0.2,0.5,0.4,0.8,0.7l3,2.6
		c2.5,2.2,6.1,5.1,10.2,8s7.8,5.7,10.4,7.8c1.3,1.1,2.3,1.9,3,2.5l0.8,0.7C517.9,271.9,518,272,518,272.1z"/>
</g>
<g id="freepik--character-part-1--inject-18">
	
		<ellipse transform="matrix(0.3505 -0.9365 0.9365 0.3505 -75.0108 359.3802)" class="st6" cx="221.6" cy="233.8" rx="61" ry="19.5"/>
	<path class="st7" d="M208.9,229.2c10.8-28.8,26.5-50,36.8-50.7c-0.7-0.8-1.6-1.4-2.6-1.8c-10.1-3.8-27.8,18.8-39.6,50.3
		c-11.8,31.6-13.2,60.2-3.2,64c0.9,0.3,1.9,0.5,2.9,0.4C196,283.7,198.2,257.6,208.9,229.2z"/>
	<path class="st11" d="M103.4,158.1c0,0-2.7-6.8-3.8-9.3c-1.2-2.5-0.9-10.1-0.1-11.4c0.5-0.7,0.5-1.7,0.1-2.4c0,0-4-7.4-2.1-9.2
		l1.1-0.1c0,0,4,7.9,4.1,8.1c0.1,0.2,1,0.2,1.3-1.2c0.3-1.4-0.4-5.5-0.4-5.5s-1.5-2.6-1.6-4.4c0.1-0.8,0.5-1.5,1.1-2l0.5-0.4
		c0,0,3.3,6,3.5,7.5c0.2,1.5,0.8,4.7,0.8,4.7l0.5-0.4l0-7.4c0,0-1.7-6.3-0.4-7.6c1.3-1.3,1.4-0.2,1.4-0.2s2.4,6.4,2.6,8
		c0.1,0.7,0.1,7,0.1,7l1-0.4l0.4-5.9c0,0-1.2-5.9,0.6-6.5l1.4,0c0,0,1.4,7.8,1.5,8.1c0.2,0.4-1,9.2-1,9.2l0.4,0.8l1-1.4
		c0.5-1.1,1.4-2,2.5-2.5c2.1-1.1,3-0.3,3-0.3l-2.6,4.6c0,0-2.4,5.4-3.3,6.6c-1.5,1.6-3.1,3.1-4.8,4.4c-0.5,0.3,0.1,2.7,0.1,2.7
		l0.8,1.7L103.4,158.1z"/>
	<path class="st12" d="M113.8,140c0,0.1-0.8,0.1-2.1,0.4c-3.4,0.8-6.1,3.3-7.2,6.7c-0.4,1.3-0.5,2.1-0.5,2.1c-0.1-0.7,0-1.5,0.2-2.2
		c0.5-1.7,1.4-3.3,2.7-4.6c2.1-1.7,3.9-2.4,4.7-2.4C112.3,139.9,113.1,139.9,113.8,140z"/>
	<path class="st12" d="M114.1,131.6c0,0.2-3.1-0.4-6.8,0.6c-3.7,1-6.2,2.9-6.2,2.7c0.5-0.5,1-0.9,1.6-1.2c2.8-1.7,6.1-2.6,9.4-2.4
		C112.8,131.2,113.5,131.3,114.1,131.6z"/>
	<path class="st11" d="M103.4,158.1c0.3,0.6,13.3,40.2,19,44.4c5.6,4.3,43,15.2,43,15.2l5.9-19.9l-36.5-11.4l-22.7-38L103.4,158.1z"
		/>
	<polygon class="st5" points="173.6,192.4 145.4,187.6 139.4,212.1 172,219.6 	"/>
	<path class="st11" d="M191.3,194.4l-1.7-43.3c-0.1-10.8-6.4-19.7-17.1-19.4l-1,0.1c-10,0.9-17.6,9.4-17.5,19.4
		c0.1,9.3,0.3,19.7,0.9,24.6c1.1,10.3,11.5,10.9,11.5,10.9l3.2,12.8l3.6,1.2l0,0L191.3,194.4z"/>
	<path class="st12" d="M166.4,186.8c4.8-0.5,9.3-2.3,13-5.2c0,0-1.9,8.3-12.3,8.3L166.4,186.8z"/>
	<path class="st6" d="M159.2,159.6c0.1,0.8,0.7,1.4,1.5,1.4c0.8,0,1.4-0.6,1.4-1.4c0,0,0,0,0,0c-0.1-0.8-0.7-1.4-1.5-1.4
		C159.8,158.1,159.2,158.8,159.2,159.6C159.2,159.6,159.2,159.6,159.2,159.6z"/>
	<path class="st6" d="M156.6,155.6c0.2,0.2,1.2-0.8,2.8-0.9c1.6-0.1,2.8,0.5,3,0.3c0.2-0.2-0.1-0.4-0.7-0.8
		c-0.7-0.4-1.6-0.6-2.4-0.5c-0.8,0.1-1.6,0.4-2.2,1C156.7,155.1,156.6,155.5,156.6,155.6z"/>
	<path class="st6" d="M171.7,159.3c0.2,0.2,1.2-0.8,2.8-0.9c1.6-0.1,2.8,0.5,3,0.3c0.1-0.1-0.1-0.4-0.7-0.8
		c-0.7-0.4-1.6-0.6-2.4-0.5c-0.8,0.1-1.6,0.4-2.2,0.9C171.8,158.9,171.6,159.2,171.7,159.3z"/>
	<path class="st6" d="M167.6,167.2c-0.9-0.2-1.7-0.3-2.6-0.2c-0.4,0-0.8-0.1-0.9-0.3c-0.1-0.4,0-0.8,0.2-1.2l0.9-3.2
		c1.3-4.6,2.1-8.2,1.9-8.3c-0.2,0-1.4,3.6-2.6,8.1c-0.3,1.1-0.6,2.2-0.9,3.2c-0.2,0.5-0.2,1.1-0.1,1.6c0.2,0.3,0.4,0.5,0.8,0.5
		c0.2,0,0.5,0,0.7,0C165.9,167.4,166.8,167.4,167.6,167.2z"/>
	<path class="st6" d="M170.4,155.2c0.3,0.4,1.7-0.2,3.6-0.4c1.9-0.2,3.4-0.1,3.6-0.5c0.1-0.2-0.3-0.5-1-0.8
		c-0.9-0.3-1.9-0.4-2.8-0.3c-1,0.1-1.9,0.4-2.7,1C170.6,154.6,170.3,155,170.4,155.2z"/>
	<path class="st6" d="M156.3,151.6c0.4,0.3,1.6-0.1,3.2-0.3s2.9,0,3.2-0.4c0.1-0.2-0.1-0.5-0.8-0.8c-0.8-0.4-1.7-0.5-2.6-0.4
		c-0.9,0.1-1.7,0.4-2.5,0.9C156.3,151,156.1,151.4,156.3,151.6z"/>
	<path class="st11" d="M189.5,158.8c0.2-0.1,6.9-2.7,7.3,4.3c0.4,7.1-6.7,6-6.8,5.8C190,168.7,189.5,158.8,189.5,158.8z"/>
	<path class="st12" d="M192.1,166.1c0,0,0.1,0.1,0.3,0.2c0.3,0.1,0.6,0.1,0.9,0c0.8-0.3,1.3-1.5,1.2-2.8c0-0.6-0.2-1.2-0.4-1.7
		c-0.2-0.4-0.5-0.8-1-0.9c-0.3-0.1-0.6,0.1-0.7,0.4c-0.1,0.2,0,0.3-0.1,0.4c-0.1,0-0.2-0.1-0.1-0.4c0-0.2,0.1-0.3,0.3-0.5
		c0.2-0.2,0.4-0.2,0.7-0.2c0.6,0.1,1.1,0.5,1.4,1c0.3,0.6,0.5,1.3,0.5,1.9c0,1.4-0.6,2.8-1.6,3.2c-0.4,0.1-0.8,0.1-1.1-0.1
		C192.1,166.3,192,166.2,192.1,166.1z"/>
	<path class="st6" d="M172.7,167.9c-0.3,0-0.2,1.6-1.5,2.8s-3,1.1-3,1.3c0,0.1,0.4,0.3,1.1,0.3c1,0,1.9-0.4,2.6-1
		c0.7-0.6,1.1-1.5,1.2-2.4C173,168.3,172.8,167.9,172.7,167.9z"/>
	<path class="st6" d="M139.3,142.7c0.1-0.4,0.4-0.8,0.8-1c0.8-0.4,1.7-0.6,2.6-0.6c2.2-0.2,4.4-0.9,6.4-2c-0.7-0.3-1.4-0.7-2-1.2
		c-1.3-1-1.9-2.7-1.5-4.3c0.1-0.3,0.2-0.6,0.5-0.7c0.4-0.2,0.9,0.3,1.2,0.6c0.9,1.1,2.3,1.6,3.7,1.3c0.9-0.1,1.8-0.4,2.6-1l0.1-0.1
		c0.3-0.4,0.7-0.8,1-1.2l0,0c2.5-2.8,4.7-4.8,7-5.9c3.4-1.6,9.1-2.5,12.7-1.8c3.6,0.7,7.1,3.4,7.8,7.1c1.9-1.8,4.9-2,7.5-1.2h0.1
		c2.8,0.8,4.6,3.6,5.5,6.3c0.1,0.2,0.1,0.3,0.2,0.4c1,1.4,2.4,2.6,3.9,3.4c0.3,0.1,0.6,0.3,0.6,0.6c0,0.3-0.2,0.6-0.4,0.8
		c-0.6,0.5-1.4,0.9-2.1,1.1c0.3,0.6,0.6,1.3,1,1.9c0.3,0.5,0.8,1.1,0.5,1.7c-0.2,0.4-0.7,0.7-1.2,0.6c-0.5-0.1-0.9-0.2-1.3-0.5
		l1,2.1c-1,0.2-2,0.2-3,0c-0.4,2.6-0.6,7.5-1.1,9.3c-1.9,0.1-2.3,0-3.3,0.3c-1.2,0.5-0.6,2.6-2.2,2.1c-0.8-0.3-2.3-3.3-2.6-4.1
		c-2.1-5.4-3.1-11.2-2.8-17c-1.2-1.1-2.6-2-4.2-2.6l0.1,0.1c-2.9-0.8-6.3-1.6-8.9-0.1c-2.1,1.2-3.2,3.5-4.6,5.3
		c-2.8,3.5-6.1,5.5-10.6,6c-0.2,3.1,0,8.2,0,11.2l-2.8-5.7l0,0c-0.2-0.3-0.4-0.7-0.6-1l-0.1-0.1l0,0c-0.3-0.5-0.6-1.1-0.9-1.6l0,0
		c-0.7,0.7-1.9,0.7-2.6,0c-0.6-0.6-0.7-1.6-0.2-2.3c0.2-0.4,0.5-0.7,0.8-0.9c-0.7,0.7-1.7,1.1-2.7,0.9c-1-0.2-1.7-1.1-1.7-2.1
		c0-0.7,0.4-1.3,1-1.6c-1.3,0.2-2.6,0-3.7-0.6C139.9,144.2,139.1,143.6,139.3,142.7z"/>
	<path class="st7" d="M178.9,133.3c0.4,0.3,0.8,0.6,1.1,0.9c0.9,0.9,1.5,2.1,1.8,3.3c0.2,0.9,0.4,1.7,0.4,2.6c0.1,0.9,0,2,0,3
		c0,1.1,0,2.3,0.1,3.4c0.1,0.6,0.2,1.2,0.3,1.8c0.1,0.6,0.4,1.2,0.8,1.7c0.4,0.4,1,0.6,1.5,0.4c0.5-0.1,1-0.4,1.3-0.8
		c0.5-0.8,0.8-1.7,0.8-2.7H187c0.4,0.8,0.8,1.5,1.4,2.1c0.5,0.6,1.3,0.9,2.1,1c0.4,0,0.7-0.1,1.1-0.3c0.3-0.2,0.5-0.4,0.7-0.8
		c0.1-0.3,0.2-0.6,0.2-0.9c0-0.3-0.2-0.6-0.4-0.8l-0.1,0.1c0.7,0.7,1.5,1.2,2.3,1.5c0.3,0.1,0.5,0.2,0.7,0.2l0.3,0
		c-0.1,0-0.2-0.1-0.2-0.1c-0.2-0.1-0.5-0.2-0.7-0.3c-0.9-0.4-1.6-0.9-2.3-1.6l-0.1,0.1c0.4,0.4,0.4,1,0.2,1.5
		c-0.1,0.3-0.3,0.5-0.6,0.7c-0.3,0.2-0.6,0.2-1,0.2c-0.7-0.1-1.4-0.4-1.9-0.9c-0.5-0.6-1-1.3-1.3-2l-0.2-0.3l0,0.4
		c0,0.9-0.3,1.8-0.8,2.6c-0.3,0.4-0.7,0.6-1.1,0.8c-0.4,0.1-0.9,0-1.3-0.3c-0.4-0.5-0.6-1-0.8-1.6c-0.2-0.6-0.3-1.1-0.3-1.7
		c-0.1-1.1-0.2-2.2-0.1-3.4c0-1.1,0-2.1-0.1-3c-0.1-0.9-0.2-1.8-0.5-2.6c-0.3-1.3-1-2.4-1.9-3.4
		C179.8,133.7,179.4,133.5,178.9,133.3z"/>
	<path class="st7" d="M147.6,145.3C147.6,145.3,147.6,145.3,147.6,145.3l0.4,0.2c0.1,0.1,0.3,0.2,0.5,0.3c0.2,0.1,0.4,0.2,0.6,0.3
		c1.4,0.5,3,0.7,4.5,0.5c2.2-0.3,4.4-1.2,6.1-2.7c2.1-1.8,3.8-4,5-6.5c0.7-1.3,1.2-2.6,1.8-3.8c0.5-1.2,1.3-2.3,2.1-3.3
		c0.8-0.9,1.8-1.6,2.9-2c0.5-0.2,1-0.3,1.6-0.3c0.5,0,1,0.1,1.4,0.2c1.4,0.4,2.7,1.3,3.5,2.6c0.3,0.5,0.5,1,0.6,1.5c0,0,0,0,0-0.1
		s0-0.2-0.1-0.3c-0.1-0.4-0.3-0.8-0.5-1.1c-0.3-0.6-0.8-1.1-1.3-1.5c-0.7-0.6-1.4-1-2.3-1.2c-0.5-0.1-1-0.2-1.5-0.2
		c-0.5,0-1.1,0.1-1.6,0.3c-1.1,0.4-2.2,1.1-3,2c-0.9,1-1.6,2.1-2.2,3.3c-0.6,1.2-1.1,2.6-1.8,3.8c-1.2,2.5-2.8,4.6-4.9,6.4
		c-1.7,1.4-3.8,2.4-6,2.7c-1.5,0.2-3,0.1-4.4-0.4C148.6,145.8,148.1,145.5,147.6,145.3z"/>
	<path class="st7" d="M146.4,140.8c0.1,0.1,0.2,0.2,0.4,0.2c0.4,0.2,0.7,0.4,1.1,0.5c0.6,0.2,1.2,0.4,1.8,0.5
		c0.8,0.1,1.5,0.2,2.3,0.2c0.7,0,1.5-0.1,2.2-0.3c0.6-0.1,1.2-0.3,1.7-0.6c0.4-0.2,0.7-0.3,1.1-0.6c0.1-0.1,0.3-0.2,0.4-0.3
		c0,0-0.6,0.3-1.5,0.7c-0.6,0.2-1.1,0.4-1.7,0.5c-1.4,0.3-2.9,0.4-4.4,0.1c-0.6-0.1-1.2-0.2-1.8-0.4
		C147,141.1,146.4,140.8,146.4,140.8z"/>
	<path class="st5" d="M223.4,273.5l0.7-3.4c-8.6-3.8-16.4-9.2-23-15.9l-38-38.4l1-11l18.7-17.5c6.3-3.6,13.8-4.1,20.5-1.3
		c13.1,5.2,18.7,12.6,34,30.4c6.1,7.1,2.7,1.2,8.6,5c0,0-3.7,20.2-10.8,32.8C230,263.3,223.4,273.5,223.4,273.5z"/>
	<path class="st6" d="M167,219.9c-0.5-0.6-1-1.3-1.4-2c-1-1.6-2-3.3-2.8-5.1c-0.9-1.7-1.6-3.5-2.3-5.3c-0.3-0.7-0.5-1.5-0.7-2.3
		c0.4,0.7,0.7,1.4,0.9,2.2c0.6,1.4,1.4,3.2,2.4,5.3c1,2,2,3.8,2.7,5.1C166.3,218.5,166.7,219.2,167,219.9z"/>
	<g class="st9">
		<path d="M233.2,245.3c0.6-4.2,0.2-8.5-1.3-12.4c-2.4-6.2-8.5-14.9-8.5-14.9l-2.1,2L233.2,245.3z"/>
	</g>
	<path class="st11" d="M200.3,283.4l13.7-35.8l-7.2-9l-13.6-16.7c0,0-9.7-5-14.4-12.5c-1.6-2.8-1.6-6.2-0.2-9.1
		c4.3-8,13.1-11.2,21.8-8.8l7.7,5c0,0,25.5,39.9,25.1,47.6c-0.3,5.4-21.7,42.2-21.7,42.2L200.3,283.4z"/>
	<path class="st11" d="M201.3,281.9l-15.2,1.3c-1.6,0.1-3,1-3.9,2.4l-6.8,10.7c0,0,2.7,1.3,4.5-0.8c1.8-2,4.7-6.2,4.7-6.2l-1.3,11.9
		c0,0,3.5,0.3,4.1-2.3c0.5-2.3,0.7-4.7,0.8-7.1l3.4,11.4c0,0,3.7-1.2,2.5-5.5c-0.8-2.7-1.6-5.5-1.6-5.5l4.2,7.4c0,0,3-0.3,2.3-3
		c-0.5-1.8-2.1-5.5-2.1-5.5s8.7,0.7,10.5,0c2.4-0.9,4.8-5.9,4.8-5.9L201.3,281.9z"/>
	<path class="st5" d="M187.8,189.4c0,0-12.7,6.8-11.4,16.4c1.4,9.6,12.4,14.6,12.4,14.6l14.3,15.3l22.4-19.5l-20.4-25.3"/>
	<path class="st6" d="M205.1,190.9c0,0,0,0,0.1,0.1l0.3,0.3l1.1,1.3l4.2,5.1l14.8,18.3l0.1,0.1l-0.1,0.1l-22.3,19.4l-0.1,0.1
		l-0.2,0.1l-0.1-0.2l-14.2-15.3l0.1,0c-2.6-1.3-5-3-7.1-5c-1.9-1.8-3.5-4-4.5-6.5c-0.2-0.6-0.4-1.2-0.6-1.8
		c-0.1-0.6-0.3-1.2-0.3-1.8c-0.1-1.1-0.1-2.3,0.2-3.4c0.5-2,1.3-3.8,2.6-5.4c1.7-2.2,3.8-4.2,6.2-5.8c0.8-0.6,1.5-1,1.9-1.2l0.5-0.3
		c0.1-0.1,0.2-0.1,0.2-0.1l-0.2,0.1l-0.5,0.3c-0.4,0.3-1.1,0.7-1.9,1.3c-2.3,1.6-4.4,3.6-6.1,5.8c-1.2,1.6-2.1,3.4-2.5,5.3
		c-0.2,1.1-0.3,2.2-0.1,3.3c0.1,0.6,0.2,1.1,0.3,1.7c0.1,0.6,0.4,1.1,0.6,1.7c1.8,4.6,6.1,8.6,11.4,11.3h0l0,0
		c4.4,4.7,9.2,9.9,14.3,15.3h-0.3l0.1-0.1l22.4-19.3v0.3c-6.1-7.6-11.1-13.9-14.7-18.4l-4.1-5.2l-1.1-1.4c-0.1-0.2-0.2-0.3-0.3-0.4
		C205.2,191,205.1,190.9,205.1,190.9z"/>
	<path class="st12" d="M189.4,284.8c0,0.1-0.5,0.1-1.2,0.3c-2,0.5-3.4,2.3-3.6,4.3c-0.1,0.8,0,1.3,0,1.3c-0.2-0.4-0.3-0.8-0.2-1.3
		c0-2.2,1.6-4.1,3.8-4.6C188.5,284.7,189,284.7,189.4,284.8z"/>
	<path class="st12" d="M190.8,286.6c0,0.1-0.3,0.3-0.8,0.6c-0.3,0.2-0.6,0.4-0.9,0.7c-0.3,0.3-0.6,0.6-0.8,1
		c-0.2,0.8-0.3,1.6-0.2,2.4c0.1,0.3,0.1,0.7,0.1,1c0,0-0.2-0.3-0.4-1c-0.2-0.8-0.2-1.7,0.1-2.6c0.2-0.5,0.5-0.8,0.9-1.1
		c0.3-0.2,0.6-0.4,0.9-0.6C190.4,286.7,190.8,286.5,190.8,286.6z"/>
	<path class="st12" d="M197.2,288.1c-0.4,0.2-0.8,0.3-1.2,0.3c-0.8,0.1-1.9,0.2-2.6,1c-0.6,0.8-0.8,1.7-0.7,2.7
		c0.1,0.7,0.4,1.1,0.3,1.2c-0.3-0.3-0.5-0.7-0.6-1.1c-0.3-1,0-2.1,0.6-3c0.4-0.5,0.9-0.8,1.5-0.9c0.4-0.1,0.9-0.2,1.4-0.2
		C196.3,288,196.7,288,197.2,288.1z"/>
	<path class="st12" d="M209,284.8c-1.4-0.3-2.8-0.8-4.1-1.3c-1.1-0.4-2.1-0.8-2.8-1.1c-0.4-0.1-0.8-0.3-1.1-0.5
		c0-0.2,1.9,0.4,4.1,1.3C206.4,283.6,207.7,284.1,209,284.8z"/>
	<g class="st9">
		<path d="M243.1,217.2c0,0-2.7,23.8-8.1,33.6s-9.7,18-9.7,18l-0.4,1.8c0,0,10.8-17.1,12.8-21.4c3.1-6.8,5.7-13.9,7.5-21.1
			c2-8.3,2.3-9.7,2.2-9.7C247.4,218.5,244.4,216.2,243.1,217.2z"/>
	</g>
</g>
</svg>
