<?xml version="1.0" encoding="utf-8"?>
<!-- Generator: Adobe Illustrator 26.0.2, SVG Export Plug-In . SVG Version: 6.00 Build 0)  -->
<svg version="1.1" id="Layer_1" xmlns="http://www.w3.org/2000/svg" xmlns:xlink="http://www.w3.org/1999/xlink" x="0px" y="0px"
	 viewBox="0 0 750 548" style="enable-background:new 0 0 750 548;" xml:space="preserve">
<style type="text/css">
	.st0{display:none;stroke:#000000;stroke-width:0.9529;stroke-miterlimit:10;}
	.st1{fill:#EBEBEB;}
	.st2{fill:#DBDBDB;}
	.st3{fill:#C7C7C7;}
	.st4{fill:#A6A6A6;}
	.st5{fill:#FFFFFF;}
	.st6{opacity:0.5;fill:#EBEBEB;enable-background:new    ;}
	.st7{fill:#263238;}
	.st8{fill:#E90000;}
	.st9{fill:#37474F;}
	.st10{fill:#AD6359;}
	.st11{opacity:0.1;enable-background:new    ;}
	.st12{fill:#FF99BA;}
	.st13{opacity:0.1;}
	.st14{fill:#455A64;}
	.st15{opacity:0.8;fill:#FFFFFF;enable-background:new    ;}
	.st16{opacity:0.6;fill:#FFFFFF;enable-background:new    ;}
	.st17{opacity:0.4;fill:#FFFFFF;enable-background:new    ;}
	.st18{fill:#EB9481;}
	.st19{opacity:0.2;}
</style>
<rect class="st0" width="750" height="548"/>
<g id="freepik--background-complete--inject-18">
	<path class="st1" d="M652.4,304.2l-13.1,0.3l-6.7,0.1c-2.2,0-4.5,0-6.7,0.1h-0.4v-0.5l-0.1-11.2v-0.5h0.5l13.2,0.1
		c4.4,0,8.8,0.1,13.2,0.2h0.3v0.3c0,1.9-0.1,3.8-0.1,5.7L652.4,304.2z M652.4,304.2l-0.1-5.6c0-1.9-0.1-3.7-0.1-5.5l0.3,0.3
		c-4.4,0-8.8,0.2-13.2,0.2l-13.2,0.1l0.5-0.5v11.2l-0.5-0.4c2.2,0,4.4,0,6.5,0l6.5,0.2L652.4,304.2z"/>
	<path class="st1" d="M637.6,318.3l-13.1,0.3l-6.7,0.1c-2.2,0-4.5,0-6.7,0.1h-0.4v-0.5v-11.2v-0.5h0.5l13.2,0.1
		c4.4,0,8.8,0.1,13.2,0.2h0.3v0.3c0,1.9-0.1,3.8-0.1,5.7L637.6,318.3z M637.6,318.3l-0.1-5.6c0-1.9-0.1-3.7-0.1-5.5l0.3,0.3
		c-4.4,0-8.8,0.2-13.2,0.2l-13.2,0.1l0.5-0.5v11.2l-0.5-0.4c2.2,0,4.4,0,6.5,0l6.6,0.1L637.6,318.3z"/>
	<path class="st1" d="M667.1,318.3l-13.1,0.3l-6.7,0.1c-2.2,0-4.5,0-6.7,0.1h-0.4v-0.5l-0.1-11.2v-0.5h0.5l13.2,0.1
		c4.4,0,8.8,0.1,13.2,0.2h0.3v0.3c0,1.9-0.1,3.8-0.1,5.7L667.1,318.3z M667.1,318.3l-0.1-5.6c0-1.9-0.1-3.7-0.1-5.5l0.3,0.3
		c-4.4,0-8.8,0.2-13.2,0.2l-13.2,0.1l0.5-0.5v11.2l-0.5-0.4c2.2,0,4.4,0,6.5,0l6.6,0.1L667.1,318.3z"/>
	<path class="st1" d="M354.8,171.1l-13.1,0.3l-6.7,0.1c-2.2,0-4.5,0-6.7,0h-0.4V171l-0.1-11.2v-0.5h0.5l13.2,0.1
		c4.4,0,8.8,0.1,13.2,0.2h0.3v0.3c0,1.9-0.1,3.8-0.1,5.6L354.8,171.1z M354.8,171.1l-0.1-5.7c0-1.9-0.1-3.7-0.1-5.5l0.3,0.3
		c-4.4,0-8.8,0.2-13.2,0.2l-13.2,0.1l0.5-0.5l0,11.2l-0.5-0.4c2.2,0,4.4,0,6.5,0.1l6.6,0.1L354.8,171.1z"/>
	<path class="st1" d="M340,185.2l-13.1,0.3l-6.7,0.1c-2.2,0-4.5,0-6.7,0.1h-0.4v-0.4L313,174v-0.5h0.5l13.2,0.1
		c4.4,0,8.8,0.1,13.2,0.2h0.3v0.3c0,1.9-0.1,3.8-0.1,5.6L340,185.2z M340,185.2l-0.1-5.7c0-1.9-0.1-3.7-0.1-5.5l0.3,0.3
		c-4.4,0.1-8.8,0.2-13.2,0.2l-13.2,0.1l0.5-0.5l0,11.2l-0.5-0.4c2.2,0,4.4,0,6.5,0.1l6.6,0.1L340,185.2z"/>
	<path class="st1" d="M369.6,185.2l-13.1,0.3l-6.7,0.1c-2.2,0-4.5,0-6.7,0.1h-0.4v-0.4l-0.1-11.2v-0.5h0.5l13.2,0.1
		c4.4,0,8.8,0.1,13.2,0.2h0.3v0.3c0,1.9-0.1,3.8-0.1,5.6L369.6,185.2z M369.6,185.2l-0.1-5.7c0-1.9-0.1-3.7-0.1-5.5l0.3,0.3
		c-4.4,0.1-8.8,0.2-13.2,0.2l-13.2,0.1l0.5-0.5l0,11.2l-0.5-0.4c2.2,0,4.4,0,6.5,0.1l6.6,0.1L369.6,185.2z"/>
	<path class="st1" d="M138.9,245.1l-13.1,0.3l-6.7,0.1c-2.2,0-4.5,0-6.7,0.1H112v-0.4v-11.2v-0.5h0.5l13.2,0.1
		c4.4,0,8.8,0.1,13.2,0.2h0.3v0.3c0,1.9-0.1,3.8-0.1,5.6L138.9,245.1z M138.9,245.1l-0.1-5.7c-0.1-1.9-0.1-3.7-0.1-5.5l0.3,0.3
		c-4.4,0.1-8.8,0.2-13.2,0.2l-13.2,0.1l0.5-0.5l-0.1,11.2l-0.4-0.4c2.2,0,4.4,0,6.6,0.1l6.6,0.1L138.9,245.1z"/>
	<path class="st1" d="M537.9,171.1l-13.1,0.3l-6.7,0.1c-2.2,0.1-4.5,0-6.7,0.1h-0.4v-0.4l-0.1-11.2v-0.5h0.5l13.2,0.1
		c4.4,0,8.8,0.1,13.2,0.2h0.3v0.3c0,1.9-0.1,3.8-0.1,5.6L537.9,171.1z M537.9,171.1l-0.1-5.6c0-1.9-0.1-3.7-0.1-5.5l0.3,0.3
		c-4.4,0.1-8.8,0.2-13.2,0.2l-13.2,0.1l0.5-0.5l0,11.2l-0.5-0.4c2.2,0,4.4,0,6.5,0.1l6.6,0.1L537.9,171.1z"/>
	<path class="st1" d="M650.8,62.4l-13.1,0.3l-6.7,0.1c-2.2,0-4.5,0-6.7,0.1h-0.4v-0.5V51.2v-0.5h0.5l13.2,0.1
		c4.4,0,8.8,0.1,13.2,0.2h0.3v0.3c0,1.9-0.1,3.8-0.1,5.7L650.8,62.4z M650.8,62.4l-0.1-5.7c0-1.9-0.1-3.7-0.1-5.5l0.3,0.3
		c-4.4,0-8.8,0.2-13.2,0.2l-13.2,0.1l0.5-0.5l0,11.2l-0.5-0.5c2.2,0,4.4,0,6.5,0.1l6.6,0.1L650.8,62.4z"/>
	<path class="st1" d="M665.6,76.5l-13.1,0.3l-6.7,0.1c-2.2,0.1-4.5,0-6.7,0.1h-0.4v-0.4l-0.1-11.2v-0.5h0.5l13.2,0.1
		c4.4,0,8.8,0.1,13.2,0.2h0.3v0.3c0,1.9-0.1,3.8-0.1,5.7L665.6,76.5z M665.6,76.5l-0.1-5.7c0-1.9-0.1-3.7-0.1-5.5l0.3,0.3
		c-4.4,0.1-8.8,0.2-13.2,0.2l-13.2,0.1l0.5-0.5v11.2l-0.5-0.4c2.2,0,4.4,0,6.5,0.1l6.6,0.1L665.6,76.5z"/>
	<path class="st1" d="M109.3,62.4l-13.1,0.3l-6.7,0.1c-2.2,0-4.5,0-6.7,0.1h-0.4v-0.5V51.2v-0.5h0.5l13.2,0.1
		c4.4,0,8.8,0.1,13.2,0.2h0.3v0.3c0,1.9-0.1,3.8-0.1,5.7L109.3,62.4z M109.3,62.4l-0.2-5.7c0-1.9-0.1-3.7-0.1-5.5l0.3,0.3
		c-4.4,0.1-8.8,0.2-13.2,0.2l-13.2,0.1l0.5-0.5l-0.1,11.2L82.9,62c2.2,0,4.3,0,6.5,0l6.6,0.1L109.3,62.4z"/>
	<path class="st1" d="M637,101.5c0.5,1,0.3,2.2-0.4,3.1c-0.2,0.2-0.4,0.5-0.5,0.7s-0.3,0.5-0.5,0.8c-0.6,0.9-1.6,1.5-2.8,1.4
		L629,107l-1.2,12.3l3.8,0.4c1.1,0.1,2,0.9,2.5,1.9c0.2,0.6,0.5,1.1,0.8,1.7c0.5,1,0.4,2.2-0.2,3.1l-2.2,3.1l10.1,7.2l2.2-3.1
		c0.7-0.9,1.8-1.3,2.8-1.2c0.6,0.1,1.2,0.1,1.8,0.2c1.1,0,2.1,0.7,2.6,1.7l1.6,3.5l11.3-5.1l-1.6-3.5c-0.4-1-0.3-2.2,0.4-3
		c0.2-0.2,0.4-0.5,0.5-0.7s0.3-0.5,0.5-0.8c0.6-0.9,1.7-1.5,2.8-1.4l3.8,0.4l1.2-12.3l-3.8-0.4c-1.1-0.1-2-0.8-2.5-1.9
		c-0.2-0.6-0.5-1.1-0.8-1.7c-0.5-1-0.4-2.2,0.2-3.1l2.2-3.1L657.7,94l-2.2,3.1c-0.6,0.9-1.8,1.4-2.8,1.2c-0.6-0.1-1.2-0.2-1.8-0.2
		c-1.1-0.1-2.1-0.7-2.6-1.7l-1.6-3.5L635.4,98L637,101.5z M656,107.1c4.6,3.3,5.6,9.6,2.4,14.2c-3.3,4.6-9.6,5.6-14.2,2.4
		c-4.6-3.3-5.6-9.6-2.4-14.2c0,0,0,0,0,0C645.1,104.9,651.4,103.8,656,107.1z"/>
	<path class="st1" d="M95.5,194.4c-0.4,0.7-1.1,1.1-1.9,1h-0.6h-0.6c-0.8,0.1-1.5-0.3-1.9-1L89,192l-7.5,4.3l1.3,2.3
		c0.4,0.7,0.4,1.5-0.1,2.2c-0.2,0.4-0.4,0.7-0.6,1.1c-0.3,0.7-1.1,1.1-1.8,1.1h-2.6v8.7h2.7c0.8,0,1.5,0.4,1.8,1.1
		c0.2,0.4,0.4,0.8,0.6,1.1c0.4,0.6,0.5,1.5,0.1,2.2l-1.3,2.3l7.5,4.4l1.3-2.3c0.4-0.7,1.1-1.1,1.9-1h0.6h0.6c0.8-0.1,1.5,0.3,1.9,1
		l1.3,2.3l7.5-4.3l-1.3-2.3c-0.4-0.7-0.4-1.5,0.1-2.2c0.2-0.4,0.5-0.7,0.7-1.1c0.3-0.7,1.1-1.1,1.8-1.1h2.7v-8.7h-2.7
		c-0.8,0-1.5-0.4-1.8-1.1c-0.2-0.4-0.4-0.8-0.7-1.1c-0.4-0.7-0.5-1.5-0.1-2.2l1.3-2.3l-7.5-4.4L95.5,194.4z M100,207.5
		c0,3.9-3.2,7.1-7.1,7.1c-3.9,0-7.1-3.2-7.1-7.1c0-3.9,3.2-7.1,7.1-7.1C96.8,200.4,100,203.5,100,207.5L100,207.5z"/>
	<path class="st1" d="M610.9,63.2c-0.5,0.6-1.2,0.9-2,0.8l-0.6-0.1l-0.6-0.1c-0.8,0-1.5-0.5-1.8-1.2l-1-2.5l-8,3.3l1,2.5
		c0.3,0.7,0.1,1.6-0.4,2.1c-0.3,0.3-0.5,0.7-0.8,1c-0.4,0.7-1.2,1-2,0.9l-2.6-0.3l-1.1,8.6l2.6,0.3c0.8,0.1,1.4,0.6,1.7,1.4
		c0.1,0.4,0.3,0.8,0.5,1.2c0.3,0.7,0.3,1.5-0.2,2.2l-1.6,2.1l6.9,5.3l1.6-2.1c0.5-0.6,1.2-0.9,2-0.8l0.6,0.1l0.6,0.1
		c0.8,0,1.5,0.5,1.8,1.2l1,2.5l8-3.3l-1-2.4c-0.3-0.7-0.2-1.5,0.3-2.1c0.3-0.3,0.5-0.7,0.8-1c0.4-0.7,1.2-1,2-0.9l2.6,0.3l1.1-8.6
		l-2.6-0.3c-0.8-0.1-1.4-0.6-1.7-1.4c-0.1-0.4-0.3-0.8-0.5-1.2c-0.3-0.7-0.3-1.5,0.2-2.2l1.6-2.1l-6.9-5.3L610.9,63.2z M613.8,76.8
		c-0.5,3.9-4.1,6.6-8,6.1c-3.9-0.5-6.6-4.1-6.1-8c0.5-3.9,4.1-6.6,8-6.1C611.5,69.3,614.3,72.9,613.8,76.8
		C613.8,76.8,613.8,76.8,613.8,76.8z"/>
	<rect x="539" y="200.3" class="st1" width="97.8" height="181.9"/>
	<rect x="534.2" y="195.3" class="st2" width="107.3" height="5"/>
	<rect x="641.5" y="195.3" class="st1" width="33.7" height="5"/>
	<rect x="636.8" y="200.3" class="st2" width="33.1" height="181.9"/>
	<path class="st3" d="M626.2,317.4h-76.7V274h76.7V317.4z M549.7,317.2H626v-42.9h-76.3V317.2z"/>
	<rect x="577.2" y="286.7" class="st3" width="14.9" height="8.6"/>
	<path class="st3" d="M596.6,294.8h-15.2v-7.5h15.2V294.8z M581.7,294.5h14.7v-7h-14.7V294.5z"/>
	<path class="st3" d="M626.2,371.9h-76.7v-43.4h76.7V371.9z M549.7,371.7H626v-42.9h-76.3V371.7z"/>
	<rect x="577.2" y="341.2" class="st3" width="14.9" height="8.6"/>
	<path class="st3" d="M596.6,349.3h-15.2v-7.5h15.2V349.3z M581.7,349h14.7v-7h-14.7V349z"/>
	<rect x="549.6" y="219.7" class="st4" width="76.5" height="43.1"/>
	<rect x="560.4" y="208.7" class="st3" width="58.2" height="42.2"/>
	<polygon class="st3" points="581,204.3 560.4,204.3 560.4,208.7 582.2,208.7 	"/>
	<polygon class="st4" points="618.5,250.9 560.3,250.9 555.8,212.2 614,212.2 	"/>
	<polygon class="st4" points="575.9,208.1 555.3,208.1 555.8,212.2 577.5,212.2 	"/>
	<rect x="512.8" y="219.7" class="st1" width="76.5" height="43.1"/>
	<path class="st3" d="M589.4,263h-76.7v-43.4h76.7V263z M512.9,262.8h76.2v-42.9h-76.2V262.8z"/>
	<rect x="540.3" y="232.2" class="st3" width="14.9" height="8.6"/>
	<path class="st3" d="M559.8,240.3h-15.2v-7.5h15.2V240.3z M544.8,240.1h14.7v-7h-14.7V240.1z"/>
	<rect x="589.4" y="226.2" class="st2" width="36.7" height="36.7"/>
	<circle class="st1" cx="375" cy="91.6" r="41.3"/>
	<circle class="st2" cx="376.9" cy="92.6" r="39.4"/>
	<ellipse transform="matrix(0.9714 -0.2373 0.2373 0.9714 -11.2089 92.1001)" class="st5" cx="376.9" cy="92.6" rx="37" ry="37"/>
	<path class="st6" d="M413,84.7c-16.8,10.2-44.5,26.9-59.9,36.1c-4.4-3.7-7.8-8.3-10.1-13.6l51.1-47.4C403.8,65,410.7,74.1,413,84.7
		z"/>
	<path class="st6" d="M413.8,93.9c-0.1,4.1-1,8.2-2.4,12l-46.1,21.8c-2-0.7-4-1.5-5.8-2.5C373.4,117.1,398.8,102.5,413.8,93.9z"/>
	<rect x="376.5" y="58.3" class="st3" width="0.7" height="5.6"/>
	<rect x="360.8" y="62.5" transform="matrix(0.866 -0.5 0.5 0.866 15.7379 189.3197)" class="st3" width="0.7" height="5.6"/>
	
		<rect x="349.6" y="72.6" transform="matrix(0.4983 -0.867 0.867 0.4983 110.1642 341.2396)" class="st3" width="0.7" height="5.6"/>
	<rect x="342.6" y="92.2" class="st3" width="5.6" height="0.7"/>
	
		<rect x="346.8" y="107.9" transform="matrix(0.8659 -0.5002 0.5002 0.8659 -7.2762 189.3822)" class="st3" width="5.6" height="0.7"/>
	
		<rect x="358.4" y="119.5" transform="matrix(0.4994 -0.8664 0.8664 0.4994 76.9829 372.8816)" class="st3" width="5.6" height="0.7"/>
	<rect x="376.5" y="121.2" class="st3" width="0.7" height="5.6"/>
	<rect x="392.3" y="117" transform="matrix(0.866 -0.5 0.5 0.866 -7.3108 212.3651)" class="st3" width="0.7" height="5.6"/>
	<rect x="403.8" y="105.5" transform="matrix(0.5 -0.866 0.866 0.5 108.2845 404.1346)" class="st3" width="0.7" height="5.6"/>
	<rect x="405.6" y="92.2" class="st3" width="5.6" height="0.7"/>
	
		<rect x="401.3" y="76.4" transform="matrix(0.8659 -0.5002 0.5002 0.8659 15.7674 212.4235)" class="st3" width="5.6" height="0.7"/>
	
		<rect x="389.9" y="65" transform="matrix(0.4997 -0.8662 0.8662 0.4997 139.8545 372.8008)" class="st3" width="5.6" height="0.7"/>
	<polygon class="st3" points="377.4,60.8 378.6,95.1 375.1,95 376.5,60.8 	"/>
	<polygon class="st4" points="398.8,80.6 375.7,95.3 374,92.2 398.3,79.8 	"/>
	<path class="st3" d="M378.1,92.6c0,0.7-0.5,1.2-1.2,1.2c-0.7,0-1.2-0.5-1.2-1.2s0.5-1.2,1.2-1.2C377.5,91.4,378.1,91.9,378.1,92.6
		C378.1,92.6,378.1,92.6,378.1,92.6z"/>
</g>
<g id="freepik--Floor--inject-18">
	<polygon class="st7" points="69,382.2 145,381.9 221,381.9 373,381.7 525,381.9 601,381.9 677,382.2 601,382.4 525,382.5 
		373,382.7 221,382.5 145,382.4 	"/>
</g>
<g id="freepik--Shadow--inject-18">
	<ellipse class="st1" cx="375" cy="425.3" rx="294.4" ry="31.4"/>
</g>
<g id="freepik--Plant--inject-18">
	<path class="st8" d="M114.3,279.1c0.7,5.2,0.5,10.5-0.8,15.6c-0.6,2.4-1.4,4.7-2.4,6.9c-1.2,2.9-2.6,5.7-2.2,8.8
		c0.3,0.2-0.7,0.2-0.8-0.1c-8.4-4.8-19.1-5.6-25.5-13.4c-3-3.7-4.6-8.4-5.3-13c-0.8-5.1-1-10.7,0.3-15.8c1.1-4.2,3.6-8.3,7.6-10.4
		s9.5-2,13.8-0.6C108.3,260,113,270.1,114.3,279.1z"/>
	<path class="st7" d="M118.6,341.1c-1.1-3.8-2.3-7.6-3.4-11.4c-2.3-7.4-4.7-14.8-7.3-22.2c-1.6-4.4-3.2-8.7-5-13
		c0.2-2.7,0.5-5.4,1-8.1c0.7-3.2,1.7-6.4,2.7-9.5c0.1-0.2-0.2-0.3-0.3-0.1c-1.9,4.4-4.3,10-4.4,15.1c-2-4.9-4.2-9.7-6.6-14.4
		c-0.3-4-0.1-8,0.4-12c0-0.1-0.1-0.1-0.2-0.1c-0.1,0-0.1,0-0.1,0.1c-0.7,3.5-1,7-0.8,10.5c-1.8-3.5-3.7-7.1-5.7-10.5
		c-0.2-0.3-0.6,0-0.4,0.3c3.2,6,6.1,12.2,8.8,18.5c-3.8-3.3-8.3-5.9-13.1-7.6c-0.2-0.1-0.4,0.2-0.2,0.3c5.2,2.3,10,5.4,14.2,9.4
		c2,4.6,3.8,9.2,5.6,13.9c-5.2-5.1-12.4-8.5-19.3-10.3c-0.2-0.1-0.3,0.3-0.1,0.4c8,2.4,14.2,7,20.3,12.4c0.7,1.9,1.4,3.8,2.1,5.7
		c2.6,7.2,5,14.4,7.4,21.6c1.1,3.5,2.2,7,3.3,10.4c1.2,3.8,2.1,7.7,3.6,11.3c0.2,0.4,0.8,0.3,0.7-0.1
		C121,348.1,119.7,344.6,118.6,341.1z"/>
	<path class="st7" d="M104.7,271.8c-1.5,2.3-2.5,4.8-3,7.5c0,0,0,0.1,0.1,0.1c0,0,0.1,0,0.1-0.1c0.9-2.5,2-5,3.3-7.4
		C105.2,271.8,104.9,271.6,104.7,271.8z"/>
	<path class="st7" d="M89.8,289.2c-2.3-1.3-4.9-2.1-7.5-2.5c-0.1,0-0.1,0.1,0,0.1c1.2,0.5,2.5,0.9,3.7,1.3s2.4,1,3.7,1.5
		c0.1,0,0.2-0.1,0.2-0.2C89.9,289.4,89.9,289.3,89.8,289.2z"/>
	<path class="st7" d="M85.6,268.3c-0.8-0.6-1.6-1.1-2.4-1.5c-0.1,0-0.1,0-0.2,0.1c0,0,0,0.1,0,0.1c0.7,0.6,1.5,1.1,2.4,1.5
		C85.6,268.6,85.8,268.4,85.6,268.3z"/>
	<path class="st8" d="M142.5,307.6c-6,1.8-12.1,3.4-18.1,5.2c-0.5,0.2-10.7-19.4-7-29.4c3.5-9.2,11.1-16.4,20.5-19.4
		c4.3-1.5,9.6-2.7,14.1-1.7c4,0.9,6.9,4.2,8.2,8c1.8,5.2,1.2,11.3,0.2,16.6c-0.8,5-2.8,9.6-5.9,13.5
		C151.3,304.2,147.2,306.2,142.5,307.6z"/>
	<path class="st7" d="M151.3,289c-3.8,1.9-7.8,3.4-11.8,4.7c-2.7,0.7-5.3,1.7-7.9,2.9c2.6-5.7,5.3-11.2,8.3-16.7
		c3.9-1.1,8-2.9,10.9-5.6c0.1-0.1,0.1-0.2,0-0.2c-0.1-0.1-0.2-0.1-0.2,0c-3.2,2.3-6.8,3.6-10.3,5.2c0.8-1.5,1.6-3,2.4-4.4
		c0.2-0.4-0.3-0.8-0.6-0.4c-3.2,4.6-6,9.4-8.6,14.4c-0.6-4.4-0.8-8.8-0.6-13.2c0,0,0-0.1-0.1-0.1c0,0-0.1,0-0.1,0.1c0,0,0,0,0,0.1
		c-0.8,4.8-0.7,9.7,0.1,14.5c-2.1,4.2-4,8.5-5.8,12.9c-0.7-2.6-1.6-5.2-2.2-7.9c-0.9-3.8-1.2-7.7-0.9-11.6c0-0.1-0.2-0.1-0.2,0
		c-1.1,7.2-0.2,14.6,2.5,21.3c-1,2.6-2,5.3-2.8,7.9c-4.5,13.5-7.2,27.6-8,41.8c0,0.1,0.2,0.2,0.3,0.2c0.1,0,0.2-0.1,0.2-0.2
		c1.6-14,4.6-27.9,9-41.3c1.8-5.2,3.8-10.4,6-15.4c3.6-1,7.1-2.5,10.6-3.7c3.5-1,6.8-2.7,9.8-4.8c0.1,0,0.1-0.1,0-0.2
		C151.4,289,151.3,289,151.3,289L151.3,289z"/>
	<path class="st7" d="M156.9,283.3c-3.7,1.3-7.2,3.1-10.9,4.5c-0.2,0.1-0.1,0.3,0.1,0.3c3.9-0.8,7.8-2,10.9-4.6
		C157.2,283.5,157,283.3,156.9,283.3z"/>
	<path class="st7" d="M126.8,275.4c0-0.2-0.2-0.3-0.3-0.1c-1,3.4-1.7,7-0.7,10.5c0,0.1,0.1,0.1,0.1,0.1c0.1,0,0.1-0.1,0.1-0.1
		C126.2,282.2,126,278.8,126.8,275.4z"/>
	<path class="st7" d="M142,267.5c-1.2,1.7-1.7,3.7-1.6,5.8c0,0.1,0.2,0.2,0.2,0c0.4-1.9,1.2-3.7,1.8-5.6c0-0.1,0-0.3-0.1-0.3
		C142.2,267.4,142.1,267.4,142,267.5z"/>
	<path class="st8" d="M70.8,316.2c1.8,5.6,6,13.4,12.6,13.4c4.3,0,8.7-0.5,13-0.5c4.6-0.1,9.3-0.1,13.9,0.2
		c0.4,0-0.6-13.9-11.7-20.6c-3.1-1.9-6.9-2.5-10.5-3.2c-4-1-8.2-1.4-12.4-1.3c-2.6,0.1-4.7,0.6-5.6,3.3S70,313.5,70.8,316.2z"/>
	<path class="st7" d="M75.6,309.1c2.7,0.7,5.4,1.5,8.1,2.4c-0.7-0.8-1.5-1.5-2.2-2.2c-1.2-1-2.4-1.7-3.7-2.6c-0.1-0.1,0-0.3,0.1-0.2
		c2.6,1.1,4.9,2.9,6.6,5.2c3.4,1.1,6.7,2.3,10,3.6c2.2,0.9,4.4,2,6.4,3.4c-0.6-1.4-1.4-2.7-2.3-4c-1.5-1.9-3.5-3-5.4-4.3
		c-0.1,0-0.1-0.2-0.1-0.2c0-0.1,0.2-0.1,0.2-0.1c4.1,1.8,7.2,5.2,8.7,9.4c2.3,1.7,4.4,3.6,6.3,5.7c7.4,8.4,13.2,19.5,13.2,30.8
		c0,0.3-0.4,0.4-0.5,0.1c-1.9-11.1-6.7-21.5-14-30.1c-0.5-0.6-1.1-1.2-1.6-1.8c-2-0.3-4-0.4-6.1-0.5c-2.4,0-4.7,0.4-7.1,0.5
		c-3.9,0.3-8.2,0.4-11.7-1.6c-0.2-0.1,0-0.4,0.1-0.3c7.8,2.8,16-0.8,23.8,0.9c-3.3-3.2-7.3-5.7-11.5-7.4l-0.7-0.3
		c-5,0.6-10.3,1.9-15.2,0.3c-0.1,0-0.1-0.1-0.1-0.2c0,0,0.1-0.1,0.1-0.1c4.7,1.2,9.2-0.3,13.9-0.5c-5.1-2-10.2-3.5-15.3-5.5
		C75.2,309.4,75.2,309,75.6,309.1z"/>
	<path class="st7" d="M73.4,314.1c2.4,0.3,4.9,0.5,7.3,0.5c0.1,0,0.1,0.1,0,0.1c-2.5,0.5-5,0.3-7.4-0.5
		C73.2,314.2,73.3,314.1,73.4,314.1z"/>
	<path class="st7" d="M89.9,309.3c1.4,0.6,2.6,1.5,3.6,2.5c0.1,0.1,0,0.3-0.2,0.2c-0.6-0.4-1.2-0.9-1.9-1.3
		c-0.6-0.3-1.2-0.7-1.8-1.1c-0.1-0.1-0.1-0.2,0-0.3C89.8,309.3,89.8,309.3,89.9,309.3z"/>
	<path class="st8" d="M129.2,327.3c-0.1,0.2,0.2,0.4,0.3,0.2l0,0c0,0.1,0.1,0.1,0.2,0.1c4.5,1.1,9,1.9,13.6,2.4
		c3.7,0.3,7.9,0.5,11.1-1.6c4.4-2.9,7.2-10.6,4.9-15.5c-2.8-5.8-11.2-2.7-15.4-0.6C137.3,315.4,132.1,320.8,129.2,327.3z"/>
	<path class="st7" d="M125.9,330c2.5-2.4,5.2-4.4,8.1-6.2c2.1-3.3,4.9-6.2,8.2-8.4c0.2-0.1,0.3,0.1,0.1,0.2c-2.6,2.1-5,4.6-6.9,7.3
		c3.3-1.8,6.7-3.3,10.2-4.6c1.2-2.3,3.1-4.2,5.5-5.5c0,0,0.1,0,0.1,0.1c-1.9,1.5-3.6,3.2-4.9,5.2c2.1-0.8,4.2-1.5,6.2-2.2
		c0.2-0.1,0.3,0.2,0.1,0.3c-3.7,1.5-7.5,3-11.2,4.8c4.5,0.7,9.1,0.7,13.6,0c0.1,0,0.1,0,0.1,0.1s0,0.1-0.1,0.1c0,0,0,0-0.1,0
		c-4.7,1.4-9.7,1.5-14.4,0.2c-2.3,1.1-4.6,2.4-6.8,3.8c1.9-0.1,3.7,0,5.5,0.5c3.2,0.7,6.4,1.1,9.7,1.1c0.1,0,0.2,0.2,0,0.2
		c-5.6,1-10.9-1.6-16.5-0.9c-6.2,4.2-11.1,9.9-14.3,16.7c-2.3,4.8-3.6,9.8-5.5,14.8c0,0.1-0.1,0.2-0.2,0.1c-0.1,0-0.2-0.1-0.1-0.2
		C114,347.7,118.8,337,125.9,330z"/>
	<path class="st7" d="M142.9,316.7c0.4-0.7,0.9-1.3,1.4-1.8c0.5-0.5,1.1-0.9,1.7-1.2c0.1,0,0.1,0.1,0.1,0.1
		c-0.5,0.5-1.1,0.9-1.6,1.4s-0.9,1.1-1.4,1.6c0,0-0.1,0.1-0.1,0C142.8,316.8,142.8,316.7,142.9,316.7L142.9,316.7z"/>
	<path class="st7" d="M152.1,319.7c0.8-0.2,1.7-0.2,2.6-0.4c0.8-0.2,1.7-0.4,2.5-0.7c0.1,0,0.1,0,0.1,0.1c0,0,0,0.1,0,0.1
		c-1.5,0.9-3.3,1.4-5.1,1.2c-0.1,0-0.1-0.1-0.1-0.1S152.1,319.7,152.1,319.7z"/>
	<polygon class="st9" points="102.7,345.4 103.5,353.8 106,382.1 128.1,382.1 131.3,353.8 132.2,345.4 	"/>
	<polygon class="st7" points="102.7,345.4 103.5,353.8 131.3,353.8 132.2,345.4 	"/>
	<rect x="100.5" y="343.1" class="st9" width="33.8" height="6.8"/>
</g>
<g id="freepik--character-2--inject-18">
	<path class="st10" d="M666.8,413c-0.2-2.2-25.4-56.4-27.7-57.9c-0.9-0.6-9,2.6-18.7,6.8l-0.3,0.1c-2,0.9-38.9,10.8-38.9,10.8
		l16.3,35.5l38.4-11l0.6-0.3c0,0,18.9,16.5,21.6,17.8S667.1,415.2,666.8,413z"/>
	<path class="st1" d="M613.2,364.2L630,399l6-1.8l0.6-0.3c0,0,18.9,16.5,21.6,17.8s8.9,0.5,8.6-1.7s-25.4-56.4-27.7-57.9
		c-0.8-0.6-9,2.6-18.7,6.8l-0.3,0.1C619.7,362.3,617,363.1,613.2,364.2z"/>
	<path class="st8" d="M667,413.3c-0.2-2.2-25.5-57.1-27.7-58.5c-0.9-0.6-9.1,2.6-18.9,6.8l16.2,35.4c0,0,19,16.7,21.7,18
		S667.3,415.5,667,413.3z"/>
	<path class="st7" d="M664.5,413.5c-4.5-9.1-21.6-46.2-25.3-55.5c0-0.1,0-0.1,0.1,0c4.6,8.9,21.4,46.1,25.4,55.5
		C664.7,413.7,664.6,413.7,664.5,413.5z"/>
	<path class="st7" d="M654.7,412.4c-1-2-1.1-4.4-0.3-6.5c0.7-1.9,2.2-3.4,4-4.3c0.1,0,0.1,0.1,0.1,0.1c-3.5,2.4-4.9,6.7-3.6,10.7
		C654.9,412.4,654.8,412.5,654.7,412.4z"/>
	<path class="st7" d="M639.1,400.1c-1.8-3.7-2.4-8.5-0.5-12.2c0.1-0.1,0.3,0,0.3,0.1c-0.2,4,0,8,0.7,11.9c0,0.1,0,0.3-0.2,0.3
		C639.3,400.3,639.2,400.3,639.1,400.1L639.1,400.1z"/>
	<path class="st7" d="M641.5,402.5c-1.7-3.7-2.4-8.5-0.5-12.2c0.1-0.1,0.3,0,0.3,0.1c-0.2,4,0,8,0.7,11.9c0,0.1,0,0.3-0.2,0.3
		C641.7,402.7,641.6,402.6,641.5,402.5L641.5,402.5z"/>
	<path class="st7" d="M644,404.8c-1.8-3.7-2.4-8.5-0.5-12.2c0.1-0.1,0.3,0,0.3,0.1c-0.2,4,0,8,0.7,12c0,0.1,0,0.3-0.2,0.3
		C644.2,405,644,404.9,644,404.8z"/>
	<path class="st7" d="M646.4,407.1c-1.7-3.6-2.4-8.5-0.5-12.2c0.1-0.1,0.3,0,0.3,0.1c-0.2,4,0,8,0.7,12c0,0.1-0.1,0.2-0.3,0.2
		C646.5,407.3,646.4,407.2,646.4,407.1z"/>
	<path class="st7" d="M631.6,364.4c-1.9-4.1,4.5-7.1,6.4-2.9S633.5,368.5,631.6,364.4z"/>
	<path class="st7" d="M636.4,405.8c1.7-3.2,1.9-6.9,2.5-10.4c0.1-0.4-0.3-0.6-0.6-0.5c0-0.1-0.1-0.1-0.1-0.1c0,0,0,0-0.1,0
		c-3.2,1.8-6,4.5-7.9,7.7c-1.1,1.9-1.5,4.9,0.9,6.1S635.4,407.7,636.4,405.8z M633.4,407.4c-4.2,1.5-2.8-3.5-1.9-4.9
		c0.6-0.9,1.2-1.7,1.9-2.5c1.4-1.6,3-3.1,4.5-4.6c-0.4,1.7-0.7,3.4-1,5.1C636.5,402.5,635.7,406.6,633.4,407.4L633.4,407.4z"/>
	<path class="st7" d="M629.8,382.9c-2.3,1.4-1.5,4.4-0.3,6.1c2.2,3,5.2,5.3,8.6,6.8c0.1,0,0.1,0,0.1-0.1c0,0,0,0,0,0
		c0.3,0,0.7-0.2,0.5-0.6c-1-3.4-1.6-7.1-3.5-10.1C634.1,383.4,631.9,381.6,629.8,382.9z M636.3,390.4c0.5,1.6,0.9,3.3,1.5,4.9
		c-1.7-1.3-3.4-2.6-5-4.1c-0.7-0.7-1.5-1.5-2.1-2.3c-1-1.3-2.9-6.1,1.4-5.1C634.5,384.4,635.7,388.4,636.3,390.4L636.3,390.4z"/>
	<path class="st9" d="M532.9,257.1c0,0,0.7,21.3,3.9,31.7c0,0,3.5,1.8,4.5,2.5c0,0-26.4,63.2-24.9,87.5c0.5,8,9.5,21.1,18.7,26.8
		c16.1,10,95,1.2,95,1.2l-11.4-47.4c0,0-49.8,2.8-51.1,0.1c-1.6-3.4,8.3-30,16.2-51.6c0.8-2.2,8.8-10.2,7.8-24.8
		c-0.7-9-3-17.8-6.9-26L532.9,257.1z"/>
	<path class="st7" d="M609.4,364.7c-10.9-0.2-19.7,0.7-30.6,0.7h-12.3c-1,0-1.9-0.1-2.8-0.2c-0.9-0.1-1.6-0.6-2.2-1.3
		c-0.7-1.1-0.3-2.5-0.1-3.6c0.5-2.6,1.2-5.1,1.8-7.6c2.7-10.3,6.3-20.3,9.7-30.4c1.7-5.2,3.5-10.4,5.2-15.6c0.4-1.3,0.8-2.5,1.4-3.8
		c0.5-1.1,1.1-2.2,1.7-3.3c1.2-2,2.2-4.2,3-6.4c2.9-9.7,0.1-19.7-3.3-28.8c-0.5-1.2-0.9-2.4-1.4-3.6c0-0.1-0.2,0-0.1,0
		c3.1,9.6,6.9,19.6,4.8,29.9c-0.5,2.4-1.3,4.7-2.5,6.9c-0.6,1.1-1.3,2.2-1.8,3.3c-0.6,1.1-1.1,2.3-1.5,3.5
		c-1.8,5.1-3.5,10.3-5.2,15.4c-3.4,10.2-7,20.4-9.9,30.8c-0.7,2.6-1.4,5.2-2,7.8c-0.4,1.9-1.4,4.6,0.3,6.2c1.2,1.2,3.2,1.3,4.8,1.3
		c2.7,0,5.4,0,8.1,0c11,0,33.8-1,35.2-1c0.1,0,0.1-0.2,0.1-0.3C609.5,364.8,609.5,364.8,609.4,364.7z"/>
	<path class="st7" d="M621.6,404.6c-1.1-5.5-2.1-11.1-3.3-16.6s-2.6-11-4-16.5c-0.4-1.5-0.8-3.1-1.2-4.6c-0.2-0.7-0.4-1.5-0.6-2.2
		c-0.2-0.7-0.4-1.5-0.7-2.2c0,0,0-0.1-0.1-0.1s-0.1,0-0.1,0.1c0.1,1.4,0.4,2.9,0.8,4.2c0.3,1.3,0.5,2.7,0.8,4
		c0.6,2.8,1.1,5.5,1.7,8.2c1.2,5.5,2.6,10.9,4,16.4c0.8,3.1,1.6,6.2,2.4,9.3c0,0.1,0.1,0.1,0.2,0.1
		C621.6,404.7,621.6,404.7,621.6,404.6z"/>
	<path class="st7" d="M525.4,334.6l55.9-20.3c0.8-2.1,1.6-4.3,2.3-6.4s8.8-10.2,7.8-24.8c-0.7-9-3-17.8-6.9-26h-51.8
		c0,0,0.7,21.3,3.9,31.7c0,0,3.5,1.8,4.5,2.5C541.3,291.3,532.6,312.2,525.4,334.6z"/>
	<path class="st10" d="M440.4,415.6c2.1,0.6,61.9-1.3,64.1-2.9c0.9-0.6,1.1-9.3,1-19.8v-0.3c0-2.2-0.9-38.6-0.9-38.6l-41.8,1.3
		l4.2,38.2v0.7c0,0-22.5,11-24.8,12.9S438.3,415,440.4,415.6z"/>
	<path class="st1" d="M440.4,415.6c2.1,0.6,61.9-1.4,64.1-2.9c0.9-0.6,1.1-9.3,1-19.8v-0.3c0-0.6,0-3.5-0.2-8l-39.2,1.5l0.8,7.4v0.6
		c0,0-22.5,11-24.8,12.9S438.3,415,440.4,415.6z"/>
	<path class="st8" d="M439.9,415.9c2.1,0.6,62.5-1.4,64.7-2.9c0.9-0.6,1.1-9.4,1-20l-38.9,1.2c0,0-22.8,11.1-25,13
		S437.8,415.2,439.9,415.9z"/>
	<path class="st7" d="M440.7,413.4c10.1-0.6,50.9-2,61-1.8c0.1,0,0.1,0.1,0,0.1c-10,0.8-50.8,1.9-61,1.9
		C440.5,413.6,440.5,413.4,440.7,413.4z"/>
	<path class="st7" d="M445.5,404.9c2.3-0.1,4.5,0.7,6.1,2.3c1.5,1.4,2.3,3.3,2.4,5.3c0,0.1-0.1,0.1-0.1,0c-0.8-4.1-4.3-7.1-8.4-7.5
		C445.5,405,445.5,404.9,445.5,404.9C445.5,404.9,445.5,404.9,445.5,404.9z"/>
	<path class="st7" d="M462.9,395.2c4-0.2,8.8,1.1,11.4,4.3c0.1,0.1-0.1,0.3-0.2,0.2c-3.6-1.7-7.4-3.1-11.3-4c-0.1,0-0.2-0.1-0.2-0.3
		S462.7,395.2,462.9,395.2z"/>
	<path class="st7" d="M459.8,396.6c4-0.2,8.8,1.1,11.4,4.3c0.1,0.1-0.1,0.3-0.2,0.2c-3.6-1.7-7.4-3.1-11.3-4c-0.1,0-0.2-0.1-0.2-0.3
		C459.5,396.7,459.7,396.6,459.8,396.6z"/>
	<path class="st7" d="M456.7,397.9c4-0.2,8.8,1.1,11.4,4.3c0.1,0.1-0.1,0.3-0.2,0.2c-3.6-1.7-7.4-3.1-11.3-4c-0.1,0-0.2-0.1-0.2-0.3
		S456.6,397.9,456.7,397.9L456.7,397.9z"/>
	<path class="st7" d="M453.6,399.2c4-0.2,8.8,1.1,11.4,4.3c0.1,0.1-0.1,0.3-0.2,0.2c-3.6-1.7-7.4-3.1-11.3-4c-0.1,0-0.2-0.1-0.2-0.3
		C453.4,399.3,453.5,399.2,453.6,399.2L453.6,399.2z"/>
	<path class="st7" d="M498.8,402.1c4.5-0.1,4.8,6.9,0.2,7.1S494.2,402.2,498.8,402.1z"/>
	<path class="st7" d="M458.7,390.5c2.3,2.8,5.7,4.4,8.6,6.3c0.2,0.1,0.5,0,0.7-0.2c0,0,0-0.1,0-0.1c0.1,0,0.1,0,0.1-0.1c0,0,0,0,0,0
		c-0.4-3.7-1.8-7.2-4-10.2c-1.3-1.7-4-3.3-6-1.5S457.4,388.9,458.7,390.5z M458.4,387.2c0.2-4.4,4.3-1.2,5.3,0.1
		c0.6,0.9,1.1,1.8,1.6,2.7c0.9,1.9,1.8,3.9,2.5,5.9c-1.4-1-2.9-1.9-4.3-2.9C461.7,391.9,458.2,389.6,458.4,387.2z"/>
	<path class="st7" d="M482.4,393.3c-0.4-2.6-3.4-3.1-5.6-2.6c-3.6,0.9-6.9,2.7-9.6,5.3c0,0-0.1,0.1,0,0.2c0,0,0,0,0,0
		c-0.1,0.2,0,0.5,0.2,0.7c0,0,0.1,0,0.1,0.1c3.5,0.4,7.1,1.3,10.7,0.6C480.3,397.1,482.8,395.8,482.4,393.3z M473,396.4
		c-1.7-0.2-3.4-0.4-5.1-0.5c1.8-1.1,3.7-2.1,5.7-3c0.9-0.4,1.9-0.8,2.9-1.1c1.5-0.4,6.8-0.3,4.1,3.3
		C479.2,397.1,475,396.6,473,396.4z"/>
	<path class="st9" d="M463.5,390.5h46.8c0,0-8.3-63.7-5.6-67.9c1.2-1.8,62,4.3,79.7-15c16.2-17.6-0.3-50.6-0.3-50.6h-49.9
		c0,0-1,14.1-3.7,19.8c-1.2,2.4-56.8-1-65.5,14.9C453.4,313,463.5,390.5,463.5,390.5z"/>
	<path class="st7" d="M505.4,381.6c-5.3-0.2-10.6-0.4-15.9-0.4s-10.6,0.1-15.9,0.3c-1.5,0.1-5.9,0.3-6.6,0.3c-0.7,0-1.4,0.1-2.2,0.2
		c0,0-0.1,0-0.1,0.1s0,0.1,0.1,0.1c1.1,0.2,13.1,0.3,15.8,0.3c5.3,0,10.5-0.1,15.8-0.3c3-0.1,6-0.2,9-0.3
		C505.5,381.9,505.5,381.6,505.4,381.6z"/>
	<path class="st7" d="M536.4,272.4c0.2-1.5,0.4-3,0.6-4.5c0.4-3.4,0.8-6.9,0.9-10.3c0-0.3-0.4-0.2-0.4,0c-0.3,2.7-0.6,5.3-0.9,8
		s-0.5,5.3-1,7.9c-0.2,0.8-0.5,2.1-1.5,2.1c-1.3,0-1.6-1.8-1.7-2.8c-0.3-2.5-0.3-5-0.1-7.5c0.1-2.8,0.5-5.6,0.8-8.5
		c0-0.1-0.2-0.1-0.2,0c-1.2,5.5-2.3,11.2-1.3,16.8c0.1,1.1,0.8,2.2,1.8,2.6h0.1c0,0,0,0.1,0,0.1c0,0.2,0,0.3,0,0.5
		c0,0.1,0,0.3,0,0.4c0,0.3,0,0.6,0,0.8c0,0.1,0.1,0.2,0.2,0.2s0.2-0.1,0.2-0.2c0.1,0,0.1-0.1,0.2-0.1c0.1-0.5,0.1-1.1,0-1.6
		c0.7,0,1.3-0.3,1.7-0.9C536.1,274.5,536.4,273.4,536.4,272.4z"/>
	<path class="st7" d="M531.4,276.4c3.8,2.6,7.4,5.6,10.7,8.8c0.1,0.1,0,0.3-0.2,0.2c-3.7-2.8-7.4-5.6-10.9-8.6
		C530.8,276.6,531.1,276.2,531.4,276.4z"/>
	<path class="st7" d="M572.4,279.1c-1.1,0-2.2-0.1-3.2-0.2c-0.9-0.2-1.9-0.4-2.8-0.7c-1.7-0.5-3.8-1.1-5.1-2.5
		c-1.2-1.5-2.2-3.2-2.9-5c-0.9-1.9-1.4-3.9-1.7-5.9c0-0.1-0.2-0.1-0.1,0c0.1,2.1,0.5,4.2,1.1,6.3c0.3,1,0.7,2,1.2,3
		c1.2,3.1,4,5.1,7.3,5.3c2.1,0.4,4.2,0.4,6.3,0C572.6,279.3,572.5,279.1,572.4,279.1z"/>
	<path class="st7" d="M499.7,319.6c0.2-1.1,1.1-2,2.3-2.2c1.3-0.1,2.7-0.2,4-0.1c3.1,0,6.2,0.1,9.4,0.1c12.3,0,24.7-0.3,36.7-2.7
		c5.9-1.1,11.6-2.9,17.2-5.2c4.7-2,9.4-4.8,12.3-9.1c3.4-5,3.6-11.5,3.5-17.3c-0.1-6.3-1.1-12.5-3-18.5c-0.5-1.5-1-3-1.6-4.5
		c0-0.1,0.1-0.2,0.1-0.1c2.5,5.7,4.1,11.7,4.9,17.8c0.4,3,0.5,6.1,0.4,9.1c0,3-0.4,6-1.2,8.8c-3.2,10.9-15.3,15.4-25.2,18.1
		c-11.8,3.3-24.2,4.2-36.5,4.4c-6.2,0.1-12.3,0-18.5-0.1c-1.2,0-3.1-0.4-3.8,0.9c-0.3,0.7-0.5,1.5-0.5,2.2c-0.1,0.9-0.2,1.7-0.3,2.6
		c-0.2,3.3-0.1,6.6,0.1,9.8c0.4,6.7,0.9,13.3,1.4,19.9c0.5,6.7,1.3,13.3,1.8,20c0.1,1.6,0.3,3.3,0.4,4.9c0,0.2-0.3,0.2-0.3,0
		c-1.7-13.2-2.9-26.5-3.8-39.7c-0.2-3.3-0.5-6.6-0.5-9.9C498.8,326,499,322.8,499.7,319.6z"/>
	<path class="st7" d="M529.7,322.1c4.2,0,8.3-0.4,12.4-0.9c3.9-0.5,7.8-1,11.6-1.7c6.7-1.1,13.6-2.4,19.9-5c3.5-1.3,6.7-3.2,9.6-5.6
		c0,0,0.1,0,0.1,0s0,0.1,0,0.1c-4.8,4.6-10.9,7.4-17.2,9.1c-7.3,1.9-14.8,3.2-22.3,3.9c-4.7,0.4-9.4,0.5-14,0.4
		c-0.1-0.1-0.2-0.2-0.1-0.3C529.6,322.1,529.6,322.1,529.7,322.1z"/>
	<path class="st10" d="M545.2,198.7c-6.5,14.8-28.4,36.9-35.8,39.3c-9,2.9-30.6-11.1-39.1-19.7c-3.5-3.5,9-20.9,14.9-20.5
		c3.3,0.2,21,15.7,23.7,14.4c6.4-3.2,15.2-9.5,27.8-18C543.4,189.6,549.2,189.5,545.2,198.7z"/>
	<path class="st10" d="M492.6,202.8c0,0-4.2-6.4-6.6-8.8s-14.9-7.9-16.2-5.3c-1.7,3.4,4.8,8,8.3,9.8c0,0-4,7.8-0.1,12.1
		S492.6,202.8,492.6,202.8z"/>
	<path class="st10" d="M472.9,220.6c-2.6-1.3-14.2-8.1-16.9-10.8s-10.2-10.8-8.4-13.1s4.2-0.1,4.2-0.1s-2.6-3.9-0.6-6.1
		s5.6,1.4,5.6,1.4s-2.4-4.2-0.2-6.3s5.2,2.1,5.2,2.1s-2.4-3.8,0.1-4.7c3-1.1,6.6,6.3,9.9,9c0.8,0.6,16,11.2,16,11.2L472.9,220.6z"/>
	<path class="st7" d="M461.4,187.3c2.6,5.5,4.7,7.4,9.8,10.6c0.1,0.1,0,0.2-0.1,0.2c-5.2-2.7-8.2-4.7-10-10.6
		C461.1,187.1,461.3,187.1,461.4,187.3z"/>
	<path class="st7" d="M456.5,191.4c3.2,5.4,5.5,7.6,10.5,11.3c0.1,0.1,0,0.2-0.1,0.1c-5.3-3.2-8.2-5.4-10.7-11.2
		C456.2,191.3,456.4,191.1,456.5,191.4z"/>
	<path class="st7" d="M452,196.7c3.5,5.1,5.9,7.5,11.3,10.5c0.1,0,0.1,0.1,0,0.2c0,0-0.1,0-0.1,0c-5.8-2.5-8.8-5.5-11.3-10.6
		C451.6,196.5,451.7,196.4,452,196.7z"/>
	<path class="st7" d="M469.6,189.8c0.6,4.2,5.4,6.4,8.6,8.4c0.2,0.1,0.2,0.3,0.1,0.5c0,0,0,0.1-0.1,0.1c-1.5,3.4-2.6,8.6-0.5,11.9
		c0,0,0,0.1,0,0.1c0,0-0.1,0-0.1,0l0,0c-2.7-3.3-2-8.5-0.1-12.1C474,196.7,469.4,194.3,469.6,189.8
		C469.5,189.8,469.6,189.8,469.6,189.8z"/>
	<path class="st8" d="M519.7,203.7l10.8,20.8c0,0,14.8-21.1,17.4-28.6c2.9-8.4-2-8-9.6-4.4S519.7,203.7,519.7,203.7z"/>
	<path class="st7" d="M523.9,202.5c1.7,2.5,5.9,10.6,6.6,11.9c0.4,0.7,1.7,3.6,2.1,4.3c0,0.1-0.1,0.1-0.2,0.1
		c-0.7-1.3-1.6-2.6-2.3-3.9s-5.2-9.5-6.3-12.3C523.7,202.5,523.8,202.5,523.9,202.5C523.8,202.5,523.8,202.5,523.9,202.5z"/>
	<path class="st11" d="M547.9,196c-2.6,7.4-17.4,28.6-17.4,28.6l-5.6-10.7l20.9-24.7C548.6,189.1,549.6,191,547.9,196z"/>
	<path class="st8" d="M591.9,264.6l-62.7,8.7c0.2,1.2-3.3-49.6,8.8-81.5c0.8-2.2,10.4-5.7,15.3-2.3
		C574.8,204.4,592,265.4,591.9,264.6z"/>
	<path class="st11" d="M552.8,189.2l-14.3,2c1.3-1.1,2.8-1.8,4.4-2.2l5.8-0.8C550.1,188.1,551.5,188.5,552.8,189.2z M556.4,192
		l-19.4,2.7c-0.2,0.6-0.4,1.1-0.6,1.7l21.5-3C557.4,192.9,556.9,192.4,556.4,192L556.4,192z M560.6,196.3l-25.2,3.5
		c-0.2,0.6-0.3,1.1-0.5,1.7l26.9-3.7C561.4,197.3,561,196.8,560.6,196.3L560.6,196.3z M564,200.8l-30,4.1l-0.4,1.7l31.4-4.3
		C564.7,201.8,564.4,201.3,564,200.8L564,200.8z M567,205.3l-34,4.7c-0.1,0.6-0.2,1.1-0.3,1.7l35.3-4.9L567,205.3z M569.8,209.9
		l-37.8,5.2c-0.1,0.6-0.2,1.1-0.3,1.7l38.8-5.4C570.3,210.9,570.1,210.4,569.8,209.9L569.8,209.9z M572.3,214.5l-41,5.6
		c-0.1,0.6-0.2,1.1-0.2,1.7l42-5.8C572.8,215.5,572.5,215,572.3,214.5L572.3,214.5z M574.6,219.1l-44,6.1c-0.1,0.6-0.1,1.1-0.2,1.7
		l44.9-6.2C575.1,220.2,574.8,219.7,574.6,219.1L574.6,219.1z M576.8,223.8l-46.7,6.4c-0.1,0.6-0.1,1.1-0.2,1.7l47.5-6.6
		L576.8,223.8z M578.8,228.5l-49.2,6.8l-0.1,1.7l49.9-6.9C579.3,229.5,579.1,229,578.8,228.5L578.8,228.5z M580.8,233.1l-51.5,7.1
		c0,0.6,0,1.1-0.1,1.6l52.2-7.2L580.8,233.1z M582.7,237.8l-53.6,7.4c0,0.6,0,1.1-0.1,1.6l54.2-7.5
		C583.1,238.9,582.9,238.4,582.7,237.8L582.7,237.8z M584.5,242.5l-55.5,7.7c0,0.6,0,1.1,0,1.6l56.1-7.8L584.5,242.5z M586.2,247.2
		l-57.3,7.9c0,0.6,0,1.1,0,1.6l57.9-8C586.6,248.3,586.4,247.8,586.2,247.2L586.2,247.2z M587.9,252l-59,8.1c0,0.6,0,1.1,0,1.6
		l59.5-8.2L587.9,252z M589.4,256.7l-60.5,8.3c0,0.6,0,1.1,0,1.6l61-8.4L589.4,256.7z M591,261.4l-61.9,8.6c0,0.6,0,1.2,0.1,1.6
		l62.3-8.6C591.3,262.6,591.1,262,591,261.4L591,261.4z"/>
	<path class="st10" d="M541.3,200c3.1,0.3,8.8-4.1,10.4-8.7c0.1-0.3-0.9-3.2-1.9-6.9c-0.6-2.2-1.2-4.6-1.6-6.9
		c-0.1-0.5-13.7,6-13.7,6c1.3,2.7,2.4,5.6,3,8.5c0,0.3,0.1,0.6,0.1,0.9v0.2C537.5,195,538,199.7,541.3,200z"/>
	<path class="st7" d="M537.4,193c0,0.1,0,0.1,0,0.2c0.5,0,1-0.1,1.5-0.2c8.4-1.7,8.7-12.6,8.7-15.4c-2.5,0.8-13.2,5.9-13.2,5.9
		c1.3,2.7,2.4,5.6,3,8.5C537.4,192.4,537.5,192.7,537.4,193z"/>
	<path class="st10" d="M547.6,159.3c2.3,4.9,1.8,20-1.4,23.8c-4.6,5.5-13.1,7.2-18.1,1.5c-4.8-5.6-3.8-25.3-0.1-28.9
		C533.3,150.5,544.2,152.1,547.6,159.3z"/>
	<path class="st7" d="M534.5,170.2C534.5,170.2,534.6,170.2,534.5,170.2c0,1.1,0.1,2.3,1,2.6c0,0,0,0.1,0,0.1
		C534.4,172.7,534.3,171.1,534.5,170.2z"/>
	<path class="st7" d="M535.5,169.2c1.7-0.1,1.7,3.2,0.2,3.3S534.1,169.2,535.5,169.2z"/>
	<path class="st7" d="M528.6,170.4C528.6,170.4,528.5,170.5,528.6,170.4c-0.1,1.1-0.2,2.3-1.1,2.6 M527.5,173.1
		c1.1-0.2,1.3-1.7,1.1-2.7L527.5,173.1z"/>
	<path class="st7" d="M527.7,169.4c-1.6-0.1-1.7,3.2-0.2,3.3S529.1,169.4,527.7,169.4z"/>
	<path class="st7" d="M536.8,167.6c-0.4-0.1-0.9-0.3-1.3-0.4c-0.5-0.1-0.9-0.3-1.2-0.7c-0.2-0.3-0.1-0.6,0.1-0.9
		c0.5-0.4,1.2-0.4,1.7-0.2c0.6,0.2,1.1,0.6,1.5,1.1c0.2,0.4,0.1,0.8-0.3,1C537.1,167.7,536.9,167.7,536.8,167.6z"/>
	<path class="st7" d="M526.4,167.7c0.5-0.1,0.9-0.2,1.3-0.4c0.5-0.1,0.9-0.3,1.3-0.6c0.2-0.3,0.2-0.6,0-0.9
		c-0.5-0.4-1.1-0.5-1.7-0.3c-0.6,0.1-1.2,0.5-1.5,1c-0.2,0.3-0.1,0.8,0.2,1C526.1,167.7,526.2,167.7,526.4,167.7z"/>
	<path class="st7" d="M535.5,179.7c-0.2,0.2-0.5,0.6-0.8,0.6c-0.4,0-0.8-0.1-1.1-0.2l0,0c0.3,0.4,0.8,0.6,1.3,0.6
		c0.4-0.1,0.7-0.5,0.8-0.9C535.7,179.6,535.6,179.6,535.5,179.7z"/>
	<path class="st7" d="M534.4,176.6c-0.5,0.8-1.4,1.4-2.3,1.6c-0.4,0.1-0.8,0.1-1.2,0.1h-0.2h-0.2c-0.1,0-0.2-0.1-0.2-0.2l0,0
		c0,0,0-0.1,0-0.1l0,0v-0.1c0-0.8,0-2,0-2c-0.3,0.1-1.7,0.8-1.7,0.4c0.1-3.5,0.5-7.1,1.3-10.5c0-0.1,0.2-0.1,0.2,0
		c0,3.3-0.7,6.5-0.8,9.8c0.5-0.2,1.1-0.4,1.6-0.5c0.1,0-0.2,2.3-0.1,2.7l0,0c1.3,0.1,2.6-0.3,3.6-1.1
		C534.4,176.5,534.5,176.5,534.4,176.6z"/>
	<path class="st7" d="M531.3,177.8c0.4,0.6,1,1,1.7,1.3c0.4,0.1,0.8,0.2,1.1,0.1c0.8-0.2,0.8-1,0.7-1.6c-0.1-0.3-0.2-0.7-0.4-1
		C533.6,177.3,532.5,177.8,531.3,177.8z"/>
	<path class="st12" d="M533,179.1c0.4,0.1,0.8,0.2,1.1,0.1c0.8-0.2,0.8-1,0.7-1.6C533.9,177.6,533.2,178.2,533,179.1z"/>
	<path class="st7" d="M525.9,160.8c0.5-1.3,1.2-2.6,2-2.9s1.3,1.6,3.1,1.7c2.4,0.1,3.5-2.1,6.9-2.3c4.8-0.4,7,3.6,7.1,10.4
		c0.2,6.1,3.8,6.6,3.8,6.6s2.1-13.5-1.7-17.9s-12.5-6.3-18.3-2C526.6,156.1,525.9,160.8,525.9,160.8z"/>
	<path class="st10" d="M545.7,172c0,0,2.8-5.2,5.1-4.3s0.7,8.2-1.8,9.4c-1.2,0.7-2.8,0.4-3.6-0.9c0,0,0-0.1-0.1-0.1L545.7,172z"/>
	<path class="st7" d="M550.2,169.8C550.2,169.8,550.2,169.8,550.2,169.8c-1.7,1-2.4,2.8-2.9,4.6c0.3-0.7,1.2-1.1,1.9-0.8
		c0.1,0,0.1,0.1,0.2,0.1c0,0,0,0.1,0,0.1c-0.7-0.1-1.3,0.2-1.7,0.8c-0.3,0.5-0.5,1-0.7,1.5c-0.1,0.2-0.4,0.1-0.3-0.1l0,0
		C546.4,173.7,547.8,170.3,550.2,169.8z"/>
	<path class="st8" d="M532.7,152.2c1.8-1,3.8-1.8,5.9-2.2c2.3-0.4,9.7-0.4,11.5,1s2.8,8.2,2.9,9.2s0.1,7.1-2,8.8s-3-8.7-6.7-11.9
		S532.7,152.2,532.7,152.2z"/>
	<path class="st11" d="M532.7,152.2c0,0,7.8,1.6,11.5,4.9s4.6,13.6,6.7,11.9c0.9-0.7,1.3-1.7,1.6-3.4c-0.7-3-2.2-7.6-4.9-10.7
		c-2.6-2.9-6.7-4.2-11.1-4.4C535.1,151,533.9,151.5,532.7,152.2z"/>
	<path class="st8" d="M550.7,175.2c-0.4-2.8-3.7-10-6.9-14s-12-6-13.3-5.8c-2.9,0.4-3.5,1.8-4,1.6s2.2-3.8,3-4.3
		c1.2-0.7,2.6-1.2,4-1.3c1.3,0,9.2,0.2,12.3,3.4s7.8,12.3,7.2,14.8c-0.1,0.6-0.9,1-1.1,1.9c-0.3,1.1-0.4,2.4-0.7,3.1
		S550.7,175.4,550.7,175.2z"/>
	<path class="st7" d="M543,159.3c0.6-0.5,1.3-1,1.8-1.5c0.6-0.6,1.1-1.2,1.5-1.9c0,0,0.1,0,0.1,0c-0.4,0.8-0.8,1.4-1.4,2.1
		C544.4,158.6,543.8,159.1,543,159.3C543,159.5,542.9,159.4,543,159.3z"/>
	<path class="st7" d="M550.5,172.4c0.1-0.2,0.2-0.4,0.3-0.6c0.1-0.2,0.2-0.5,0.2-0.7c0-0.5,0.1-0.9,0.2-1.4c0.2-0.4,0.4-0.7,0.6-1
		c0.3-0.3,0.5-0.7,0.5-1.2c0-0.1,0.1-0.1,0.1,0c-0.1,0.8-0.3,1.5-0.8,2.2c-0.1,0.5-0.2,1-0.3,1.5c-0.1,0.5-0.3,0.9-0.7,1.2
		C550.7,172.5,550.5,172.5,550.5,172.4z"/>
	<path class="st7" d="M549.4,169.5c0.2-0.3,0.5-0.6,0.7-1c0.2-0.3,0.4-0.7,0.5-1.1c0.2-0.4,0.3-0.7,0.4-1.1s0.4-0.9,0.5-1.3
		c0-0.1,0.1,0,0.1,0c-0.2,0.5-0.2,0.9-0.4,1.4c-0.1,0.4-0.3,0.8-0.5,1.2c-0.2,0.3-0.4,0.7-0.6,1C550,168.9,549.7,169.2,549.4,169.5
		C549.4,169.4,549.4,169.5,549.4,169.5z"/>
	<path class="st7" d="M548.2,166.9c0.5-0.5,1-1.1,1.4-1.8c0.4-0.6,0.7-1.3,1-2c0,0,0.1,0,0.1,0c-0.2,0.8-0.5,1.5-0.8,2.2
		c-0.2,0.3-0.4,0.6-0.7,0.9C548.9,166.4,548.6,166.7,548.2,166.9C548.2,166.9,548.2,166.9,548.2,166.9z"/>
	<path class="st7" d="M546.9,164.4c0.3-0.2,0.5-0.5,0.7-0.8c0.2-0.3,0.4-0.7,0.6-1s0.4-0.6,0.6-1c0.2-0.3,0.4-0.7,0.4-1.1
		 M549.4,160.5c0,0.4-0.1,0.8-0.2,1.1c-0.1,0.4-0.3,0.8-0.5,1.1c-0.2,0.3-0.5,0.7-0.7,1c-0.2,0.3-0.5,0.5-0.8,0.7
		c-0.1,0.1-0.1,0-0.1-0.1L549.4,160.5z"/>
	<path class="st7" d="M545.9,161.1c0.2-0.3,0.5-0.5,0.7-0.8s0.4-0.6,0.6-0.9s0.4-0.6,0.6-1 M547.9,158.4c-0.1,0.3-0.3,0.7-0.5,1
		c-0.2,0.3-0.4,0.6-0.6,0.9c-0.2,0.3-0.5,0.6-0.7,0.9c-0.2,0.3-0.5,0.5-0.8,0.7c0,0-0.1,0-0.1-0.1c0.2-0.2,0.4-0.5,0.7-0.7
		L547.9,158.4z"/>
	<path class="st7" d="M540.8,157.9c0.2-0.4,0.5-0.7,0.8-1s0.6-0.6,0.9-1c0.6-0.6,1.3-1.1,2-1.6c0,0,0.1,0,0.1,0.1
		C543.3,155.6,542,156.7,540.8,157.9C540.8,158,540.7,157.9,540.8,157.9z"/>
	<path class="st7" d="M538.9,155.6c0.3-0.3,0.6-0.7,0.9-0.9c0.7-0.6,1.5-1.1,2.3-1.5c0,0,0.1,0,0,0.1c-0.7,0.5-1.4,1-2,1.6
		c-0.3,0.3-0.6,0.6-0.9,0.9c-0.3,0.3-0.5,0.7-0.8,1 M538.3,156.8c0.1-0.4,0.3-0.8,0.6-1.1L538.3,156.8z"/>
	<path class="st7" d="M536.6,154.7c0.2-0.4,0.5-0.7,0.8-1c0.6-0.5,1.2-1,1.9-1.3c0,0,0.1,0.1,0,0.1c-0.6,0.5-1.2,1-1.8,1.5
		c-0.3,0.3-0.5,0.6-0.8,0.9s-0.5,0.6-0.8,0.9c0,0-0.1,0,0,0C536.1,155.4,536.3,155,536.6,154.7z"/>
	<path class="st7" d="M534.8,153.4c0.3-0.3,0.6-0.5,0.8-0.7c0.3-0.2,0.6-0.4,0.9-0.6 M536.6,152.2c-0.5,0.5-1.1,1-1.6,1.5
		c-0.5,0.5-0.9,1-1.2,1.6h0c0.2-0.7,0.5-1.3,1.1-1.8L536.6,152.2z"/>
	<path class="st7" d="M532.7,153.1c0.5-0.5,1.1-1,1.8-1.3c0,0,0.1,0,0,0.1c-0.6,0.4-1.1,0.8-1.6,1.4c-0.5,0.5-0.9,1.1-1.2,1.7
		c0,0-0.1,0-0.1,0C531.8,154.3,532.2,153.7,532.7,153.1z"/>
	<path class="st7" d="M530.1,154.5c0.1-0.1,0.1-0.3,0.2-0.4c0.2-0.3,0.4-0.5,0.6-0.8c0.4-0.5,0.9-0.9,1.5-1.3c0,0,0.1,0,0.1,0.1
		c-0.5,0.4-1,0.8-1.4,1.3c-0.2,0.2-0.4,0.5-0.5,0.8c-0.1,0.1-0.2,0.3-0.2,0.4c-0.1,0.1-0.1,0.3-0.2,0.4H530
		C530,154.8,530,154.7,530.1,154.5z"/>
	<path class="st7" d="M528.4,154.8c0.1-0.2,0.3-0.4,0.5-0.6c0.2-0.2,0.3-0.4,0.5-0.6c0.2-0.2,0.4-0.4,0.6-0.6s0.1,0,0.1,0.1
		c-0.2,0.2-0.4,0.4-0.5,0.6l-0.5,0.6l-0.5,0.6c-0.1,0.2-0.3,0.4-0.5,0.6c0,0-0.1,0-0.1,0C528.1,155.3,528.3,155,528.4,154.8z"/>
	<path class="st10" d="M561.7,201.2c6.2,13.9,20.1,42.4,16.5,53.1c-4.7,14.1-29,29.6-35.4,33.9c-2.8,1.9-16.4-15.6-15.6-19.1
		s25.3-22.5,26.7-24.8s-2.9-26.7-3.8-39.6C548.8,188.4,556.4,189.4,561.7,201.2z"/>
	<path class="st10" d="M520.9,278.6c0.7-1.5-0.1-1.9-2.8-0.6s-12.4,8.9-14.7,5.3s11.4-14,16.1-15.9s13-3.2,13-3.2
		C530.2,266.7,525.3,273.5,520.9,278.6z"/>
	<path class="st10" d="M549.5,282.8c-6.7,7-14.5,16.1-25,19.1c-1.2,0.4-2.4,0.3-3.5-0.1c-4.7,1.4-6.8-0.4-6.8-0.4
		c-4.8,0-6.6-2.1-6.6-2.1s-5.5,1.6-7-1.6c-1.7-3.5,6.4-5.1,10.3-8.7c9-8.2,19.4-22.4,21.7-25L549.5,282.8z"/>
	<path class="st7" d="M526.2,287.1c-2.6,2.4-5.4,4.7-8.3,6.7c-3.3,2.1-6.8,3.9-10.4,5.4c0,0-0.1,0.1,0,0.1c0,0,0,0,0.1,0
		c7.2-2.3,13.7-6.5,18.7-12.2C526.4,287.1,526.3,287,526.2,287.1z"/>
	<path class="st7" d="M531.9,291.8c-2.7,2.1-7.6,5.9-17.8,9.6c0,0,0,0.1,0,0.1c6.7-1.4,12.9-4.7,17.9-9.5
		C532.2,291.8,532.1,291.7,531.9,291.8z"/>
	<path class="st7" d="M535,294.4c-4.8,3.5-8.3,5.1-14,7.4c0,0,0,0.1,0,0.1c6.8-2,9.1-3.5,14.2-7.4
		C535.3,294.4,535.2,294.3,535,294.4z"/>
	<path class="st8" d="M550.7,222.6l23.3,1.1c0,0-10.8-23.2-15.9-29.2c-5.7-6.7-7.9-2.3-8.6,6.1S550.7,222.6,550.7,222.6z"/>
	<path class="st7" d="M551.8,218.4c3-0.3,12,0.2,13.5,0.3c0.8,0,3.9,0.3,4.7,0.3c0.1,0,0.1,0.2,0,0.2c-1.5-0.1-3,0.1-4.5,0
		s-10.7-0.2-13.7-0.7C551.7,218.5,551.7,218.4,551.8,218.4z"/>
	<path class="st7" d="M563.6,203.2c0,0,0-0.1,0-0.1c0,0,0.1,0,0.1,0l0,0c1.1,1.9,2.2,3.8,3.3,5.6c-0.3-1.1-0.7-2.2-1.2-3.2
		c0,0,0-0.1,0.1,0c0.6,1.2,1.1,2.4,1.4,3.7c0.7,1.3,1.5,2.7,2.2,4c1.8,3.4,3.6,6.8,5.2,10.3c0.1,0.1,0,0.3-0.1,0.4c0,0-0.1,0-0.1,0
		c-0.8-0.1-1.6-0.1-2.4-0.3c-0.1,0-0.1-0.1,0-0.1c0.7-0.1,1.3-0.1,2-0.1c-1.8-3.3-3.5-6.6-5.2-9.9S565.2,206.7,563.6,203.2z"/>
	<path class="st7" d="M549.3,212.6c-0.2-1.2-0.5-2.4-0.7-3.6l0,0c0.2,0.9,0.4,1.8,0.6,2.6c-0.1-1.8-0.2-3.6-0.2-5.4l0,0
		c0.4,2.7,0.6,5.4,0.9,8.1s0.6,5.3,0.8,8c0.5,0.1,1,0.2,1.6,0.3c0,0,0.1,0,0.1,0s0,0.1,0,0.1c0,0,0,0-0.1,0c-0.6,0-1.2,0-1.8,0
		c-0.1,0-0.3-0.1-0.3-0.2c0,0,0,0,0,0C549.9,219.4,549.5,216,549.3,212.6z"/>
</g>
<g id="freepik--Lines--inject-18">
	<path class="st7" d="M477.1,164.8c-0.4-1.4-0.5-2.9-0.5-4.4c0-1.5,0.1-3,0.5-4.4C477.8,158.9,477.8,161.9,477.1,164.8L477.1,164.8z
		"/>
	<path class="st7" d="M468.2,167.4c-2-2.2-3.5-4.8-4.4-7.6c1,1.1,1.9,2.3,2.6,3.6C467.2,164.6,467.7,166,468.2,167.4z"/>
	<path class="st7" d="M461.7,174.1c-1.4-0.4-2.8-1-4.1-1.8c-1.3-0.7-2.5-1.6-3.6-2.6c1.4,0.4,2.8,1,4.1,1.8
		C459.4,172.2,460.6,173.1,461.7,174.1z"/>
	<path class="st7" d="M459.4,183.2c-1.4,0.3-2.9,0.5-4.4,0.5c-1.5,0-3-0.2-4.4-0.5c1.4-0.4,2.9-0.5,4.4-0.5
		C456.5,182.7,458,182.9,459.4,183.2z"/>
	<path class="st7" d="M462,192.2c-1.1,1-2.3,1.9-3.6,2.6c-1.3,0.8-2.6,1.3-4.1,1.8c1.1-1,2.3-1.9,3.6-2.6
		C459.2,193.2,460.6,192.6,462,192.2z"/>
	<path class="st7" d="M468.7,198.7c-0.4,1.4-1,2.8-1.8,4.1c-0.7,1.3-1.6,2.5-2.6,3.6c0.4-1.4,1-2.8,1.8-4.1
		C466.8,200.9,467.7,199.7,468.7,198.7z"/>
	<path class="st7" d="M477.8,200.9c0.4,1.4,0.5,2.9,0.5,4.4c0,1.5-0.1,3-0.5,4.4C477.1,206.8,477.1,203.8,477.8,200.9L477.8,200.9z"
		/>
	<path class="st7" d="M486.8,198.3c1,1.1,1.9,2.3,2.6,3.6c0.8,1.3,1.4,2.7,1.8,4.1c-1-1.1-1.9-2.3-2.6-3.6
		C487.8,201.1,487.2,199.8,486.8,198.3z"/>
	<path class="st7" d="M493.3,191.6c1.4,0.4,2.8,1,4.1,1.8c1.3,0.7,2.5,1.6,3.6,2.6C498.1,195.1,495.5,193.6,493.3,191.6z"/>
	<path class="st7" d="M495.5,182.5c2.9-0.7,5.9-0.7,8.8,0c-1.4,0.4-2.9,0.5-4.4,0.5C498.5,183,497,182.9,495.5,182.5z"/>
	<path class="st7" d="M493,173.5c2.2-2,4.8-3.5,7.6-4.4C498.5,171.2,495.8,172.7,493,173.5z"/>
	<path class="st7" d="M486.2,167.1c0.4-1.4,1-2.8,1.8-4.1c0.7-1.3,1.6-2.5,2.6-3.6c-0.4,1.4-1,2.8-1.8,4.1
		C488.1,164.8,487.2,166,486.2,167.1z"/>
</g>
<g id="freepik--Folder--inject-18">
	<rect x="236.4" y="246.2" class="st8" width="247.6" height="179.5"/>
	<polygon class="st8" points="323.9,227.6 236.4,227.6 236.4,246.2 328.9,246.2 	"/>
	<g class="st13">
		<rect x="236.4" y="246.2" width="247.6" height="179.5"/>
		<polygon points="323.9,227.6 236.4,227.6 236.4,246.2 328.9,246.2 		"/>
	</g>
	<path class="st1" d="M435.6,347.6c-48.3-13.8-95.6-27.5-142.1-41c11.7-54.7,44.5-108.3,46.7-163.8c48.3,13,95.5,26.1,142,39.2
		C470.3,237.5,437.6,291.6,435.6,347.6z"/>
	<path class="st2" d="M435.6,347.6c-48.4-13.8-95.6-27.3-142.2-40.8l-0.3-0.1l0-0.3c11.7-54.7,44.4-108.3,46.5-163.8
		c0-0.1,0-0.3,0-0.4l0.5,0.1c48.3,13.1,95.6,26.2,142.1,39.3l0.3,0.1l-0.1,0.3C470.5,237.6,437.7,291.6,435.6,347.6z M435.6,347.6
		c1.9-56,34.6-110.1,46.3-165.8c0.1,0.1,0.2,0.2,0.3,0.4c-46.5-13.1-93.7-26.1-142-39.1l0.5-0.3c-2.3,55.5-35.1,109.1-46.9,163.8
		l-0.2-0.3C340,319.9,387.2,333.7,435.6,347.6z"/>
	<path class="st14" d="M427.9,246c-7.2,19.2-29,29.9-49.3,23.9s-31-26.3-24-45.4s28-30,48.5-24.1S435.2,226.7,427.9,246z"/>
	<path class="st2" d="M391.3,235.2c-8.3,9.5-16.8,19-25,28.5c-12.2-9-17-25-11.6-39.2c6.9-19,28.1-29.9,48.5-24.1
		s31.9,26.5,24.7,45.6C415.7,242.4,403.5,238.8,391.3,235.2z"/>
	<path class="st2" d="M391.3,235.2c7.3,9.8,14.5,19.5,21.8,29.3c-10.1,6.8-22.8,8.7-34.5,5.3c-20.3-6-30.9-26.4-24-45.4
		s28.1-29.9,48.5-24.1s31.9,26.5,24.7,45.6C415.7,242.3,403.5,238.8,391.3,235.2z"/>
	<path class="st8" d="M391.3,235.2l-38.4,6.4c-0.9-5.8-0.3-11.7,1.8-17.1c6.9-19,28.1-29.9,48.5-24.1s31.9,26.5,24.7,45.6
		C415.7,242.3,403.5,238.8,391.3,235.2z"/>
	<path class="st2" d="M351.1,166.8c19.6,5.5,39.1,10.9,58.4,16.4c-0.3,1.4-0.7,2.8-1,4.2c-19.3-5.5-38.7-10.9-58.2-16.4
		C350.5,169.6,350.8,168.2,351.1,166.8z"/>
	<path class="st2" d="M346.6,276.2c25.9,7.6,51.9,15.3,78,23c-0.4,1.4-0.8,2.8-1.1,4.2c-26.2-7.7-52.3-15.4-78.2-23
		C345.7,279,346.2,277.6,346.6,276.2z"/>
	<path class="st2" d="M343.3,286.8c26,7.6,52.2,15.3,78.6,23.1c-0.3,1.4-0.7,2.8-1,4.2c-26.5-7.7-52.8-15.4-78.9-23.1
		C342.4,289.6,342.8,288.2,343.3,286.8z"/>
	<path class="st2" d="M340.2,297.4c26.2,7.7,52.7,15.4,79.4,23.2c-0.3,1.4-0.5,2.8-0.7,4.3c-26.8-7.8-53.4-15.5-79.7-23.2
		C339.5,300.2,339.9,298.8,340.2,297.4z"/>
	<path class="st8" d="M331.4,276.3l-9.4-2.8c0.5-1.4,1-2.8,1.4-4.2l9.4,2.8C332.3,273.5,331.8,274.9,331.4,276.3z"/>
	<path class="st14" d="M328,286.9l-9.5-2.8c0.4-1.4,0.9-2.8,1.3-4.2l9.4,2.8C328.9,284.1,328.4,285.5,328,286.9z"/>
	<path class="st2" d="M325,297.5l-9.5-2.8c0.4-1.4,0.8-2.8,1.2-4.2l9.5,2.8C325.8,294.7,325.4,296.1,325,297.5z"/>
	<path class="st8" d="M480.3,222.4c-0.5,63.9-1.1,127-1.8,189.5c-78.3,4.6-161.7-21.9-238.5-7.4c0.5-63.9,1.1-127,1.8-189.5
		C320.2,210.3,403.6,236.8,480.3,222.4z"/>
	<path class="st15" d="M480.3,222.4c-0.5,63.9-1.1,127-1.8,189.5c-78.3,4.6-161.7-21.9-238.5-7.4c0.5-63.9,1.1-127,1.8-189.5
		C320.2,210.3,403.6,236.8,480.3,222.4z"/>
	<path class="st2" d="M274.7,383.1c0.4-34.7,0.8-69.2,1.3-103.5c2,0,4,0,6.1,0.1c-0.5,34.3-0.9,68.6-1.4,103.2
		C278.8,383,276.8,383,274.7,383.1z"/>
	<path class="st2" d="M290.1,382.8c0.5-34.4,0.9-68.6,1.4-102.8c2,0.1,4.1,0.2,6.1,0.3c-0.5,34.1-1,68.2-1.5,102.5
		C294.1,382.9,292.1,382.8,290.1,382.8z"/>
	<path class="st2" d="M305.5,383.2c0.5-34.2,1-68.2,1.5-102.2l6.2,0.5c-0.5,33.9-1,67.9-1.5,102
		C309.6,383.4,307.6,383.3,305.5,383.2z"/>
	<path class="st2" d="M321,384c0.8-49.8,1.5-99.4,2.4-148.9l6.2,0.6c-0.8,49.5-1.6,99.1-2.4,148.7C325.1,384.4,323.1,384.2,321,384z
		"/>
	<path class="st2" d="M336.6,385.3c0.8-49.6,1.6-99.1,2.4-148.5l6.2,0.7c-0.8,49.4-1.6,98.9-2.4,148.4
		C340.7,385.7,338.7,385.5,336.6,385.3z"/>
	<path class="st2" d="M352.2,386.8c0.8-49.5,1.6-98.9,2.4-148.3l6.2,0.7c-0.8,49.5-1.6,98.9-2.5,148.3L352.2,386.8z"/>
	<path class="st2" d="M367.9,388.5c0.8-49.4,1.6-98.9,2.4-148.4l6.2,0.6c-0.8,49.5-1.6,99-2.4,148.4L367.9,388.5z"/>
	<path class="st2" d="M383.5,390.2c0.8-49.4,1.6-99,2.4-148.6c2.1,0.2,4.1,0.4,6.2,0.5c-0.8,49.7-1.6,99.3-2.4,148.7
		C387.7,390.7,385.6,390.4,383.5,390.2z"/>
	<path class="st2" d="M399.2,391.8c0.8-49.5,1.6-99.2,2.3-149c2,0.1,4.1,0.3,6.1,0.4c-0.7,49.9-1.5,99.7-2.3,149.2L399.2,391.8z"/>
	<path class="st2" d="M414.8,393.3c0.8-49.7,1.5-99.5,2.2-149.6c2,0.1,4.1,0.1,6.1,0.2c-0.7,50.2-1.4,100.2-2.2,149.9L414.8,393.3z"
		/>
	<path class="st2" d="M430.3,394.4c0.7-49.9,1.4-100,2.1-150.4c2,0,4,0,6.1-0.1c-0.6,50.6-1.3,100.8-2,150.8
		C434.4,394.6,432.4,394.5,430.3,394.4z"/>
	<path class="st2" d="M445.8,395c0.7-50.2,1.3-100.7,1.9-151.5c2-0.1,4-0.2,6-0.4c-0.6,51-1.2,101.6-1.9,151.9
		C449.9,395.1,447.9,395.1,445.8,395z"/>
	<rect x="243.6" y="228.4" class="st1" width="231.8" height="180.5"/>
	<path class="st2" d="M475.3,228.4l0.3,180.6v0.3h-0.3l-231.8,0.2h-0.5V409l0.1-180.5v-0.4h0.4L475.3,228.4z M475.3,228.4
		l-231.8,0.4l0.4-0.4L244,409l-0.5-0.5l231.8,0.2L475,409L475.3,228.4z"/>
	<polygon class="st3" points="293.1,389.2 292.9,318.7 293.1,248.2 293.3,318.7 	"/>
	<polygon class="st3" points="298.8,389.2 298.7,318.7 298.8,248.2 299,318.7 	"/>
	<polygon class="st3" points="304.6,389.2 304.4,318.7 304.6,248.2 304.8,318.7 	"/>
	<polygon class="st3" points="310.3,389.2 310.2,318.7 310.3,248.2 310.5,318.7 	"/>
	<polygon class="st3" points="316.1,389.2 315.9,318.7 316.1,248.2 316.3,318.7 	"/>
	<polygon class="st3" points="321.8,389.2 321.7,318.7 321.8,248.2 322,318.7 	"/>
	<polygon class="st3" points="327.6,389.2 327.4,318.7 327.6,248.2 327.8,318.7 	"/>
	<polygon class="st3" points="333.4,389.2 333.2,318.7 333.4,248.2 333.5,318.7 	"/>
	<polygon class="st3" points="339.1,389.2 338.9,318.7 339.1,248.2 339.3,318.7 	"/>
	<polygon class="st3" points="344.9,389.2 344.7,318.7 344.9,248.2 345,318.7 	"/>
	<polygon class="st3" points="350.6,389.2 350.4,318.7 350.6,248.2 350.8,318.7 	"/>
	<polygon class="st3" points="356.4,389.2 356.2,318.7 356.4,248.2 356.5,318.7 	"/>
	<polygon class="st3" points="362.1,389.2 361.9,318.7 362.1,248.2 362.3,318.7 	"/>
	<polygon class="st3" points="367.9,389.2 367.7,318.7 367.9,248.2 368,318.7 	"/>
	<polygon class="st3" points="373.6,389.2 373.4,318.7 373.6,248.2 373.8,318.7 	"/>
	<rect x="356.2" y="363.6" class="st8" width="24.1" height="10.7"/>
	<rect x="343.3" y="343.8" class="st8" width="37" height="10.7"/>
	<rect x="328.9" y="323.9" class="st8" width="51.4" height="10.7"/>
	<rect x="322.7" y="304.1" class="st8" width="57.6" height="10.7"/>
	<rect x="311.7" y="284.2" class="st8" width="68.7" height="10.7"/>
	<rect x="300.8" y="264.4" class="st8" width="79.6" height="10.7"/>
	<path class="st3" d="M289,385.4l22.8-0.3l22.8-0.2c15.2-0.1,30.4-0.2,45.6-0.2l-0.7,0.7v-34.3l0.1-34.3l0.2-34.3l0.4-34.3l0.4,34.3
		l0.2,34.3l0.1,34.3v34.3v0.7h-0.7c-15.2,0-30.4-0.1-45.6-0.2l-22.8-0.2L289,385.4z"/>
	<rect x="385.1" y="363.6" class="st3" width="1" height="10.7"/>
	<rect x="385.1" y="343.8" class="st3" width="1" height="10.7"/>
	<rect x="385.1" y="323.9" class="st3" width="1" height="10.7"/>
	<rect x="385.1" y="304.1" class="st3" width="1" height="10.7"/>
	<rect x="385.1" y="284.2" class="st3" width="1" height="10.7"/>
	<rect x="385.1" y="264.4" class="st3" width="1" height="10.7"/>
	<path class="st7" d="M359.2,373.1c-0.1-5.2-0.5-10.4-1.2-15.6c-0.7-5.2-1.6-10.3-2.8-15.4c-2.3-10.2-5.8-20-10.4-29.4
		c-4.5-9.4-10.4-18-17.5-25.7l-1.3-1.4l-1.4-1.4l-2.8-2.7c-2-1.7-3.9-3.5-6-5c-4.1-3.2-8.5-6.2-13-8.8l0-0.1
		c14.2,7.1,26.3,17.7,35.2,30.8c3,4.3,5.7,8.9,8,13.6c4.6,9.5,8,19.5,10.1,29.8C358.6,352.1,359.5,362.6,359.2,373.1z"/>
	<polygon class="st7" points="310.4,264.7 310.8,266.1 303.5,268 305.9,275.1 304.4,275.6 301.5,266.9 	"/>
	<rect x="416.2" y="245.2" class="st2" width="6" height="147.1"/>
	<rect x="431.2" y="309.4" class="st2" width="6" height="82.8"/>
	<rect x="269.2" y="277.3" class="st2" width="6" height="82.8"/>
	<polygon class="st8" points="518,237.2 518,417.7 286.2,417.6 286.3,283.6 330.4,237.1 	"/>
	<polygon class="st16" points="518,237.2 518,417.7 286.2,417.6 286.3,283.6 330.4,237.1 	"/>
	<polygon class="st8" points="286.3,283.6 330.4,237.1 330.4,283.6 	"/>
	<polygon class="st17" points="286.3,283.6 330.4,237.1 330.4,283.6 	"/>
	<rect x="325.1" y="299.6" class="st5" width="6" height="100.4"/>
	<rect x="340.1" y="299.6" class="st5" width="6" height="100.4"/>
	<rect x="355.2" y="299.6" class="st5" width="6" height="100.4"/>
	<rect x="370.2" y="253" class="st5" width="6" height="147.1"/>
	<rect x="385.2" y="253" class="st5" width="6" height="147.1"/>
	<rect x="400.2" y="253" class="st5" width="6" height="147.1"/>
	<rect x="415.3" y="253" class="st5" width="6" height="147.1"/>
	<rect x="430.3" y="253" class="st5" width="6" height="147.1"/>
	<rect x="445.3" y="253" class="st5" width="6" height="147.1"/>
	<rect x="460.3" y="253" class="st5" width="6" height="147.1"/>
	<rect x="475.3" y="253" class="st5" width="6" height="147.1"/>
	<rect x="490.4" y="253" class="st5" width="6" height="147.1"/>
	<polygon class="st8" points="483.3,425.7 235.7,425.7 216.6,261.1 464.2,261.1 	"/>
	<polygon class="st8" points="302.1,244.1 214.7,244.1 216.6,261.1 309.1,261.1 	"/>
</g>
<g id="freepik--character-1--inject-18">
	<path class="st18" d="M264.7,447.7c-2.3,0.7-66.8,0.2-69.2-1.4c-0.9-0.6-1.4-10-1.6-21.4c-0.1-2.5-0.1-5-0.1-7.6l-4.8-34.5
		l43.1,0.3l3.6,34.5l-0.3,7.6c0,0,24.6,11.3,27.1,13.3S267,447,264.7,447.7z"/>
	<path class="st5" d="M264.7,447.7c-2.3,0.7-66.8,0.2-69.2-1.4c-1.1-0.7-1.6-14.5-1.8-29l42,0.2l-0.3,7.6c0,0,24.6,11.3,27.1,13.3
		S267,447,264.7,447.7z"/>
	<path class="st8" d="M264.7,447.7c-2.3,0.7-66.8,0.2-69.2-1.4c-0.9-0.6-1.4-10-1.6-21.4l41.6,0.2c0,0,24.6,11.3,27.1,13.3
		S267,447,264.7,447.7z"/>
	<path class="st7" d="M263.8,445.1c-10.8-0.4-54.5-0.8-65.2-0.3c-0.1,0-0.1,0.1,0,0.1c10.7,0.6,54.4,0.7,65.2,0.4
		C264,445.3,264,445.1,263.8,445.1z"/>
	<path class="st7" d="M258.4,436.1c-2.4-0.1-4.8,0.8-6.5,2.6c-1.5,1.5-2.4,3.6-2.5,5.8c0,0.1,0.1,0.1,0.1,0c0.8-4.4,4.4-7.7,8.8-8.2
		C258.4,436.2,258.5,436.2,258.4,436.1C258.4,436.1,258.4,436.1,258.4,436.1z"/>
	<path class="st7" d="M239.6,426.3c-4.3-0.1-9.4,1.4-12.1,4.9c-0.1,0.1,0.1,0.3,0.2,0.2c3.8-1.9,7.8-3.5,11.9-4.6
		c0.1,0,0.2-0.2,0.2-0.3C239.8,426.4,239.7,426.3,239.6,426.3z"/>
	<path class="st7" d="M243,427.6c-4.3-0.1-9.4,1.4-12.1,4.9c-0.1,0.1,0.1,0.3,0.2,0.2c3.8-2,7.8-3.5,11.9-4.6c0.1,0,0.2-0.2,0.2-0.3
		C243.2,427.7,243.1,427.6,243,427.6z"/>
	<path class="st7" d="M246.3,428.9c-4.3-0.1-9.4,1.4-12.1,4.9c-0.1,0.1,0.1,0.3,0.2,0.2c3.8-2,7.8-3.5,11.9-4.6
		c0.1,0,0.2-0.2,0.2-0.3C246.5,429,246.4,428.9,246.3,428.9z"/>
	<path class="st7" d="M249.6,430.3c-4.3-0.1-9.4,1.4-12.1,4.9c-0.1,0.1,0.1,0.3,0.2,0.2c3.8-1.9,7.8-3.5,11.9-4.6
		c0.1,0,0.2-0.2,0.2-0.3C249.8,430.4,249.7,430.3,249.6,430.3z"/>
	<path class="st7" d="M201.5,434.5c-4.9,0-4.9,7.5-0.1,7.5S206.3,434.6,201.5,434.5z"/>
	<path class="st7" d="M244.4,414.8c-2.2-1.8-5-0.1-6.3,1.8c-2.3,3.3-3.7,7-4,11c0,0.1,0,0.1,0.1,0.1c0,0,0,0,0,0
		c0.1,0.3,0.3,0.5,0.6,0.4c0.1,0,0.1,0,0.2-0.1c3.1-2.1,6.7-4,9-7C245.4,419.4,246.5,416.5,244.4,414.8z M239,423.9
		c-1.5,1.1-3,2.1-4.5,3.2c0.7-2.2,1.6-4.3,2.5-6.4c0.5-1,1-2,1.6-2.9c0.9-1.4,5.2-5,5.6-0.3C244.4,420.1,240.8,422.6,239,423.9z"/>
	<path class="st7" d="M223.3,429.1c3.8,0.6,7.7-0.4,11.4-1c0.3-0.1,0.5-0.4,0.4-0.7c0,0,0-0.1-0.1-0.1c0,0,0.1-0.1,0-0.2
		c0,0,0,0,0,0c-2.9-2.7-6.5-4.6-10.4-5.4c-2.3-0.5-5.5,0.1-5.9,3S221.1,428.7,223.3,429.1z M220.7,426.6c-2.9-3.7,2.7-4,4.4-3.6
		c1.1,0.3,2.1,0.6,3.1,1.1c2.1,0.9,4.1,2,6.1,3c-1.8,0.2-3.6,0.5-5.5,0.7C226.7,428.1,222.3,428.7,220.7,426.6L220.7,426.6z"/>
	<path class="st14" d="M127.5,223c0,0,49,85.8,50.3,91.8c2,9.2,11.8,100.1,11.8,100.1l48.3-0.3c0,0-8-80.2-16.2-106.6
		c-4.5-14.5-28-53.6-39-73c-1-1.7-0.7-9.6-0.7-9.6L127.5,223z"/>
	<path class="st7" d="M233.2,406.6c-7.5-0.1-30.1-0.8-40.1,0c-0.1,0-0.1,0.1,0,0.1c3.4,0.5,32.6,0.2,40.1,0c0,0,0.1,0,0.1,0
		c0,0,0-0.1,0-0.1C233.3,406.6,233.2,406.6,233.2,406.6C233.2,406.6,233.2,406.6,233.2,406.6z"/>
	<path class="st7" d="M135.9,230.9c3.2,5.2,6.6,10.3,9.9,15.4s6.6,10.3,9.8,15.5c6.5,10.4,12.8,20.8,19,31.4c3,4.9,5.5,10,7.6,15.3
		c1.9,5.3,3.3,10.8,4.2,16.4c0.9,5.6,1.6,11.3,2.1,16.9c0.6,6,1.2,12,1.8,18.1c1.2,12.3,2.4,24.7,3.7,37c0.1,1.5,0.3,3,0.4,4.5
		c0,0.2-0.4,0.3-0.4,0c-1.4-12.2-2.5-24.5-3.8-36.8l-1.9-18.3c-0.6-5.7-1.1-11.4-1.9-17c-0.8-5.6-2-11.1-3.5-16.5
		c-1.7-5.6-4.1-10.9-7-16c-5.9-10.5-12.2-20.8-18.4-31.1s-12.7-20.7-19.3-30.9c-0.8-1.3-1.6-2.5-2.5-3.8
		C135.7,230.9,135.9,230.8,135.9,230.9z"/>
	<path class="st18" d="M146.9,451.2c-2.4-0.2-63.4-25.8-65.1-28.2c-0.1-0.1-0.1-0.3-0.1-0.5c0-2.1,4.4-9.5,8-19.1
		c0.2-0.6,1.8-3.5,4.1-7.3c6.2-10.6,17.1-28.7,17.1-28.7l39.9,16.4l-19.6,28.5l-3.1,6.9c0,0,18.6,19.7,20.1,22.5
		S149.2,451.4,146.9,451.2z"/>
	<path class="st5" d="M146.9,451.2c-2.4-0.2-63.4-25.8-65.1-28.2c-0.1-0.1-0.1-0.3-0.1-0.5c0-2.1,4.4-9.5,8-19.1
		c0.2-0.6,1.8-3.5,4.1-7.3l37.4,16.2l-3.1,6.9c0,0,18.6,19.7,20.1,22.5S149.2,451.4,146.9,451.2z"/>
	<path class="st8" d="M146.9,451.2c-2.4-0.2-63.4-25.8-65.1-28.2c-0.6-0.9,2.2-9.2,8-19.5l38.5,15.8c0,0,18.6,19.7,20.1,22.5
		S149.2,451.4,146.9,451.2z"/>
	<path class="st7" d="M147,448.5c-9.9-4.4-50.2-21.2-60.3-24.8c-0.1,0-0.1,0,0,0.1c9.7,4.6,50.1,21,60.3,24.9
		C147.2,448.7,147.2,448.5,147,448.5z"/>
	<path class="st7" d="M145.4,438.1c-2.2-1-4.8-1-7,0c-2,0.8-3.6,2.4-4.4,4.4c0,0.1,0.1,0.1,0.1,0c2.4-3.8,7-5.5,11.3-4.3
		c0,0,0.1,0,0.1-0.1C145.5,438.1,145.4,438.1,145.4,438.1L145.4,438.1z"/>
	<path class="st7" d="M131.7,421.9c-4-1.7-9.2-2.2-13,0c-0.2,0.1,0,0.3,0.1,0.3c4.3-0.4,8.5-0.3,12.8,0.2c0.1,0,0.3-0.1,0.2-0.3
		C131.8,422.1,131.8,422,131.7,421.9z"/>
	<path class="st7" d="M134.3,424.4c-4-1.7-9.2-2.2-13,0c-0.2,0.1,0,0.3,0.1,0.3c4.3-0.4,8.5-0.3,12.8,0.2c0.1,0,0.3-0.1,0.2-0.3
		C134.4,424.5,134.3,424.5,134.3,424.4z"/>
	<path class="st7" d="M136.8,426.9c-4-1.7-9.2-2.2-13,0c-0.2,0.1,0,0.3,0.1,0.3c4.3-0.4,8.5-0.3,12.8,0.2c0.1,0,0.3-0.2,0.2-0.3
		C137,427,136.9,426.9,136.8,426.9z"/>
	<path class="st7" d="M139.4,429.4c-4-1.7-9.2-2.2-13,0c-0.2,0.1,0,0.3,0.1,0.3c4.3-0.4,8.5-0.3,12.8,0.2c0.1,0,0.3-0.2,0.2-0.3
		C139.6,429.5,139.5,429.4,139.4,429.4z"/>
	<path class="st7" d="M93.2,415.3c-4.5-1.8-7.4,5.1-2.9,7S97.7,417.1,93.2,415.3z"/>
	<path class="st7" d="M140.4,413c-1.3-2.5-4.6-1.9-6.5-0.7c-3.3,2.2-6.1,5.2-7.9,8.7c0,0.1,0,0.1,0,0.1c0,0,0,0,0,0
		c-0.1,0.3,0.1,0.6,0.4,0.6c0.1,0,0.1,0,0.2,0c3.7-0.8,7.7-1.2,11-3.1C139.6,417.7,141.7,415.4,140.4,413z M132,419.5
		c-1.8,0.4-3.6,0.8-5.4,1.3c1.5-1.7,3-3.5,4.7-5c0.8-0.8,1.7-1.4,2.6-2.1c1.4-1,6.7-2.7,5.3,1.8C138.4,418,134.1,419,132,419.5z"/>
	<path class="st7" d="M115.5,418.4c3.3,2,7.3,2.5,10.9,3.4c0.4,0.1,0.6-0.3,0.6-0.6c0.1,0,0.1-0.1,0.1-0.1c0,0,0,0,0,0
		c-1.7-3.6-4.4-6.7-7.6-8.9c-1.9-1.3-5.2-2-6.5,0.5S113.6,417.3,115.5,418.4z M114,415.1c-1.3-4.6,4-2.7,5.4-1.7
		c0.9,0.7,1.7,1.4,2.5,2.2c1.7,1.6,3.1,3.4,4.6,5.1c-1.8-0.5-3.6-0.9-5.3-1.4C119,418.7,114.7,417.6,114,415.1z"/>
	<path class="st14" d="M134.4,410.8l-44.7-18.7c0,0,56.7-81.2,57.2-87.2c0.4-5.4-23.4-52.6-24.2-66.4c-0.9-14.8,6.4-26.1,14.3-33.1
		l45,20c0,0-3.9,8-11.7,12.3c0,0,23.1,54.6,21.5,71.2S134.4,410.8,134.4,410.8z"/>
	<path class="st7" d="M136.5,402.3c-6.4-2.9-4.6-2.1-11.1-4.9c-3.2-1.4-24-10.4-27.2-11.1c-0.1,0-0.1,0.1,0,0.1
		c2.8,1.7,23.8,10.4,27,11.7c6.5,2.7,4.7,1.8,11.3,4.4C136.5,402.5,136.6,402.5,136.5,402.3C136.5,402.4,136.5,402.3,136.5,402.3z"
		/>
	<path class="st7" d="M177.9,236.8c-4.8,1.1-9.6,2.5-14.2,4.4c-0.1,0-0.1,0.1-0.1,0.2c0,0.1,0.1,0.1,0.1,0.1
		c4.8-1.3,9.6-2.6,14.2-4.1c0.1-0.1,0.2-0.2,0.2-0.4C178.2,236.9,178.1,236.8,177.9,236.8z"/>
	<path class="st7" d="M172.4,234.8c-0.5,0.8-0.9,1.6-1.2,2.5c-0.3,0.6-0.6,1.3-0.6,2.1c0,0.1,0.1,0.1,0.2,0.1c0,0,0.1,0,0.1,0
		c0.5-0.6,0.9-1.2,1.2-1.9c0.4-0.8,0.8-1.5,1.2-2.3C173.5,234.7,172.7,234.4,172.4,234.8z"/>
	<path class="st7" d="M173.1,230.5c0.3-0.7,0.6-1.4,0.9-2.1s0.7-1.4,1-2.2c0-0.1,0.2,0,0.2,0.1c-0.3,0.7-0.5,1.5-0.7,2.2
		s-0.5,1.5-0.7,2.2c-0.5,1.4-1,2.7-1.6,4c0.8,0,1.5-0.1,2.2-0.4c0.7-0.4,1.3-1.1,1.6-1.9c0.4-0.8,0.8-1.6,1.2-2.4
		c0.5-0.8,1-1.7,1.3-2.7c0-0.1,0.2,0,0.2,0.1c-0.7,2-1.5,3.9-2.5,5.7c-0.4,0.7-0.8,1.4-1.6,1.7c-0.9,0.2-1.8,0.3-2.6,0.1
		c-0.1,0-0.2,0-0.2-0.2C172,233.3,172.5,231.9,173.1,230.5z"/>
	<path class="st7" d="M171,239.5c1.6,3.5,3,7,4.5,10.5s2.8,6.9,4.1,10.3c2.7,7,5.1,14.1,7.1,21.4c1,3.6,2,7.2,2.8,10.8
		c0.9,3.6,1.6,7.3,2,11c0.4,3.7,0,7.4-1.1,11c-1.1,3.5-2.5,6.9-4.2,10.2c-1,2.1-1.4,1.8-0.9,0.7c1.4-3,5.1-12,5-19.6
		c-0.2-3.7-0.7-7.3-1.6-10.9c-0.8-3.7-1.7-7.3-2.7-10.9c-2-7.1-4.3-14.1-6.8-21c-1.4-3.9-2.8-7.8-4.2-11.7s-2.8-7.5-4.4-11.7
		C170.8,239.5,170.9,239.5,171,239.5C171,239.5,171,239.5,171,239.5z"/>
	<path class="st7" d="M137,227.6c0.8-0.3,1.9,0.2,2.7,0.4c1,0.2,2.1,0.3,3.2,0.4c1.1,0,2.1,0,3.2-0.1c1,0,2.1-0.3,3-0.8
		c1.5-1.1,2.9-2.4,3.9-4c1.2-1.6,2.3-3.4,3.1-5.2c0-0.1,0.2,0,0.2,0.1c-0.4,1.1-0.6,2.1-1.1,3.2c-0.4,1-0.9,1.9-1.5,2.8
		c-1,1.8-2.4,3.4-4.1,4.5c-1.9,1-4.3,0.9-6.4,0.8c-1.2-0.1-2.4-0.3-3.6-0.5c-0.9-0.2-2.3-0.4-2.8-1.1c-0.1-0.1-0.1-0.3,0-0.4
		C136.9,227.6,137,227.6,137,227.6z"/>
	<path class="st7" d="M102.6,383.8c7.5-11.1,14.9-22.2,22.2-33.5s14.4-22.6,21.5-34.1c1.7-2.7,3.6-5.5,4.7-8.5
		c1.2-3.3,0.6-6.5-0.4-9.8c-1.9-6-4.1-11.8-6.7-17.5c-2.5-5.7-5.2-11.4-7.9-17c-2.8-5.6-5.3-11.3-7.5-17.2c-1.9-5.6-2.6-11.5-1-17.2
		s4.9-10.9,8.3-15.7c0.9-1.3,1.8-2.5,2.7-3.8c0.1-0.1,0.2,0,0.1,0.1c-3.8,5-7.5,10.3-9.8,16.2c-1.2,2.9-1.8,6-2,9.1
		c-0.1,3.2,0.4,6.3,1.4,9.4c1.7,5.9,4.5,11.5,7.1,17c2.6,5.5,5.4,11.3,8,17c2.6,5.7,4.9,11.6,6.9,17.6c0.9,2.7,1.9,5.5,1.8,8.3
		c-0.1,3.1-1.6,5.9-3.2,8.5c-6.9,11.4-14,22.6-21.2,33.8s-14.6,22.3-22,33.3l-2.9,4.2C102.8,384.1,102.5,383.9,102.6,383.8z"/>
	<path class="st7" d="M201.3,131.8c-3-4.7-8.9-6.3-14.9-5.8s-13.2,2.9-14.9,12.9c-1.4,8.1,0.2,16.4-0.8,25.5s-13.3,30.2,1.5,42.9
		c13.3,11.3,43.2,5.6,46.2-14.4c2.4-15.8-14.2-32.5-15.5-39S204.7,136.9,201.3,131.8z"/>
	<path class="st7" d="M203,141c-0.5,4.6-0.1,9.3,1.1,13.7c0.3,1.2,0.8,2.3,1.5,3.3c0.6,1,1.3,1.9,1.9,2.9c1.3,1.9,2.6,3.7,3.9,5.6
		c2.5,3.8,4.4,7.9,5.8,12.2c1.3,4.4,1.7,8.9,1.4,13.5c0.4-2.3,0.6-4.6,0.5-6.9c-0.1-2.3-0.4-4.6-1-6.9c-1.2-4.5-3.1-8.8-5.6-12.6
		c-1.2-1.9-2.6-3.8-3.9-5.7c-1.4-1.7-2.6-3.7-3.4-5.7c-0.8-2.1-1.3-4.3-1.5-6.6C203.2,145.6,203,143.3,203,141z"/>
	<path class="st7" d="M171.2,145.8c-0.4,4.7-0.6,9.3-1.2,13.9c-0.3,2.3-0.7,4.6-1.3,6.8c-0.6,2.2-1.4,4.4-2.2,6.6s-1.5,4.4-2.1,6.7
		c-0.6,2.3-1,4.6-1.2,7c-0.2,2.4,0,4.7,0.5,7.1c0.6,2.3,1.7,4.4,3.1,6.3c-1.2-2-2.1-4.1-2.5-6.4c-0.4-2.3-0.4-4.6-0.2-6.9
		c0.7-4.6,1.8-9.1,3.5-13.4c0.8-2.2,1.6-4.4,2.2-6.7c0.5-2.3,0.9-4.6,1.1-7C171.3,155.1,171.4,150.4,171.2,145.8z"/>
	<path class="st18" d="M178.4,169.3c-1.4,7.8-0.5,41.7,3.4,52.5c4.6,12.6,14.9,34.8,18.5,34.7c3.4,0,22.1-10.9,20-13.9
		S204,217,202,212.8c-1.2-2.5-8.6-27.3-13.2-39.8C184.6,161.8,180.3,158.6,178.4,169.3z"/>
	<path class="st8" d="M177.1,191.1l21.8,2.2c0,0-8.9-22.3-13.4-28.2c-5-6.6-7.3-2.6-8.4,5.2S177.1,191.1,177.1,191.1z"/>
	<path class="st5" d="M182.8,168.7c0,0.6-0.5,1.1-1.1,1.1s-1.1-0.5-1.1-1.1c0-0.6,0.5-1.1,1.1-1.1c0,0,0,0,0,0
		C182.3,167.6,182.8,168.1,182.8,168.7z M181.7,181.5c-0.6,0-1.1,0.5-1.1,1.1s0.5,1.1,1.1,1.1c0.6,0,1.1-0.5,1.1-1.1
		C182.8,182,182.3,181.5,181.7,181.5C181.7,181.5,181.7,181.5,181.7,181.5z M191.3,181.5c-0.6,0-1.1,0.5-1.1,1.1s0.5,1.1,1.1,1.1
		c0.6,0,1.1-0.5,1.1-1.1S191.9,181.5,191.3,181.5C191.3,181.5,191.3,181.5,191.3,181.5L191.3,181.5z M176.9,174.6h-0.2
		c0,0.7-0.1,1.4-0.1,2.1c0.1,0,0.2,0,0.3,0c0.6,0,1.1-0.5,1.1-1.1C178,175,177.6,174.5,176.9,174.6
		C176.9,174.5,176.9,174.5,176.9,174.6L176.9,174.6z M186.5,174.6c-0.6,0-1.1,0.5-1.1,1.1s0.5,1.1,1.1,1.1c0.6,0,1.1-0.5,1.1-1.1
		c0,0,0,0,0,0C187.6,175.1,187.1,174.6,186.5,174.6L186.5,174.6z M177,188.4c0.1,1,0.1,1.7,0.1,2.2c0.6-0.1,1-0.7,0.9-1.3
		C177.9,188.8,177.5,188.4,177,188.4z M186.6,188.4c-0.6,0-1.1,0.5-1.1,1.1c0,0.6,0.5,1.1,1.1,1.1c0.6,0,1.1-0.5,1.1-1.1
		c0,0,0,0,0,0C187.7,188.9,187.2,188.4,186.6,188.4C186.5,188.4,186.5,188.4,186.6,188.4L186.6,188.4z M196.1,188.4
		c-0.6,0-1.1,0.5-1.1,1.1s0.5,1.1,1.1,1.1s1.1-0.5,1.1-1.1c0,0,0,0,0,0C197.2,188.9,196.7,188.4,196.1,188.4
		C196.1,188.4,196.1,188.4,196.1,188.4L196.1,188.4z"/>
	<path class="st7" d="M196.2,189.2c-0.7-0.2-7.5-1-9-1.1s-7.5-0.8-9-0.8c0,0-0.1,0-0.1,0.1s0,0.1,0.1,0.1l0,0c1.5,0.3,7.6,1,9.1,1.1
		S195.5,189.3,196.2,189.2C196.3,189.3,196.3,189.2,196.2,189.2z"/>
	<path class="st7" d="M195.2,193l-18.1-1.8c0,0-1.1-12.9,0-20.7c0.8-5.7,2.2-9.4,4.9-8.4L195.2,193z"/>
	<path class="st8" d="M182.8,229.6l2.6-21.8c0,0,8.3-6.1,7.3-14c-0.5-4-5.9-24.4-10.4-30.6c-4.2-5.8-12.7-4.4-16.4-1.8
		c-11.9,8.4-21.6,17.4-36.3,48.9L182.8,229.6z"/>
	<path class="st5" d="M163.7,168.7c0,0.6-0.5,1.1-1.1,1.1s-1.1-0.5-1.1-1.1c0-0.6,0.5-1.1,1.1-1.1c0,0,0,0,0,0
		C163.2,167.6,163.7,168.1,163.7,168.7z M172.2,167.6c-0.6,0-1.1,0.5-1.1,1.1c0,0.6,0.5,1.1,1.1,1.1c0.6,0,1.1-0.5,1.1-1.1
		c0,0,0,0,0,0C173.2,168.1,172.8,167.6,172.2,167.6C172.2,167.6,172.2,167.6,172.2,167.6L172.2,167.6z M181.7,167.6
		c-0.6,0-1.1,0.5-1.1,1.1s0.5,1.1,1.1,1.1s1.1-0.5,1.1-1.1c0,0,0,0,0,0C182.8,168.1,182.3,167.6,181.7,167.6
		C181.7,167.6,181.7,167.6,181.7,167.6L181.7,167.6z M167.4,160.7c-0.1,0-0.1,0-0.2,0l0,0c-0.2,0.1-0.4,0.2-0.6,0.4
		c-0.2,0.2-0.3,0.5-0.3,0.7c0,0.6,0.5,1.1,1.1,1.1s1.1-0.5,1.1-1.1S168,160.7,167.4,160.7C167.4,160.7,167.4,160.7,167.4,160.7
		L167.4,160.7z M176.9,160.7c-0.6,0-1.1,0.5-1.1,1.1s0.5,1.1,1.1,1.1c0.6,0,1.1-0.5,1.1-1.1S177.5,160.7,176.9,160.7L176.9,160.7z
		 M153,181.5c-0.6,0-1.1,0.5-1.1,1.1s0.5,1.1,1.1,1.1c0.6,0,1.1-0.5,1.1-1.1C154.1,182,153.6,181.5,153,181.5
		C153,181.5,153,181.5,153,181.5z M162.6,181.5c-0.6,0-1.1,0.5-1.1,1.1s0.5,1.1,1.1,1.1c0.6,0,1.1-0.5,1.1-1.1
		C163.7,182,163.2,181.5,162.6,181.5L162.6,181.5z M172.1,181.5c-0.6,0-1.1,0.5-1.1,1.1s0.5,1.1,1.1,1.1c0.6,0,1.1-0.5,1.1-1.1
		c0,0,0,0,0,0C173.2,182,172.8,181.5,172.1,181.5L172.1,181.5z M181.7,181.5c-0.6,0-1.1,0.5-1.1,1.1s0.5,1.1,1.1,1.1
		c0.6,0,1.1-0.5,1.1-1.1C182.8,182,182.3,181.5,181.7,181.5C181.7,181.5,181.7,181.5,181.7,181.5L181.7,181.5z M157.8,174.6
		c-0.6,0-1.1,0.5-1.1,1.1s0.5,1.1,1.1,1.1c0.6,0,1.1-0.5,1.1-1.1c0,0,0,0,0,0C158.9,175.1,158.4,174.6,157.8,174.6L157.8,174.6z
		 M167.4,174.6c-0.6,0-1.1,0.5-1.1,1.1s0.5,1.1,1.1,1.1c0.6,0,1.1-0.5,1.1-1.1C168.5,175.1,168,174.6,167.4,174.6L167.4,174.6z
		 M176.9,174.6c-0.6,0-1.1,0.5-1.1,1.1s0.5,1.1,1.1,1.1c0.6,0,1.1-0.5,1.1-1.1C178,175.1,177.5,174.6,176.9,174.6L176.9,174.6z
		 M186.5,174.6c-0.6,0-1.1,0.5-1.1,1.1s0.5,1.1,1.1,1.1c0.6,0,1.1-0.5,1.1-1.1c0,0,0,0,0,0C187.6,175.1,187.1,174.6,186.5,174.6
		L186.5,174.6z M143.5,195.3c-0.6,0-1.1,0.5-1.1,1.1s0.5,1.1,1.1,1.1c0.6,0,1.1-0.5,1.1-1.1c0,0,0,0,0,0
		C144.6,195.8,144.1,195.3,143.5,195.3C143.5,195.3,143.5,195.3,143.5,195.3L143.5,195.3z M153.1,195.3c-0.6,0-1.1,0.5-1.1,1.1
		s0.5,1.1,1.1,1.1c0.6,0,1.1-0.5,1.1-1.1C154.2,195.8,153.7,195.3,153.1,195.3C153,195.3,153,195.3,153.1,195.3L153.1,195.3z
		 M162.6,195.3c-0.6,0-1.1,0.5-1.1,1.1s0.5,1.1,1.1,1.1c0.6,0,1.1-0.5,1.1-1.1C163.7,195.8,163.2,195.3,162.6,195.3
		C162.6,195.3,162.6,195.3,162.6,195.3L162.6,195.3z M172.2,195.3c-0.6,0-1.1,0.5-1.1,1.1s0.5,1.1,1.1,1.1c0.6,0,1.1-0.5,1.1-1.1
		c0,0,0,0,0,0C173.3,195.8,172.8,195.3,172.2,195.3C172.2,195.3,172.2,195.3,172.2,195.3L172.2,195.3z M181.8,195.3
		c-0.6,0-1.1,0.5-1.1,1.1s0.5,1.1,1.1,1.1c0.6,0,1.1-0.5,1.1-1.1C182.9,195.8,182.4,195.3,181.8,195.3
		C181.8,195.3,181.7,195.3,181.8,195.3L181.8,195.3z M191.3,195.3c-0.6,0-1.1,0.5-1.1,1.1s0.5,1.1,1.1,1.1c0.6,0,1.1-0.5,1.1-1.1
		C192.4,195.8,191.9,195.3,191.3,195.3C191.3,195.3,191.3,195.3,191.3,195.3L191.3,195.3z M148.3,188.4c-0.6,0-1.1,0.5-1.1,1.1
		s0.5,1.1,1.1,1.1s1.1-0.5,1.1-1.1c0,0,0,0,0,0C149.4,188.9,148.9,188.4,148.3,188.4C148.3,188.4,148.3,188.4,148.3,188.4
		L148.3,188.4z M157.9,188.4c-0.6,0-1.1,0.5-1.1,1.1c0,0.6,0.5,1.1,1.1,1.1c0.6,0,1.1-0.5,1.1-1.1c0,0,0,0,0,0
		C159,188.9,158.5,188.4,157.9,188.4C157.9,188.4,157.8,188.4,157.9,188.4L157.9,188.4z M167.5,188.4c-0.6,0-1.1,0.5-1.1,1.1
		s0.5,1.1,1.1,1.1s1.1-0.5,1.1-1.1c0,0,0,0,0,0C168.6,188.9,168.1,188.4,167.5,188.4C167.4,188.4,167.4,188.4,167.5,188.4
		L167.5,188.4z M177,188.4c-0.6,0-1.1,0.5-1.1,1.1s0.5,1.1,1.1,1.1s1.1-0.5,1.1-1.1c0,0,0,0,0,0C178.1,188.9,177.6,188.4,177,188.4
		C177,188.4,177,188.4,177,188.4L177,188.4z M186.6,188.4c-0.6,0-1.1,0.5-1.1,1.1c0,0.6,0.5,1.1,1.1,1.1c0.6,0,1.1-0.5,1.1-1.1
		c0,0,0,0,0,0C187.7,188.9,187.2,188.4,186.6,188.4C186.6,188.4,186.5,188.4,186.6,188.4L186.6,188.4z M134,209.2
		c-0.6,0-1.1,0.5-1.1,1.1s0.5,1.1,1.1,1.1c0.6,0,1.1-0.5,1.1-1.1C135.1,209.7,134.6,209.2,134,209.2
		C133.9,209.2,133.9,209.2,134,209.2L134,209.2z M143.5,209.2c-0.6,0-1.1,0.5-1.1,1.1s0.5,1.1,1.1,1.1c0.6,0,1.1-0.5,1.1-1.1
		c0,0,0,0,0,0C144.6,209.7,144.1,209.2,143.5,209.2C143.5,209.2,143.5,209.2,143.5,209.2L143.5,209.2z M153.1,209.2
		c-0.6,0-1.1,0.5-1.1,1.1s0.5,1.1,1.1,1.1c0.6,0,1.1-0.5,1.1-1.1C154.2,209.7,153.7,209.2,153.1,209.2c0,0-0.1,0-0.1,0H153.1z
		 M162.7,209.2c-0.6,0-1.1,0.5-1.1,1.1s0.5,1.1,1.1,1.1c0.6,0,1.1-0.5,1.1-1.1C163.8,209.7,163.3,209.2,162.7,209.2
		C162.6,209.2,162.6,209.2,162.7,209.2L162.7,209.2z M172.2,209.2c-0.6,0-1.1,0.5-1.1,1.1s0.5,1.1,1.1,1.1c0.6,0,1.1-0.5,1.1-1.1
		c0,0,0,0,0,0C173.3,209.7,172.8,209.2,172.2,209.2C172.2,209.2,172.2,209.2,172.2,209.2L172.2,209.2z M181.8,209.2
		c-0.6,0-1.1,0.5-1.1,1.1s0.5,1.1,1.1,1.1c0.6,0,1.1-0.5,1.1-1.1C182.9,209.7,182.4,209.2,181.8,209.2
		C181.8,209.2,181.8,209.2,181.8,209.2L181.8,209.2z M138.8,202.3c-0.6,0-1.1,0.5-1.1,1.1s0.5,1.1,1.1,1.1s1.1-0.5,1.1-1.1
		c0,0,0,0,0,0C139.9,202.8,139.4,202.3,138.8,202.3C138.7,202.3,138.7,202.3,138.8,202.3L138.8,202.3z M148.3,202.3
		c-0.6,0-1.1,0.5-1.1,1.1s0.5,1.1,1.1,1.1s1.1-0.5,1.1-1.1c0,0,0,0,0,0C149.4,202.8,148.9,202.3,148.3,202.3
		C148.3,202.3,148.3,202.3,148.3,202.3L148.3,202.3z M157.9,202.3c-0.6,0-1.1,0.5-1.1,1.1c0,0.6,0.5,1.1,1.1,1.1
		c0.6,0,1.1-0.5,1.1-1.1c0,0,0,0,0,0C159,202.8,158.5,202.3,157.9,202.3C157.9,202.3,157.8,202.3,157.9,202.3L157.9,202.3z
		 M167.5,202.3c-0.6,0-1.1,0.5-1.1,1.1s0.5,1.1,1.1,1.1s1.1-0.5,1.1-1.1c0,0,0,0,0,0C168.6,202.8,168.1,202.3,167.5,202.3
		C167.4,202.3,167.4,202.3,167.5,202.3L167.5,202.3z M177,202.3c-0.6,0-1.1,0.5-1.1,1.1s0.5,1.1,1.1,1.1s1.1-0.5,1.1-1.1
		c0,0,0,0,0,0C178.1,202.8,177.6,202.3,177,202.3C177,202.3,177,202.3,177,202.3L177,202.3z M186.6,202.3c-0.6,0-1.1,0.5-1.1,1.1
		c0,0.6,0.5,1.1,1.1,1.1c0.6,0,1.1-0.5,1.1-1.1c0,0,0,0,0,0C187.7,202.8,187.2,202.3,186.6,202.3
		C186.6,202.3,186.5,202.3,186.6,202.3L186.6,202.3z M172.2,223c-0.6,0-1.1,0.5-1.1,1.1s0.5,1.1,1.1,1.1c0.6,0,1.1-0.5,1.1-1.1
		c0,0,0,0,0,0C173.3,223.5,172.8,223,172.2,223z M181.7,223c-0.6,0-1.1,0.5-1.1,1.1s0.5,1.1,1.1,1.1c0.6,0,1.1-0.5,1.1-1.1
		S182.3,223,181.7,223L181.7,223z M148.2,216.1c-0.4,0-0.8,0.2-1,0.6l2,0.8c0-0.1,0-0.2,0-0.2C149.2,216.6,148.8,216.2,148.2,216.1
		L148.2,216.1z M157.8,216.1c-0.6,0-1.1,0.5-1.1,1.1c0,0.6,0.5,1.1,1.1,1.1c0.6,0,1.1-0.5,1.1-1.1c0,0,0,0,0,0
		C158.9,216.6,158.4,216.1,157.8,216.1L157.8,216.1z M167.4,216.1c-0.6,0-1.1,0.5-1.1,1.1s0.5,1.1,1.1,1.1s1.1-0.5,1.1-1.1
		c0,0,0,0,0,0C168.5,216.6,168,216.1,167.4,216.1L167.4,216.1z M176.9,216.1c-0.6,0-1.1,0.5-1.1,1.1s0.5,1.1,1.1,1.1
		s1.1-0.5,1.1-1.1c0,0,0,0,0,0C178,216.6,177.5,216.1,176.9,216.1L176.9,216.1z"/>
	
		<rect x="166.2" y="234.7" transform="matrix(0.9248 -0.3804 0.3804 0.9248 -76.4559 93.5757)" class="st3" width="64.5" height="11.1"/>
	<polygon class="st7" points="135.1,257.2 141.5,272.7 141.5,272.7 183.2,255.6 183.2,255.6 176.8,240.1 176.8,240.1 	"/>
	<path class="st9" d="M228.7,184.2c14.3-23.9,45.2-31.7,69.1-17.5c23.9,14.3,31.7,45.2,17.5,69.1s-45.2,31.7-69.1,17.5c0,0,0,0,0,0
		C222.3,239,214.5,208.1,228.7,184.2z M233.7,187.2c-12.6,21.2-5.7,48.6,15.5,61.2c21.2,12.6,48.6,5.7,61.2-15.5s5.7-48.6-15.5-61.2
		c0,0,0,0,0,0C273.7,159.1,246.4,166,233.7,187.2L233.7,187.2z"/>
	<path class="st9" d="M266.8,261.6c-28.7-2.8-49.6-28.4-46.8-57c2.8-28.7,28.4-49.6,57-46.8c28.7,2.8,49.6,28.4,46.8,57
		c-2.2,21.8-17.8,40-39,45.4C278.9,261.8,272.8,262.2,266.8,261.6z M277,161.3c-26.8-2.8-50.9,16.8-53.6,43.6
		c-0.6,5.7-0.2,11.5,1.3,17.1c6.7,26.1,33.3,41.9,59.4,35.3c26.1-6.7,41.9-33.3,35.3-59.4C314.3,178,297.4,163.4,277,161.3z
		 M267.3,255.9c-25.3-2.6-43.8-25.3-41.2-50.6c0.7-6.7,2.8-13.1,6.3-18.9l0,0c13-21.9,41.3-29.1,63.2-16c21.9,13,29.1,41.3,16,63.2
		c-6.3,10.5-16.5,18.1-28.3,21.1C278.1,256,272.7,256.4,267.3,255.9z M235,187.9c-12.2,20.5-5.6,47,14.9,59.2s47,5.6,59.2-14.9
		s5.6-47-14.9-59.2c-9.8-5.9-21.6-7.6-32.7-4.8C250.4,171,240.9,178.1,235,187.9L235,187.9z"/>
	<g class="st19">
		<path class="st5" d="M288.5,170.4c-21.9-9.1-47,1.2-56.1,23.1c-9.1,21.9,1.2,47,23.1,56.1c21.8,9.1,46.9-1.2,56.1-23.1
			C320.7,204.6,310.4,179.5,288.5,170.4z"/>
		<path class="st1" d="M276.8,167.4c-23.4-2.6-44.5,14.1-47.3,37.5L276.8,167.4z"/>
		<path class="st1" d="M311.5,193.2l-64.8,51.3c2.7,2,5.7,3.7,8.9,5c3.6,1.5,7.4,2.5,11.3,3l47.9-37.9
			C315.5,207.3,314.4,200,311.5,193.2z"/>
		<path class="st1" d="M292.4,172.2l-61.8,48.9c0.7,2.7,1.7,5.3,3,7.9l65.8-52.1C297.2,175.1,294.9,173.6,292.4,172.2z"/>
		<path class="st1" d="M308.8,188l-66.7,52.8c0.4,0.4,0.8,0.7,1.1,1.1l66.3-52.5C309.4,188.9,309.1,188.4,308.8,188z"/>
		<path class="st1" d="M310.7,228.4l-29.6,23.4c1.3-0.3,2.5-0.6,3.7-1l24.1-19C309.6,230.7,310.2,229.6,310.7,228.4z"/>
	</g>
	<path class="st18" d="M162.1,163.7c-6.3,4.3-33.6,26.4-36.8,39.1c-2,7.8,11.9,35.1,15.6,41.7c1.6,2.9,21.2-6.9,22-10.4
		s-13.4-28.2-13.7-30.8c0,0,12.6-20.4,19.3-31.2C174.9,162,173.8,155.7,162.1,163.7z"/>
	<path class="st18" d="M171,252.9c2.2,3.5,8,6.2,6,8.5c-1.8,2.1-5.6-0.2-5.6-0.2s3.5,4,1,5.7s-6.2-1.6-6.2-1.6s3.1,3.2,0.4,4.7
		s-6.3-0.8-6.3-0.8s0.2,1.5-2.1,1.7c-3.4,0.3-8.4-4.9-10.4-8.3s-6.8-17.2-7.5-19.3l21.6-13c0,0,6.3,4.4,9.2,7s10.2,13.9,7.5,15.9
		s-7.7-6.1-9.3-7.8s-2.3-1.6-2.2-0.3C167.2,246,170,251.3,171,252.9z"/>
	<path class="st7" d="M171.3,261c-5.1-3.5-6.7-6-9.1-11.6c0-0.1-0.2-0.1-0.2,0.1c1.9,5.7,3.4,9.1,9.2,11.8
		C171.4,261.4,171.5,261.2,171.3,261z"/>
	<path class="st7" d="M166.4,265.3c-5-4.1-6.8-6.8-9.7-12.5c0-0.1-0.2,0-0.1,0.1c2.4,5.8,4.1,9.1,9.6,12.6
		C166.4,265.7,166.6,265.5,166.4,265.3z"/>
	<path class="st7" d="M160.3,269.1c-4.6-4.4-6.6-7.1-8.8-13.1c0-0.1-0.1-0.1-0.2,0c0,0-0.1,0.1-0.1,0.1c1.6,6.2,4.2,9.7,8.9,13.1
		C160.4,269.4,160.6,269.3,160.3,269.1z"/>
	<path class="st8" d="M161.1,187.5l-20.1-8.6c0,0,18.7-15.2,25.4-18.1c7.6-3.3,7.6,1.3,4.8,8.6S161.1,187.5,161.1,187.5z"/>
	<path class="st5" d="M154.1,168.8c0,0.6-0.5,1-1.1,1c-0.1,0-0.2,0-0.2,0L154.1,168.8z M162.6,167.6c-0.6,0-1.1,0.5-1.1,1.1
		s0.5,1.1,1.1,1.1s1.1-0.5,1.1-1.1c0,0,0,0,0,0C163.7,168.1,163.2,167.6,162.6,167.6C162.6,167.6,162.6,167.6,162.6,167.6z
		 M171.1,168.7c0,0.2,0.1,0.5,0.2,0.6c0.2-0.6,0.4-1.1,0.6-1.7C171.4,167.8,171.1,168.2,171.1,168.7L171.1,168.7z M167.4,160.7
		c-0.6,0-1.1,0.5-1.1,1.1s0.5,1.1,1.1,1.1c0.6,0,1.1-0.5,1.1-1.1C168.5,161.2,168,160.7,167.4,160.7
		C167.4,160.7,167.4,160.7,167.4,160.7L167.4,160.7z M153,181.5c-0.6,0-1.1,0.5-1.1,1.1s0.5,1.1,1.1,1.1c0.6,0,1.1-0.5,1.1-1.1
		C154.1,182,153.6,181.5,153,181.5C153,181.5,153,181.5,153,181.5z M162.6,181.5c-0.6,0-1.1,0.5-1.1,1.1s0.5,1.1,1.1,1.1
		c0.6,0,1.1-0.5,1.1-1.1C163.7,182,163.2,181.5,162.6,181.5L162.6,181.5z M148.2,174.6c-0.6,0-1.1,0.5-1.1,1.1s0.5,1.1,1.1,1.1
		c0.6,0,1.1-0.5,1.1-1.1C149.3,175.1,148.8,174.6,148.2,174.6L148.2,174.6z M157.8,174.6c-0.6,0-1.1,0.5-1.1,1.1s0.5,1.1,1.1,1.1
		c0.6,0,1.1-0.5,1.1-1.1c0,0,0,0,0,0C158.9,175.1,158.4,174.6,157.8,174.6L157.8,174.6z M167.4,174.6c-0.6,0-1.1,0.5-1.1,1.1
		c0,0.6,0.5,1.1,1.1,1.1c0.1,0,0.3,0,0.4-0.1l0.7-1.3C168.3,174.9,167.9,174.6,167.4,174.6L167.4,174.6z"/>
	<path class="st7" d="M145.4,176.6c0.8,0.2,7.1,2.8,8.4,3.4s6.9,3,8.3,3.7c0.1,0,0,0.1,0,0.1c-1.5-0.4-7.1-2.8-8.5-3.4
		S146,177,145.4,176.6C145.3,176.6,145.3,176.5,145.4,176.6z"/>
	<path class="st7" d="M159.6,186.8c0.6,0.2,1.6,0.6,1.6,0.6c1.4-2.1,7.8-13.3,9.3-16 M170.5,171.4c-0.8,1.6-1.6,3.2-2.4,4.7l0.4-0.5
		c0.5-0.6,1-1.2,1.4-1.9c0,0,0.1,0,0.1,0.1c-0.4,0.7-0.8,1.4-1.3,2c-0.3,0.4-0.7,0.9-1.1,1.3c-0.5,0.9-0.9,1.8-1.4,2.7
		c-1.5,2.7-3,5.6-4.7,8.2c-0.7-0.2-1.4-0.6-2-0.9c-0.1,0,0-0.1,0.1-0.1L170.5,171.4z"/>
	<path class="st18" d="M220.6,249.8c-1.3,1.2-3.2,1.4-4.7,0.6c0,0,0.6,3.8-2.1,5.5c-1.4,0.9-4-0.6-4-0.6s0.3,3-2.2,4.4
		c-2,1.1-4.3-0.5-4.3-0.5s-1.1,3-3.4,3.5c-4.8,0.9-15.8-14.9-11.7-21.4c1.9-3,4.4,1,4.4,1s-2.2-6.6,1-9s6.1,3,6.1,3
		s-2.1-6.4,1.5-8.5c3.7-2.2,5.7,3.7,5.7,3.7s-0.1-5.2,3-6.2c5.1-1.6,4.7,9.9,8,12.8l7.5-3.1C225.4,235,223.1,247.5,220.6,249.8z"/>
	<path class="st7" d="M203,258.9C203,259,203,259,203,258.9c-5.2-4.4-8.8-10.3-10.5-16.9c0-0.2,0.3-0.4,0.4-0.2
		C195.4,248,198.8,253.8,203,258.9z"/>
	<path class="st7" d="M209.9,255.4c0.1,0.1,0,0.1-0.1,0.1c-5-4.5-9.4-11.6-10.2-19.2c0-0.3,0.2-0.5,0.3-0.2
		C200.7,241,205.9,250.6,209.9,255.4z"/>
	<path class="st7" d="M207.2,230.9c1,7.2,4.3,13.4,8.5,19.3c0.1,0.1-0.1,0.1-0.1,0.1c-2.9-2.3-5.2-6.3-6.7-9.6c-1.5-3-2.2-6.4-2-9.7
		C206.9,230.8,207.1,230.8,207.2,230.9z"/>
	<path class="st7" d="M192.6,241.9c-0.5-1.3-0.7-2.7-0.8-4.1c-0.1-1.5,0.3-2.9,1.1-4.1c0.5-0.6,1.1-1,1.9-1.2c0.8-0.2,1.6,0,2.2,0.4
		c1.2,0.8,2.2,1.9,2.8,3.2l-0.6,0.2c-0.4-1.4-0.5-2.8-0.5-4.3c0.1-1.5,0.7-2.9,1.7-4c0.5-0.5,1.2-0.9,1.9-1.1c0.8-0.2,1.6,0,2.2,0.4
		c1.2,0.9,2,2.1,2.5,3.5l-0.5,0.1c0.1-0.7,0.2-1.3,0.4-2c0.2-0.7,0.5-1.3,0.8-1.9c0.4-0.6,0.9-1.1,1.5-1.5c0.6-0.3,1.3-0.4,2-0.3
		c-0.7,0-1.3,0.1-1.9,0.5c-0.6,0.4-1,0.9-1.3,1.5c-0.6,1.2-0.9,2.5-1,3.8l-0.1,1l-0.4-1c-0.5-1.3-1.3-2.3-2.4-3.1
		c-0.5-0.3-1.2-0.5-1.8-0.3c-0.6,0.2-1.2,0.5-1.6,1c-0.9,1-1.4,2.2-1.4,3.6c-0.1,1.3,0,2.7,0.4,4l0.7,2.8l-1.4-2.5
		c-0.6-1.2-1.5-2.2-2.6-3c-0.5-0.3-1.2-0.5-1.8-0.4c-0.6,0.2-1.2,0.5-1.6,1c-0.8,1.1-1.3,2.4-1.2,3.8
		C192.1,239.2,192.3,240.5,192.6,241.9z"/>
	<path class="st18" d="M174.4,163.3c-0.1,1,2.2,7.8,6.8,8.6c2.4,0.4,3.9-6.1,3.9-6.1l0.3-0.5l4.4-7.4l-7.4-9.1l-1.1-1.2
		c0,0-1.1,2.1-2.4,4.7l-0.2,0.4c-0.1,0.1-0.2,0.3-0.2,0.4c-0.2,0.4-0.4,0.8-0.6,1.2s-0.3,0.6-0.4,0.9l-0.4,1
		C176,158.5,175.1,160.9,174.4,163.3z"/>
	<path class="st7" d="M179,152.3c0.2,5.1,2.5,9.8,6.5,12.9l4.4-7.4l-7.4-9.1l-1.1-1.2C181.4,147.6,180.3,149.7,179,152.3z"/>
	<path class="st18" d="M205.4,150.1c-3.7,14.6-12.9,14-16,13.2c-2.9-0.7-12.5-3.6-10.3-18.5s10.2-17.8,16.8-16.4
		C202.6,129.7,209.2,135.5,205.4,150.1z"/>
	<path class="st7" d="M179.6,143.8c3.4,1.2,5.2-4.1,5.2-4.1s4,1,6.4-5.1c0.6,3.1,2.7,5.7,5.5,7c1,0.6-1.6-3.6-1.6-3.6
		s3,5.6,11.8,6.9c0.6,0.1,2.4-9-3-14.2s-11.8-5.6-17.2-2.9c-2.7,0.4-5.1,2.2-6.3,4.7C178.3,136.7,178.3,143.4,179.6,143.8z"/>
	<path class="st18" d="M181.5,145.5c0,0-1.5-5.5-4-5.1s-2.3,7.6-0.3,9.4c1,1,2.6,0.9,3.6-0.1c0,0,0.1-0.1,0.1-0.1L181.5,145.5z"/>
	<path class="st7" d="M177.6,142.5c1.4,1.2,1.8,3.1,1.8,4.9c-0.1-0.8-0.9-1.3-1.6-1.1c-0.1,0-0.2,0-0.2,0.1c-0.1,0,0,0.1,0,0.1
		c0.7,0,1.2,0.4,1.4,1.1c0.2,0.5,0.3,1,0.3,1.6c0,0.2,0.3,0.2,0.3,0l0,0C180.4,147,179.8,143.5,177.6,142.5L177.6,142.5z"/>
	<path class="st7" d="M202.9,148.3c-0.3-0.2-0.6-0.3-0.9-0.5c-0.3-0.2-0.6-0.3-0.8-0.7c-0.1-0.2,0-0.5,0.2-0.6
		c0.4-0.2,0.9-0.2,1.3,0.1c0.4,0.2,0.8,0.6,0.9,1c0.1,0.3,0,0.6-0.3,0.8C203.2,148.4,203,148.4,202.9,148.3z"/>
	<path class="st7" d="M194.1,143.5c0.3,0.1,0.7,0.1,1,0.2c0.3,0.1,0.7,0.1,1.1,0c0.2-0.1,0.3-0.4,0.2-0.6c-0.2-0.4-0.6-0.7-1.1-0.8
		c-0.5-0.1-1,0-1.4,0.2c-0.3,0.2-0.3,0.5-0.1,0.8C193.9,143.4,194,143.5,194.1,143.5z"/>
	<path class="st7" d="M195,147.9c0,0-0.1,0-0.1,0.1c-0.3,1-0.7,2.1-1.7,2.1v0.1C194.3,150.3,194.9,148.9,195,147.9z"/>
	<path class="st7" d="M194.4,146.6c-1.6-0.6-2.6,2.5-1.2,3.1S195.7,147.1,194.4,146.6z"/>
	<path class="st7" d="M193.7,146.6c-0.3,0.1-0.7,0.3-1.1,0.2s-0.6-0.5-0.7-0.9c0,0,0,0-0.1,0c-0.3,0.6-0.1,1.3,0.4,1.6
		c0.6,0.2,1.3-0.1,1.5-0.6C193.9,146.7,193.9,146.5,193.7,146.6z"/>
	<path class="st7" d="M192.3,155.7c0.1,0.3,0.2,0.7,0.6,0.9c0.4,0.1,0.7,0.2,1.1,0.2 M194,156.8c-0.4,0.3-1,0.3-1.4,0
		c-0.4-0.3-0.5-0.7-0.4-1.1c0,0,0.1,0,0.1,0L194,156.8z"/>
	<path class="st7" d="M197.6,153.6c0,0-0.3,1.5-0.5,2.2c0,0.1-0.2,0-0.4,0l0,0c-1.3-0.2-2.3-1.1-2.8-2.3c0,0,0-0.1,0-0.1
		s0.1,0,0.1,0l0,0c0.7,0.9,1.6,1.5,2.7,1.8c0.1-0.2,0.4-2.6,0.5-2.6c0.5,0.2,1,0.5,1.4,0.9c0.7-3.2,0.9-6.4,1.6-9.5
		c0-0.1,0.1-0.1,0.1-0.1c0,0,0.1,0,0.1,0.1c-0.1,3.5-0.5,6.9-1.3,10.3C199,154.8,197.8,153.8,197.6,153.6z"/>
	<path class="st7" d="M203.7,150.3c-0.5-0.4-1-0.6-1.6-0.6c-0.3,0-0.6,0-0.9,0.1c-0.3,0.1-0.6,0.3-0.8,0.5l-0.4,0.4l0.6,0.1
		c0.4,0.1,0.8,0.2,1.2,0.3c0.4,0.1,0.7,0.4,1,0.7c-0.1-0.5-0.4-0.9-0.8-1.1c-0.4-0.3-0.8-0.4-1.3-0.5l0.2,0.5
		c0.3-0.3,0.8-0.5,1.3-0.5C202.6,150.2,203.2,150.2,203.7,150.3z"/>
	<path class="st7" d="M201.5,152c-0.4-0.2-0.7-0.5-1.1-0.8c-0.1-0.1-0.3-0.4-0.3-0.5c0.1-0.2,0.2-0.4,0.4-0.5
		c-0.2,0.1-0.4,0.3-0.5,0.5c0,0.3,0.1,0.5,0.3,0.7C200.6,151.7,201.1,151.9,201.5,152z"/>
</g>
<g id="freepik--speech-bubble--inject-18">
	<path class="st5" d="M271.1,118c-1.4,13.7-13.7,23.6-27.4,22.2c-5.3-0.6-10.3-2.8-14.3-6.4l-12.4,1.8l6.2-10.8
		c-5.2-12.7,0.9-27.3,13.6-32.5c12.7-5.2,27.3,0.9,32.5,13.6C270.9,109.7,271.5,113.9,271.1,118z"/>
	<path class="st7" d="M271.1,118c-0.5,4.6-2.2,9-5,12.6c-1.4,1.8-3,3.5-4.9,4.8c-1.8,1.4-3.9,2.5-6,3.4c-2.2,0.8-4.4,1.4-6.7,1.6
		c-1.2,0.1-2.3,0.1-3.5,0.1c-1.2,0-2.3-0.1-3.4-0.4c-4.6-0.9-8.9-3-12.4-6.1l0.3,0.1l-12.4,1.9l-0.9,0.1l0.5-0.8l6.2-10.8v0.4
		c-5.3-12.9,0.9-27.6,13.7-32.8c12.9-5.3,27.6,0.9,32.8,13.7C270.9,109.7,271.5,113.8,271.1,118L271.1,118z M271.1,118
		c1.5-13.5-8.3-25.7-21.9-27.1c-2.1-0.2-4.3-0.2-6.4,0.1c-3.7,0.5-7.2,1.9-10.3,4.1c-3,2.1-5.6,4.9-7.4,8.1
		c-1.8,3.2-2.9,6.8-3.2,10.5c-0.2,3.7,0.4,7.4,1.8,10.9l0.1,0.2l-0.1,0.2l-6.3,10.8l-0.4-0.6l12.5-1.8h0.2l0.1,0.1
		c3.3,3.1,7.5,5.2,11.9,6.1c1.1,0.2,2.2,0.3,3.4,0.4c1.1,0.1,2.3,0.1,3.4,0c2.3-0.2,4.5-0.7,6.7-1.5c2.1-0.8,4.2-1.9,6-3.2
		c0.9-0.7,1.8-1.4,2.6-2.2c0.8-0.8,1.6-1.7,2.3-2.6C268.8,126.9,270.6,122.6,271.1,118z"/>
	<path class="st8" d="M248.2,119.1v2.8c0,1.2-0.9,2.1-2.1,2.1c0,0-0.1,0-0.1,0c-1.2,0-2.1-1-2.1-2.1v-4.5c0,0,0,0,0-0.1s0,0,0-0.1
		c0-1.2,1-2.1,2.1-2.2c2.7,0,4.9-2.2,4.9-4.9c0-2.7-2.2-4.9-4.9-4.9c0,0,0,0,0,0c-1.7,0-3.3,0.9-4.2,2.4c-0.6,1-1.9,1.4-2.9,0.8
		c0,0,0,0-0.1,0c-1-0.6-1.3-1.9-0.7-2.9c0,0,0,0,0,0c2.5-4.4,8.2-5.9,12.5-3.4c4.4,2.5,5.9,8.2,3.4,12.5
		C252.7,116.9,250.6,118.5,248.2,119.1L248.2,119.1z M248.2,128.6v0.8c0,1.2-0.9,2.1-2,2.1c0,0-0.1,0-0.1,0c-1.2,0-2.1-1-2.1-2.1
		v-0.8c0-1.2,1-2.1,2.1-2.1C247.2,126.5,248.1,127.4,248.2,128.6C248.2,128.6,248.2,128.6,248.2,128.6z"/>
</g>
<g>
	<path class="st5" d="M228.2,504.1l-2.3,2.5v6.1h-4.4v-21.3h4.4v9.7l1.9-2.7l5.4-7h5.4l-7.6,9.5l7.8,11.9h-5.2L228.2,504.1z"/>
	<path class="st5" d="M244.5,498.5c1.1-1.3,2.5-2,4.2-2c3.4,0,5.2,2,5.2,6v10.2h-4.2v-10c0-0.9-0.2-1.6-0.6-2
		c-0.4-0.4-1-0.7-1.9-0.7c-1.2,0-2.1,0.5-2.7,1.4v11.3h-4.2v-22.5h4.2V498.5z"/>
	<path class="st5" d="M256.5,504.5c0-1.6,0.3-3,0.9-4.2s1.5-2.2,2.6-2.9s2.5-1,4-1c2.1,0,3.9,0.7,5.2,2s2.1,3.1,2.3,5.3l0,1.1
		c0,2.4-0.7,4.4-2,5.9c-1.4,1.5-3.2,2.2-5.5,2.2s-4.1-0.7-5.5-2.2s-2-3.5-2-6V504.5z M269.6,494.2v0.2l-3.4,0l-2.3-2.1l-2.3,2.1
		l-3.3,0v-0.2l4.3-4h2.5L269.6,494.2z M260.7,504.8c0,1.5,0.3,2.7,0.8,3.5s1.4,1.2,2.4,1.2c1,0,1.8-0.4,2.4-1.2
		c0.6-0.8,0.9-2,0.9-3.8c0-1.5-0.3-2.6-0.9-3.4s-1.4-1.2-2.4-1.2c-1,0-1.8,0.4-2.4,1.2C261,501.9,260.7,503.1,260.7,504.8z"/>
	<path class="st5" d="M278,496.8l0.1,1.8c1.1-1.4,2.7-2.1,4.6-2.1c1.7,0,2.9,0.5,3.8,1.5s1.2,2.5,1.3,4.4v10.2h-4.2v-10.1
		c0-0.9-0.2-1.5-0.6-2s-1-0.6-1.9-0.6c-1.2,0-2.1,0.5-2.7,1.5v11.2H274v-15.8H278z"/>
	<path class="st5" d="M290.3,504.6c0-2.4,0.6-4.4,1.7-5.9s2.7-2.2,4.7-2.2c1.7,0,3.1,0.6,4.1,1.8l0.2-1.5h3.8v15.3
		c0,1.4-0.3,2.6-0.9,3.6s-1.5,1.8-2.7,2.3s-2.5,0.8-4,0.8c-1.2,0-2.3-0.2-3.4-0.7c-1.1-0.5-1.9-1.1-2.5-1.8l1.9-2.6
		c1.1,1.2,2.3,1.8,3.8,1.8c1.1,0,2-0.3,2.6-0.9c0.6-0.6,0.9-1.5,0.9-2.6v-0.8c-1,1.1-2.3,1.7-3.9,1.7c-1.9,0-3.4-0.7-4.6-2.2
		c-1.2-1.5-1.8-3.5-1.8-5.9V504.6z M294.5,504.9c0,1.4,0.3,2.6,0.9,3.4c0.6,0.8,1.4,1.2,2.4,1.2c1.3,0,2.2-0.5,2.8-1.5v-6.7
		c-0.6-1-1.5-1.5-2.7-1.5c-1,0-1.8,0.4-2.4,1.2S294.5,503.2,294.5,504.9z"/>
	<path class="st5" d="M320.5,492.9v3.9h2.7v3.1h-2.7v7.9c0,0.6,0.1,1,0.3,1.3s0.7,0.4,1.3,0.4c0.5,0,0.9,0,1.2-0.1v3.2
		c-0.8,0.3-1.7,0.4-2.6,0.4c-3,0-4.5-1.5-4.5-4.5v-8.5H314v-3.1h2.3v-3.9H320.5z"/>
	<path class="st5" d="M330.2,494.9h-3.5l-4-4.5h4.6L330.2,494.9z M330.2,512.6H326v-15.8h4.2V512.6z"/>
	<path class="st5" d="M337.8,496.8l0.1,1.8c1.1-1.4,2.6-2.1,4.6-2.1c2,0,3.4,0.8,4.2,2.4c1.1-1.6,2.7-2.4,4.8-2.4
		c1.7,0,3,0.5,3.8,1.5s1.3,2.5,1.3,4.5v10.1h-4.2v-10.1c0-0.9-0.2-1.6-0.5-2c-0.4-0.4-1-0.6-1.9-0.6c-1.3,0-2.1,0.6-2.6,1.8l0,10.9
		h-4.2v-10.1c0-0.9-0.2-1.6-0.5-2s-1-0.6-1.8-0.6c-1.2,0-2.1,0.5-2.6,1.5v11.2h-4.2v-15.8H337.8z"/>
	<path class="st5" d="M372.3,492.9v3.9h2.7v3.1h-2.7v7.9c0,0.6,0.1,1,0.3,1.3s0.7,0.4,1.3,0.4c0.5,0,0.9,0,1.2-0.1v3.2
		c-0.8,0.3-1.7,0.4-2.6,0.4c-3,0-4.5-1.5-4.5-4.5v-8.5h-2.3v-3.1h2.3v-3.9H372.3z"/>
	<path class="st5" d="M381.5,498.5c1.1-1.3,2.5-2,4.2-2c3.4,0,5.2,2,5.2,6v10.2h-4.2v-10c0-0.9-0.2-1.6-0.6-2
		c-0.4-0.4-1-0.7-1.9-0.7c-1.2,0-2.1,0.5-2.7,1.4v11.3h-4.2v-22.5h4.2V498.5z"/>
	<path class="st5" d="M403.4,512.6c-0.2-0.4-0.3-0.9-0.4-1.4c-1,1.1-2.4,1.7-4,1.7c-1.6,0-2.8-0.4-3.9-1.3c-1-0.9-1.5-2-1.5-3.4
		c0-1.7,0.6-3,1.9-3.9c1.2-0.9,3-1.4,5.4-1.4h1.9V502c0-0.7-0.2-1.3-0.6-1.8c-0.4-0.4-1-0.7-1.8-0.7c-0.7,0-1.3,0.2-1.7,0.5
		c-0.4,0.3-0.6,0.8-0.6,1.4h-4.2c0-0.9,0.3-1.8,0.8-2.5s1.4-1.4,2.4-1.8c1-0.4,2.2-0.7,3.5-0.7c2,0,3.5,0.5,4.7,1.5
		c1.1,1,1.7,2.4,1.7,4.1v6.9c0,1.5,0.2,2.6,0.6,3.4v0.2H403.4z M399.4,491.3h2.4l4.2,3.4l-3.2,0l-2.2-1.8l-2.2,1.8l-3.1,0
		L399.4,491.3z M399.9,509.7c0.6,0,1.2-0.1,1.7-0.4c0.5-0.3,0.9-0.7,1.2-1.1v-2.7h-1.6c-2.1,0-3.2,0.7-3.4,2.2l0,0.2
		c0,0.5,0.2,1,0.6,1.3S399.2,509.7,399.9,509.7z M407.3,488.7h3.4l-3.3,4h-2.4L407.3,488.7z"/>
	<path class="st5" d="M416,506.6l2.9-9.9h4.5l-6.4,18.3l-0.4,0.8c-0.9,2.1-2.5,3.1-4.7,3.1c-0.6,0-1.2-0.1-1.9-0.3v-3.2l0.6,0
		c0.8,0,1.4-0.1,1.8-0.4c0.4-0.2,0.7-0.6,0.9-1.2l0.5-1.3l-5.6-15.9h4.6L416,506.6z"/>
	<path class="st5" d="M438.3,506.2l-1.5,1.5v4.8h-4.2v-22.5h4.2v12.5l0.8-1.1l4.1-4.8h5.1l-5.7,6.6l6.2,9.2h-4.9L438.3,506.2z"/>
	<path class="st5" d="M455.6,512.9c-2.3,0-4.2-0.7-5.7-2.1s-2.2-3.3-2.2-5.7v-0.4c0-1.6,0.3-3,0.9-4.3c0.6-1.3,1.5-2.2,2.6-2.9
		c1.1-0.7,2.4-1,3.9-1c2.2,0,3.9,0.7,5.1,2.1c1.2,1.4,1.9,3.3,1.9,5.8v1.7H452c0.1,1,0.5,1.9,1.2,2.5c0.7,0.6,1.6,0.9,2.6,0.9
		c1.6,0,2.9-0.6,3.8-1.8l2.1,2.3c-0.6,0.9-1.5,1.6-2.6,2.1C458.1,512.6,456.9,512.9,455.6,512.9z M453.4,491.3h2.4l4.2,3.4l-3.2,0
		l-2.2-1.8l-2.2,1.8l-3.1,0L453.4,491.3z M455.1,499.9c-0.8,0-1.5,0.3-2,0.9c-0.5,0.6-0.9,1.4-1,2.4h5.9v-0.3c0-0.9-0.3-1.7-0.8-2.2
		S456,499.9,455.1,499.9z M461.3,488.7h3.4l-3.3,4h-2.4L461.3,488.7z"/>
	<path class="st5" d="M469.6,492.9v3.9h2.7v3.1h-2.7v7.9c0,0.6,0.1,1,0.3,1.3s0.7,0.4,1.3,0.4c0.5,0,0.9,0,1.2-0.1v3.2
		c-0.8,0.3-1.7,0.4-2.6,0.4c-3,0-4.5-1.5-4.5-4.5v-8.5h-2.3v-3.1h2.3v-3.9H469.6z"/>
	<path class="st5" d="M481.5,504.5c0-2.5,0.6-4.5,1.7-5.9s2.6-2.2,4.6-2.2c1.7,0,3.1,0.6,4.1,1.9l0.3-1.7h3.7v21.9h-4.2v-7.5
		c-1,1.1-2.3,1.7-3.8,1.7c-1.9,0-3.4-0.7-4.5-2.2S481.5,507.2,481.5,504.5z M485.7,504.8c0,1.5,0.3,2.7,0.8,3.5
		c0.5,0.8,1.3,1.2,2.2,1.2c1.3,0,2.2-0.5,2.8-1.6v-6.6c-0.5-1-1.4-1.5-2.7-1.5c-1,0-1.7,0.4-2.3,1.2S485.7,503.1,485.7,504.8z"/>
	<path class="st5" d="M508.6,511c-1,1.3-2.5,1.9-4.3,1.9c-1.7,0-3-0.5-3.9-1.5c-0.9-1-1.3-2.4-1.4-4.3v-10.4h4.2V507
		c0,1.7,0.8,2.5,2.3,2.5c1.4,0,2.4-0.5,3-1.5v-11.2h4.2v15.8h-4L508.6,511z"/>
	<path class="st5" d="M525.1,512.6c-0.2-0.4-0.3-0.9-0.4-1.4c-1,1.1-2.4,1.7-4,1.7c-1.6,0-2.8-0.4-3.9-1.3c-1-0.9-1.5-2-1.5-3.4
		c0-1.7,0.6-3,1.9-3.9c1.2-0.9,3-1.4,5.4-1.4h1.9V502c0-0.7-0.2-1.3-0.6-1.8c-0.4-0.4-1-0.7-1.8-0.7c-0.7,0-1.3,0.2-1.7,0.5
		c-0.4,0.3-0.6,0.8-0.6,1.4h-4.2c0-0.9,0.3-1.8,0.8-2.5s1.4-1.4,2.4-1.8c1-0.4,2.2-0.7,3.5-0.7c2,0,3.5,0.5,4.7,1.5
		c1.1,1,1.7,2.4,1.7,4.1v6.9c0,1.5,0.2,2.6,0.6,3.4v0.2H525.1z M521.6,509.7c0.6,0,1.2-0.1,1.7-0.4c0.5-0.3,0.9-0.7,1.2-1.1v-2.7
		h-1.6c-2.1,0-3.2,0.7-3.4,2.2l0,0.2c0,0.5,0.2,1,0.6,1.3S520.9,509.7,521.6,509.7z M520.7,494.1l-0.2-2c0.7,0,1.2-0.1,1.5-0.3
		c0.3-0.1,0.5-0.4,0.5-0.7c0-0.7-0.7-1-2.1-1l0.1-2c1.8,0,3.2,0.3,4.2,0.8s1.4,1.2,1.4,2.1c0,0.6-0.2,1-0.6,1.4
		c-0.4,0.4-0.9,0.6-1.6,0.7v0.9H520.7z"/>
</g>
</svg>
