<svg id="Layer_1" data-name="Layer 1" xmlns="http://www.w3.org/2000/svg" viewBox="0 0 1357.98 444" height="60" width="183"><defs><style>.cls-1{fill:#ec0101;}.cls-2{fill:#fff;}</style></defs><path class="cls-1" d="M11.41,10.82H90.85l81.8,225.08L255.4,10.82h78.49l-130,333.83H140Z" transform="translate(-11.41 -3.73)" /><path class="cls-1" d="M363.67,43.45c0-22.22,16.55-39.72,39.25-39.72s38.77,17.5,38.77,39.72-16.07,39.72-38.77,39.72S363.67,65.67,363.67,43.45Zm2.84,71.4h72.35v229.8H366.51Z" transform="translate(-11.41 -3.73)" /><path class="cls-1" d="M474.78,229.75c0-68.56,53.44-120.1,123.42-120.1,67.61,0,115.84,48.23,115.84,114.9,0,8.51-.94,17-3.31,28.84l-164.55.47c7.57,25.54,27.43,40.2,56.75,40.2,22.69,0,41.13-7.57,54.84-23.65l39.72,39.72c-22.69,26.48-55.32,39.72-94.09,39.72C528.69,349.85,474.78,299.73,474.78,229.75Zm71.4-25.53,100.25-.48C640.75,178.21,624.68,165,598.67,165,572.19,165,553.28,179.63,546.18,204.22Z" transform="translate(-11.41 -3.73)" /><path class="cls-2" d="M662.5,416.05l44.92-44.92c6.62,8,13.71,11.35,23.17,11.35,13.71,0,24.11-8,24.11-25.06V114.85h72.35V356.47c0,55.8-38.78,91.26-91.26,91.26C702.21,447.73,680,436.38,662.5,416.05Zm89.84-372.6c0-22.22,16.55-39.72,39.24-39.72s38.78,17.5,38.78,39.72-16.08,39.72-38.78,39.72S752.34,65.67,752.34,43.45Z" transform="translate(-11.41 -3.73)" /><path class="cls-2" d="M863,229.28c0-68.09,53.9-119.63,125.77-119.63,71.4,0,125.78,51.54,125.78,119.63,0,68.56-53.9,120.57-125.78,120.57C917.36,349.85,863,297.37,863,229.28Zm177.79,0c0-32.16-21.28-53.91-52-53.91s-52,22.23-52,54.38,21.28,54.38,52,54.38C1020,284.13,1040.77,261.9,1040.77,229.28Z" transform="translate(-11.41 -3.73)" /><path class="cls-2" d="M1208.15,329.05l-87.47-214.2h78l45.86,140,46.81-140h78L1271,345.6l-40.66,96h-74.24Z" transform="translate(-11.41 -3.73)" /></svg>