<svg id="Layer_1" data-name="Layer 1" xmlns="http://www.w3.org/2000/svg" viewBox="0 0 257.51 30.56"><defs><style>.cls-1{fill:#ec0101;}.cls-2{fill:#fff;}</style></defs><path class="cls-1" d="M0,.61H6.72v3A10.91,10.91,0,0,1,15.16,0a10.69,10.69,0,0,1,9.41,4.89A11.77,11.77,0,0,1,34.34,0c6.3,0,11.37,4.22,11.37,11V29.94H39V12.47c0-3.91-2.75-6.18-6.36-6.18s-6.41,2.27-6.41,6.18V29.94H19.49V12.47c0-3.91-2.75-6.18-6.35-6.18S6.72,8.56,6.72,12.47V29.94H0Z"/><path class="cls-1" d="M50.72,15.22a15.37,15.37,0,0,1,30.74,0,15.37,15.37,0,0,1-30.74,0Zm23.83,0c0-5.14-3.54-8.74-8.49-8.74s-8.43,3.66-8.43,8.74,3.48,8.86,8.43,8.86S74.55,20.41,74.55,15.22Z"/><path class="cls-1" d="M82.56.61H90l8,18.76L106.08.61h7.16L99.85,29.94H95.94Z"/><path class="cls-1" d="M117.27.61H124V29.94h-6.72Z"/><path class="cls-2" d="M132.18,26a4.46,4.46,0,1,1,8.92,0,4.46,4.46,0,1,1-8.92,0Z"/><path class="cls-2" d="M146.35,15.28A15.09,15.09,0,0,1,161.75,0a14.83,14.83,0,0,1,11.43,5.07l-4.4,4.46a8.9,8.9,0,0,0-7-3c-5,0-8.49,3.6-8.49,8.8s3.48,8.8,8.49,8.8a8.88,8.88,0,0,0,7-3.06l4.4,4.46a14.84,14.84,0,0,1-11.43,5.08A15.09,15.09,0,0,1,146.35,15.28Z"/><path class="cls-2" d="M175.5,15.22a15.37,15.37,0,0,1,30.74,0,15.37,15.37,0,0,1-30.74,0Zm23.84,0c0-5.14-3.55-8.74-8.5-8.74s-8.43,3.66-8.43,8.74,3.48,8.86,8.43,8.86S199.34,20.41,199.34,15.22Z"/><path class="cls-2" d="M211.8.61h6.72v3A10.93,10.93,0,0,1,227,0a10.69,10.69,0,0,1,9.41,4.89A11.78,11.78,0,0,1,246.15,0c6.29,0,11.36,4.22,11.36,11V29.94h-6.72V12.47c0-3.91-2.75-6.18-6.35-6.18S238,8.56,238,12.47V29.94H231.3V12.47c0-3.91-2.75-6.18-6.36-6.18s-6.42,2.27-6.42,6.18V29.94H211.8Z"/></svg>